<svg width="60" height="60" viewBox="0 0 60 60" fill="none" xmlns="http://www.w3.org/2000/svg">
<path d="M55.7233 20.0732C55.4842 19.5005 55.245 18.9295 55.0058 18.3601C54.3823 17.2953 53.4963 16.4081 52.4325 15.7833L50.7177 15.0655C49.4692 14.7234 48.1517 14.7234 46.9031 15.0655L43.1124 16.6494L43.2559 16.3264C43.4735 15.8479 43.6936 15.3478 43.9112 14.8597L43.9375 14.7975C44.4537 13.9992 44.7477 13.0774 44.7889 12.1274C44.9586 10.7328 44.7264 9.31874 44.1197 8.05175C43.5129 6.78476 42.5568 5.71762 41.3641 4.97599L39.6493 4.25822C38.397 3.91393 37.0751 3.91393 35.8228 4.25822L34.1104 4.97599C33.0459 5.60075 32.1591 6.48787 31.5346 7.55279L31.0874 8.55769C30.6776 9.47166 30.2703 10.3856 29.8653 11.2996C29.7058 11.6664 29.5464 12.0325 29.387 12.3978C28.805 11.085 28.2246 9.77072 27.6459 8.4548C26.9503 7.21839 25.891 6.22626 24.612 5.61326C23.333 5.00026 21.8963 4.79613 20.4973 5.02862C19.5483 5.06902 18.6275 5.36315 17.8307 5.88038L16.3766 7.0025C15.4986 7.8803 14.8632 8.97096 14.5327 10.1679C14.4466 10.8059 14.3613 11.4439 14.2768 12.082C14.2742 13.3551 14.6119 14.6057 15.2549 15.7043C15.3458 15.9077 15.4343 16.1087 15.5228 16.312L13.0929 15.2952C12.1651 14.9953 11.1736 14.9515 10.223 15.1684C9.27324 15.2088 8.35167 15.5029 7.55396 16.0201C5.99285 17.025 4.82819 18.5402 4.25831 20.3077L4 22.2217C3.99904 23.4949 4.33755 24.7454 4.98059 25.8441C5.35368 26.3226 5.72914 26.8011 6.10224 27.2964C6.98007 28.176 8.07117 28.8124 9.26872 29.1434L10.974 29.8612L9.31894 30.5312C7.55022 31.1 6.03429 32.2663 5.0308 33.8305C4.51378 34.6276 4.21976 35.5489 4.17937 36.4982C3.96293 37.4493 4.00672 38.4411 4.30613 39.3693L5.02362 41.0824C5.64599 42.1476 6.53229 43.0342 7.59699 43.6568L9.31181 44.3746C10.5641 44.7189 11.8861 44.7189 13.1384 44.3746L15.5658 43.3913L15.4439 43.6664L14.791 45.1307L14.7622 45.1929C14.2463 45.9914 13.9524 46.9131 13.9109 47.863C13.696 48.8143 13.7406 49.8059 14.04 50.7341C14.6106 52.5018 15.775 54.0175 17.3356 55.024L19.0504 55.7418C20.3027 56.0861 21.6247 56.0861 22.877 55.7418L24.5918 55.024C25.6544 54.3987 26.5401 53.5127 27.1651 52.4496C27.3158 52.1122 27.4641 51.7773 27.6147 51.4423C28.0213 50.5284 28.4287 49.6152 28.8369 48.7028C28.9963 48.3343 29.1598 47.9675 29.3272 47.6022L31.0659 51.5452C31.7622 52.7811 32.8214 53.7729 34.1002 54.3862C35.3789 54.9995 36.8152 55.2046 38.2144 54.9738C39.1639 54.9322 40.0852 54.6382 40.8834 54.122L42.3351 52.9999C43.2135 52.1214 43.8488 51.0299 44.179 49.8321L44.4373 47.918C44.4374 46.6449 44.0989 45.3948 43.4568 44.2957C43.3037 43.9488 43.1507 43.5994 42.9952 43.2525L45.7647 44.4105C46.6927 44.7092 47.6839 44.753 48.6346 44.5373C49.5842 44.4961 50.5056 44.202 51.3036 43.6856C52.8658 42.6802 54.0313 41.1641 54.6017 39.3956C54.6854 38.7592 54.7715 38.1252 54.8576 37.4816C54.8589 36.2083 54.5204 34.9578 53.877 33.8592L52.7554 32.4045C51.8773 31.5258 50.7862 30.8902 49.5889 30.5599L48.1993 29.9785L50.7345 28.9209C52.5022 28.3504 54.0176 27.1844 55.0226 25.6216C55.5386 24.8239 55.8325 23.903 55.874 22.9538C56.0832 21.9975 56.0311 21.0024 55.7233 20.0732Z" fill="#C3C6BD"/>
<path fill-rule="evenodd" clip-rule="evenodd" d="M55.4143 19.3342C55.5173 19.5802 55.6203 19.8265 55.7233 20.0732C56.0311 21.0024 56.0832 21.9975 55.874 22.9538C55.8336 23.8777 55.554 24.7749 55.0633 25.5576C53.8165 22.8369 52.1135 19.1142 51.5248 17.6499C51.2186 18.7122 51.7831 21.7508 52.1753 23.8299C52.507 25.5992 52.7469 26.9306 52.807 27.9032C52.1732 28.3374 51.4761 28.6816 50.7345 28.9209L50.6561 28.9537C50.0966 28.1111 49.1705 26.6215 47.5332 23.9878C46.5642 22.4281 45.5953 20.8596 44.9099 19.7502L44.8259 19.6142C44.7732 21.289 44.8067 24.1936 44.8928 27.3805C46.2465 28.1988 47.8345 29.8831 49.566 31.723C51.111 33.3644 53.2946 35.6828 54.5526 36.2211L54.3134 35.8933C53.3376 34.6109 52.9502 34.0391 53.053 33.5247C53.0736 33.4248 53.1151 33.3306 53.1749 33.248C53.2113 33.1977 53.2541 33.1525 53.3019 33.1134L53.877 33.8592C54.5204 34.9578 54.8589 36.2083 54.8576 37.4816C54.8554 37.4979 54.8532 37.5142 54.851 37.5305C53.2045 37.35 51.0821 35.0974 48.6931 32.5604C48.6417 32.5061 48.5895 32.4511 48.5368 32.3953C47.4319 31.2284 46.052 29.7711 44.9335 28.8783C44.9369 28.9869 44.9418 29.0959 44.9467 29.205C44.9556 29.4035 44.9646 29.6027 44.9646 29.8018C45.8997 31.3307 47.1433 33.3739 48.3726 35.4315C50.663 39.2619 51.8971 41.4317 52.5538 42.6923C52.1734 43.0619 51.7551 43.395 51.3036 43.6856C51.2698 43.7074 51.2358 43.7289 51.2015 43.75L40.6023 31.8044C42.274 34.4458 43.8142 37.2188 45.0459 39.5635C46.7631 42.0186 47.7404 43.61 48.0351 44.6385C47.4221 44.707 46.8015 44.6707 46.1999 44.5309C45.7042 43.503 44.9351 41.9442 43.9817 40.1282C43.1016 38.8697 42.1449 37.5538 41.2958 36.3886C40.725 35.6038 40.1862 34.8581 39.6792 34.1515C39.6615 34.3908 39.5723 34.6192 39.4232 34.8071C39.3558 34.8825 39.2733 34.9428 39.1809 34.984C39.0886 35.0252 38.9886 35.0465 38.8875 35.0463C37.8567 35.0463 37.144 34.0367 36.5748 32.5198L36.1324 32.5772L35.3336 32.6801C36.5533 34.5511 37.6654 36.3694 38.622 37.9438C41.4322 39.0874 42.2238 39.5348 42.4104 40.0684C42.4457 40.1663 42.4592 40.2707 42.4501 40.3744C42.441 40.4781 42.4095 40.5786 42.3578 40.6689C42.293 40.7804 42.194 40.868 42.0756 40.9189C41.9571 40.9697 41.8255 40.9811 41.7001 40.9512L40.3488 40.6306C41.4083 42.0159 41.7718 42.7098 41.6833 43.2122C41.6649 43.3256 41.6215 43.4334 41.5561 43.5278C41.4907 43.6222 41.4051 43.7007 41.3054 43.7577C41.2368 43.797 41.1612 43.8223 41.0828 43.8322C41.0044 43.842 40.9248 43.8363 40.8486 43.8152C40.7718 43.7943 40.7 43.7581 40.6376 43.7087C40.5751 43.6594 40.5232 43.5979 40.4851 43.528C40.0307 42.7193 39.4783 41.7384 38.8349 40.6378L38.4618 40.1808L32.9013 38.8553C32.8492 38.9338 32.7806 38.9999 32.7004 39.0491C32.5927 39.1104 32.4789 39.1601 32.3608 39.1975C32.4441 39.2445 32.524 39.2973 32.6 39.3554C32.7959 39.5136 32.9529 39.7148 33.0586 39.9434C33.1644 40.172 33.2161 40.4219 33.2099 40.6737V40.7718C33.968 41.0709 34.707 41.358 35.4029 41.6283C39.7337 43.3068 42.7525 44.5157 44.0759 45.6685C44.3132 46.3876 44.4361 47.1428 44.4373 47.9064C42.9776 49.5266 39.1315 47.8657 35.0725 46.1129L35.0705 46.112C34.1163 45.6981 32.9851 45.21 31.9064 44.7985C31.6266 44.8296 31.3037 44.8559 30.9282 44.8846C30.9764 45.0057 31.0007 45.1348 31 45.265C31.0002 45.5017 30.9247 45.7322 30.7847 45.923C33.691 47.6471 38.4606 50.0646 43.0392 52.1807C42.8262 52.4701 42.591 52.744 42.3351 52.9999L41.8084 53.407C40.8035 53.1706 39.2219 52.5406 36.6801 51.469C39.141 52.7823 40.3391 53.579 40.9353 54.0819L40.8834 54.122C40.5307 54.3501 40.1538 54.5349 39.7611 54.6736C38.5362 53.8026 35.594 52.1553 30.2089 49.6017L29.3272 47.6022C29.2484 47.7741 29.1704 47.9464 29.0934 48.1191C28.155 48.075 27.1924 48.0429 26.255 48.0429C25.4634 48.1553 24.5857 48.2941 23.7893 48.4209C20.7615 48.9042 18.2145 49.275 16.3562 49.275C16.2702 49.3269 16.19 49.3878 16.117 49.4569C16.9206 49.4569 18.6186 49.22 20.0297 49.0214C24.2915 48.4209 27.1686 48.0931 28.1611 48.9568C28.2847 49.0605 28.3839 49.1901 28.4517 49.3365C28.47 49.3761 28.4859 49.4166 28.4993 49.4579C28.2041 50.1189 27.9092 50.7804 27.6147 51.4423C27.5483 51.59 27.4824 51.7376 27.4165 51.8854C26.1876 53.2498 24.1991 54.7326 22.6652 55.7852C22.6985 55.7807 22.7312 55.7763 22.7633 55.772C21.938 55.9845 21.0844 56.0485 20.2421 55.9638C20.2757 55.9286 20.3135 55.8976 20.355 55.8714C23.6841 53.7563 27.2739 50.8733 27.3552 49.8421C26.7119 49.2918 22.3113 49.9091 20.1804 50.2081C16.6767 50.6986 15.5024 50.8206 14.9858 50.3708C14.9041 50.3012 14.8384 50.2146 14.7934 50.1171C14.7484 50.0197 14.7251 49.9136 14.7251 49.8062C14.7257 49.5876 14.7722 49.3716 14.8614 49.1721C14.4803 49.1274 14.1135 49.0059 13.7827 48.8162C13.7971 48.4966 13.8398 48.1776 13.9109 47.863C13.9354 47.3021 14.0479 46.7511 14.2421 46.2295C14.6394 46.1058 15.1299 46.0168 15.7104 45.9541C15.593 45.7759 15.5261 45.5692 15.5167 45.356C15.2776 45.5441 14.9815 45.6454 14.6773 45.6431C14.6216 45.6429 14.5665 45.6349 14.5136 45.6197C14.5897 45.4741 14.6726 45.3316 14.7622 45.1929L14.791 45.1307L15.4439 43.6664L15.5658 43.3913L15.0672 43.5933C15.068 43.5923 15.0687 43.5912 15.0695 43.5902C15.3015 41.9083 14.7299 38.3601 14.3257 35.8598C13.6895 31.9073 13.4982 30.3521 14.0315 29.7276C14.1079 29.6349 14.204 29.5604 14.3128 29.5095C14.4216 29.4586 14.5404 29.4326 14.6605 29.4334C15.6459 29.4334 16.8895 31.0148 19.5873 35.9077C19.9316 35.4004 20.5391 34.9411 21.381 34.5248L21.3451 34.1515C20.0297 32.9911 17.76 30.766 13.6273 26.6316C10.6474 23.6505 7.01453 20.0233 5.79481 19.0663C5.92843 19.9543 7.89037 21.9973 9.35061 23.5179L9.36073 23.5284C12.0489 26.3349 13.6824 28.1414 13.4839 29.5458C13.4504 29.7745 13.3637 29.9922 13.2308 30.1813C13.0978 30.3704 12.9224 30.5256 12.7185 30.6344C12.2916 30.8813 11.8769 30.6722 10.9268 29.8803L10.974 29.8612L10.8335 29.8021C10.5423 29.5569 10.2028 29.2604 9.8008 28.9094L9.80075 28.9094L9.76145 28.8752C8.81192 28.0491 6.89953 26.3853 5.85939 25.878C6.1009 26.252 6.42911 26.7034 6.64642 27.0023C6.67658 27.0438 6.70461 27.0823 6.72996 27.1173L6.73095 27.1187C7.27023 27.8528 7.43119 28.0719 7.41451 28.335C6.94004 28.0424 6.49932 27.6942 6.10224 27.2964C5.77905 26.8674 5.45408 26.4509 5.13041 26.0361C5.08043 25.9721 5.03049 25.9081 4.98058 25.8441C4.79708 25.5305 4.63837 25.2046 4.50527 24.8694C4.56148 24.7957 4.63145 24.7336 4.7114 24.6864C5.87372 24.0165 7.79181 25.5646 10.5852 28.005L10.612 28.0282C11.2091 28.5474 11.9134 29.1598 12.2881 29.4238C12.2889 29.4062 12.2889 29.3887 12.2881 29.3711C12.4196 28.438 10.1475 26.0718 8.48776 24.3467C6.34424 22.1153 4.90992 20.5693 4.63137 19.3607C4.91926 18.7472 5.28288 18.1742 5.71232 17.6548C6.12886 17.7331 6.84518 18.3067 8.81065 20.1884C10.3744 21.6834 12.452 23.7618 14.4604 25.7711L14.462 25.7727C15.5047 26.8159 16.6671 27.9787 17.7959 29.096C12.7138 22.5834 10.3293 18.2145 10.7 16.0803C10.741 15.799 10.8449 15.5305 11.0039 15.2948C11.0661 15.2026 11.1361 15.1164 11.213 15.0369C11.6846 15.0183 12.1573 15.0613 12.6191 15.1654C12.8713 15.5807 13.274 16.3725 14.0626 17.9346L14.0649 17.939C15.5289 20.8347 18.0603 25.8418 20.7017 29.998C20.6619 29.9214 20.626 29.8417 20.5941 29.7587C20.5019 29.5088 20.4659 29.2415 20.4886 28.976C20.5113 28.7106 20.5923 28.4533 20.7257 28.2227C20.7701 28.1475 20.823 28.0776 20.8835 28.0145C20.8739 26.847 20.9863 26.1507 21.2566 25.7847C19.03 22.9303 17.5185 20.9325 16.801 19.564C16.6955 19.5183 16.5979 19.4761 16.5089 19.4376C16.1073 19.2638 15.8776 19.1644 15.8659 19.1644C15.7878 19.1316 15.7175 19.0825 15.6597 19.0204C15.602 18.9584 15.5581 18.8848 15.531 18.8044C15.5038 18.7241 15.494 18.639 15.5023 18.5546C15.5106 18.4702 15.5367 18.3886 15.5789 18.315C15.658 18.1736 15.7736 18.0561 15.9138 17.9748C16.0539 17.8936 16.2133 17.8516 16.3753 17.8533C16.4048 17.7269 16.4596 17.6079 16.5365 17.5034C16.6134 17.3989 16.7107 17.3112 16.8225 17.2455C16.9531 17.1688 17.0929 17.1093 17.2387 17.0685C16.5229 16.6664 15.8892 16.2804 15.3463 15.9098C15.3161 15.8414 15.2856 15.773 15.2549 15.7043C14.8801 15.0639 14.609 14.3719 14.4486 13.6539C15.804 15.499 23.2227 18.7965 28.3529 21.0768L28.5558 21.167L30.5767 22.0666C30.9118 22.0845 31.243 22.1465 31.562 22.2508C31.8337 22.339 32.0977 22.4494 32.3512 22.581C32.4069 22.2319 32.55 21.9027 32.7674 21.624C32.8688 21.5031 32.9954 21.406 33.1384 21.3395C33.2814 21.2729 33.4372 21.2386 33.5949 21.2388C34.1712 21.2388 34.5969 21.6287 34.9629 22.3872C35.9052 22.112 36.7327 21.8489 37.4645 21.6096C37.4269 20.8038 37.5123 19.997 37.718 19.217C36.98 19.27 36.2434 19.329 35.5653 19.3833C35.3864 19.3977 35.2115 19.4117 35.0418 19.4252C29.3713 19.9037 27.7546 19.9467 27.1901 19.4252C27.1139 19.3569 27.0531 19.2732 27.0118 19.1795C26.9706 19.0858 26.9498 18.9844 26.951 18.8821V18.7122C24.5397 17.9701 21.7026 16.6498 19.0304 15.4063L19.0084 15.3961C17.332 14.6138 15.3083 13.6724 14.4025 13.431C14.3235 13.0155 14.2813 12.5924 14.2771 12.1664C15.1742 12.2734 16.7324 12.9793 19.5561 14.2931C21.711 15.298 24.9133 16.7885 27.4843 17.5781C27.8451 17.1892 28.276 16.8718 28.7543 16.6426C28.2867 16.3971 27.7899 16.1446 27.2867 15.8889C26.8581 15.6712 26.425 15.4511 26.0015 15.231C18.6054 11.4542 15.6276 9.81833 15.0461 8.83954C15.3758 8.18752 15.8043 7.58731 16.3186 7.06114C18.2987 6.21439 21.8233 6.12913 24.0691 6.17506C24.0679 6.06824 24.096 5.96313 24.1504 5.8712C24.2282 5.73586 24.3559 5.63647 24.5062 5.59441C24.5207 5.59035 24.5354 5.58685 24.5501 5.58392C24.5708 5.59359 24.5914 5.60337 24.612 5.61325C25.2957 5.94092 25.9166 6.37691 26.4527 6.90062C26.4315 6.9855 26.3972 7.06688 26.3507 7.14166C26.2957 7.23858 26.2145 7.31791 26.1162 7.37043C26.018 7.42295 25.9069 7.44649 25.7959 7.43834C22.3998 7.24214 17.4395 7.4216 16.2437 8.43845C17.3582 9.47683 23.0551 12.3838 26.5444 14.1639C28.1564 14.9869 29.3306 15.5922 30.194 16.0468C31.9112 15.4654 34.1665 15.03 36.5724 14.5658C39.6528 13.9725 43.776 13.1781 44.4935 12.1254C43.6924 12.1095 41.8281 12.4163 40.207 12.6831C40.1244 12.6967 40.0425 12.7102 39.9614 12.7235C34.6735 13.5968 30.8254 14.1256 29.4383 12.9485C29.2692 12.8086 29.1336 12.6326 29.0413 12.4335C28.949 12.2344 28.9024 12.0171 28.905 11.7976C28.9052 11.6907 28.9341 11.5866 28.9875 11.4958C29.1205 11.7965 29.2537 12.0972 29.387 12.3978C29.5464 12.0325 29.7058 11.6664 29.8653 11.2996C29.8838 11.2577 29.9024 11.2159 29.9209 11.174C34.9322 10.859 40.3855 10.2546 43.0991 9.62755C41.9384 9.65774 40.4668 9.7285 39.1522 9.79171L39.0334 9.79742C32.9396 10.0968 31.1798 10.1011 30.548 9.76396C30.7273 9.36187 30.9071 8.95978 31.0874 8.55769L31.1803 8.34893C34.6926 6.96552 36.6615 6.07179 37.7659 5.49796C37.0173 5.54581 36.6418 5.49796 36.4026 5.28024C36.3334 5.21813 36.2781 5.14213 36.2402 5.05722C36.2023 4.9723 36.1827 4.88036 36.1826 4.78737C36.1826 4.62873 36.2456 4.47659 36.3577 4.36441C36.4698 4.25224 36.6219 4.18922 36.7805 4.18922C36.9147 4.18955 37.045 4.23411 37.1512 4.31602C37.6444 4.3156 38.1371 4.28604 38.6268 4.2275C38.9013 4.20131 39.1176 4.18078 39.292 4.16971C39.4117 4.19612 39.5308 4.22563 39.6493 4.25821L40.2047 4.49066C40.2136 4.50694 40.2219 4.52363 40.2294 4.5407C40.2635 4.61847 40.2813 4.70243 40.2818 4.78737C40.2818 5.44772 39.7318 6.19181 33.2218 8.82365C34.8959 8.80451 37.2158 8.69444 38.9832 8.60831C41.7667 8.47331 43.351 8.41217 44.2844 8.42147C44.5396 9.03926 44.7088 9.68693 44.789 10.3463C43.6937 10.7933 41.5689 11.2506 37.4764 11.7139C34.9079 12.0034 32.3178 12.2068 30.8206 12.3144C32.5262 12.7306 36.5362 12.0744 39.4479 11.598C39.5495 11.5813 39.6497 11.5649 39.7485 11.5488C42.5688 11.0826 44.0313 10.8662 44.8379 10.9642C44.8522 11.3511 44.836 11.74 44.7889 12.1274C44.767 12.633 44.6734 13.1306 44.5129 13.6058C42.9179 14.5604 40.0032 15.1234 36.7971 15.7426L36.7829 15.7454C35.1542 16.0588 33.2577 16.4249 31.6577 16.8651C32.423 17.3197 32.5498 17.492 32.6143 17.7097C32.6593 17.8745 32.6388 18.0502 32.5569 18.2002C32.5116 18.2834 32.4604 18.3634 32.4039 18.4394C33.2057 18.3827 34.0036 18.3181 34.7433 18.2582C34.8155 18.2524 34.8871 18.2466 34.9581 18.2408C40.3272 17.8054 42.7882 17.6666 43.6636 18.1715C43.7377 17.7266 43.8309 17.6284 43.9218 17.5328L43.9219 17.5327C43.9816 17.4694 44.0534 17.419 44.1332 17.3845C44.213 17.3499 44.2989 17.3319 44.3858 17.3317C44.488 17.3314 44.5886 17.3575 44.6778 17.4073C44.767 17.4572 44.8419 17.5292 44.8952 17.6164C47.0955 21.1957 50.274 26.3254 51.5487 28.2897C51.5128 27.2633 51.1685 25.4186 50.9173 24.0883C50.1759 20.1549 49.7933 17.6929 50.6542 16.657C50.7738 16.5061 50.9262 16.3845 51.0999 16.3016C51.2735 16.2187 51.4639 16.1765 51.6563 16.1784C52.0418 16.1784 52.1653 16.4311 52.3854 16.8808L52.3929 16.8962C52.5125 17.1403 52.6775 17.4872 52.8713 17.9035C53.2587 18.7289 53.7681 19.8319 54.2751 20.9349C54.7319 21.9278 55.1863 22.9183 55.5475 23.7103C55.4803 23.1934 55.3817 22.6379 55.3085 22.225C55.2983 22.1677 55.2887 22.1131 55.2796 22.0618C54.9759 20.4492 54.8994 19.8726 55.2151 19.4922C55.2713 19.4276 55.3389 19.3741 55.4143 19.3342ZM4.9887 40.999L4.30613 39.3693C4.27461 39.2716 4.24592 39.1732 4.22007 39.0742C4.20715 38.951 4.19419 38.8335 4.18287 38.7309C4.04415 37.4317 4.00593 36.9652 4.28335 36.6541C4.34363 36.5865 4.4172 36.532 4.49951 36.4941C4.58182 36.4562 4.67109 36.4358 4.76167 36.434C5.16825 36.434 5.62983 36.4341 8.46628 42.7792C8.40023 41.7693 8.00618 40.0775 7.7361 38.918L7.72485 38.8697C6.93084 35.4698 6.50513 33.3332 7.30872 32.3188C7.44037 32.1532 7.60875 32.0205 7.80052 31.9312C7.9923 31.8419 8.20217 31.7985 8.41361 31.8044C9.22915 31.8044 10.3221 32.6274 12.7951 38.5036C13.6296 40.4831 14.3766 42.4797 14.8183 43.6941L13.7201 44.139C13.3024 42.9889 12.5931 41.0898 11.7954 39.1783C9.47073 33.6132 8.54041 33.0557 8.3993 33.0031C8.29886 33.0055 8.27252 33.0366 8.25339 33.0629C7.75115 33.6969 8.43992 36.647 8.89672 38.5969C9.59507 41.5877 9.98969 43.4658 9.32004 44.3104C9.30642 44.3275 9.29234 44.3442 9.27779 44.3604L7.59699 43.6568C7.57701 43.6452 7.5571 43.6334 7.53725 43.6215C6.80748 41.9922 6.03128 40.3426 5.42888 39.1664C5.52455 40.1497 5.50304 40.5397 5.26388 40.8148C5.20145 40.8844 5.12516 40.9402 5.0399 40.9785C5.02309 40.9861 5.00601 40.9929 4.9887 40.999ZM35.8732 54.9582C35.2626 54.849 34.666 54.6576 34.1002 54.3862C33.7586 54.2224 33.4327 54.0315 33.1251 53.8162C33.8559 52.6394 35.8348 53.3529 37.9324 54.1091L37.9429 54.1128L37.9735 54.1238C38.4955 54.3108 39.1576 54.548 39.6914 54.6977C39.2166 54.8581 38.7195 54.9516 38.2144 54.9738C37.8433 55.035 37.4696 55.0656 37.0969 55.066C36.617 54.8947 36.1476 54.7305 35.7091 54.6057C35.7688 54.6764 35.815 54.7575 35.8454 54.845C35.858 54.8819 35.8673 54.9198 35.8732 54.9582ZM12.81 18.2079C12.4403 17.4781 12.0933 16.7933 11.8408 16.3196H11.8312C11.6925 17.1044 12.08 19.497 16.9397 26.0742C15.6172 23.6935 14.2826 21.1239 12.9625 18.5088C12.9113 18.408 12.8604 18.3075 12.81 18.2079ZM40.1766 20.6095C41.9081 19.8822 42.5347 19.3845 42.7595 19.1165C42.1784 19.0184 40.9706 19.0352 39.5787 19.1094C39.727 19.4491 39.9183 19.93 40.1766 20.6095ZM35.495 36.7723C35.1526 36.3629 34.8102 35.9487 34.4678 35.5296C34.4691 35.7977 34.4353 36.0647 34.3674 36.324L34.4965 36.3766L34.6281 36.3623C34.7411 36.3521 34.8548 36.3741 34.9559 36.4258C35.057 36.4774 35.1415 36.5566 35.1996 36.6541L35.495 36.7723ZM22.8325 38.348C22.8486 38.616 22.8637 38.8669 22.8637 39.0994L25.5949 38.4606C25.4802 38.3649 25.3749 38.2691 25.2792 38.1758C25.1929 38.1771 25.1078 38.1784 25.0241 38.1796C24.1573 38.1925 23.4315 38.2033 22.8231 38.1902C22.8262 38.2434 22.8293 38.296 22.8325 38.348ZM22.5074 19.8391C22.2891 19.7723 22.0587 19.7551 21.833 19.7888H21.8306C21.8545 19.8606 21.8855 19.9492 21.9286 20.0425C22.6102 20.3822 23.3564 20.7626 24.1815 21.1837L25.3773 21.7962C24.3011 20.7674 23.3205 20.0784 22.5074 19.8391ZM29.9118 27.1771L29.8975 27.0958H29.8951C29.888 27.0859 29.8816 27.0755 29.8759 27.0647C29.8748 27.079 29.8748 27.0934 29.8759 27.1078L29.9118 27.1771ZM31.519 29.3387C31.5195 29.4016 31.533 29.4645 31.5467 29.5282C31.552 29.5531 31.5574 29.578 31.562 29.6032L31.7318 29.6463L31.519 29.3387ZM31.0167 26.5886C31.3356 27.0176 31.6545 27.4547 31.9734 27.8997L32.466 27.7896C32.4421 27.5719 32.4206 27.3614 32.4015 27.1532C32.3137 27.1037 32.225 27.0534 32.1352 27.0026C31.7696 26.7956 31.385 26.5779 30.9665 26.3493L31.0167 26.5886ZM32.2125 24.5405V24.385L31.4472 24.5836L32.2125 24.5405ZM35.025 26.9092C34.7433 26.9 34.4627 26.8696 34.1856 26.8182L34.1808 26.8206C34.3047 26.8947 34.4201 26.9679 34.5325 27.0393C34.609 27.0878 34.6841 27.1354 34.7596 27.1819L35.0657 27.0982C35.0586 27.0671 35.052 27.0354 35.0454 27.0037C35.0388 26.972 35.0322 26.9403 35.025 26.9092ZM29.9214 23.3251C30.0118 23.4339 30.0918 23.5508 30.1606 23.6744L30.8565 23.4973L30.3208 23.2581C30.1857 23.267 30.0519 23.2894 29.9214 23.3251ZM28.8571 31.8977C28.846 31.3235 28.8292 30.7261 28.8069 30.1057L28.3621 29.9789L27.6924 30.1415C28.0479 30.719 28.4115 31.3043 28.783 31.8977H28.8571ZM28.5247 33.7376L28.429 33.7543L28.4912 33.862L28.649 33.9338C28.6378 33.9159 28.6265 33.8979 28.6152 33.8797C28.5857 33.8323 28.5558 33.7843 28.5247 33.7376ZM27.2404 31.6895L27.4365 32.0795L27.4796 32.0747L27.2404 31.6895ZM23.6099 31.3043C23.9663 31.5436 24.3585 31.7829 24.7842 32.0221L24.7794 32.0173C24.6656 31.8326 24.5582 31.6527 24.4526 31.4758C24.3762 31.348 24.3008 31.2217 24.2246 31.0962C24.0021 31.168 23.7964 31.2373 23.6099 31.3043ZM23.2871 33.7783C23.6506 33.661 24.0332 33.5486 24.4374 33.4361L24.4327 33.4313C23.8961 33.4244 23.3625 33.3497 22.8446 33.2089C22.9929 33.4027 23.1412 33.594 23.2871 33.7783ZM26.9397 35.5849C26.6865 35.1646 26.4147 34.7133 26.1283 34.2448L26.1235 34.24C25.3582 34.4195 24.6981 34.5965 24.1265 34.776C24.4821 35.175 24.8614 35.5521 25.2625 35.9053C25.3283 35.8946 25.3953 35.8946 25.461 35.9053L27.4222 36.3838C27.2706 36.1342 27.1093 35.8665 26.9397 35.5849ZM30.0218 36.5895L30.1318 36.7403L30.4117 36.7211C30.3182 36.5844 30.2301 36.4423 30.1392 36.2958C30.1093 36.2474 30.079 36.1986 30.0482 36.1493C30.0449 36.2025 30.0409 36.2543 30.037 36.3048C30.0292 36.4044 30.0218 36.4991 30.0218 36.5895ZM30.084 33.4672V33.9817C30.249 34.2472 30.4164 34.5152 30.5934 34.7856L31.7342 35.2641C31.4688 34.6284 31.2553 33.9723 31.0956 33.3021L30.084 33.4672ZM30.0393 31.3464C30.0431 31.4776 30.0468 31.6063 30.0505 31.7326L30.7225 31.6297C30.6695 31.3679 30.6192 31.0962 30.5685 30.8222C30.553 30.7382 30.5374 30.654 30.5217 30.5698L30.0122 30.4334C30.0221 30.7518 30.0309 31.0553 30.0393 31.3464ZM32.7602 31.1441L32.478 31.0747L32.6622 31.3187L32.8583 31.2876L32.7602 31.1441ZM33.946 30.1904C33.9351 30.1027 33.9239 30.0134 33.9126 29.9225C33.8643 29.5355 33.8125 29.1206 33.7623 28.6917L34.5395 28.4883C34.9366 28.7562 35.2571 28.9955 35.5369 29.206C35.6469 29.6846 35.7569 30.1272 35.8717 30.5626C35.3466 30.4886 34.6737 30.355 33.946 30.1904ZM37.288 26.3967C37.3436 26.3762 37.3979 26.3558 37.4516 26.3357C37.5639 26.2937 37.6734 26.2528 37.785 26.2129C37.7682 26.0263 37.7515 25.8445 37.7324 25.6626C37.4573 25.6435 37.1417 25.622 36.7973 25.622C36.8157 25.7003 36.8221 25.781 36.8164 25.8612L37.288 26.3967ZM33.6284 22.4757C33.5657 22.5785 33.5228 22.6921 33.5016 22.8107L33.7551 22.7389L33.8125 22.715C33.7638 22.6262 33.7017 22.5455 33.6284 22.4757ZM28.2228 23.077C27.8356 22.6328 27.4555 22.2123 27.0777 21.8201L28.0846 22.2652L28.7662 22.569C28.557 22.7055 28.3731 22.8774 28.2228 23.077ZM27.2141 24.3898L26.6234 24.0955L26.609 24.0907C25.4299 23.5117 24.2437 22.9471 23.134 22.4255C23.5429 23.172 24.0308 24.0309 24.5833 24.9736C24.6903 24.95 24.8204 24.9217 24.9716 24.8888C25.4965 24.7746 26.2745 24.6052 27.2141 24.3898ZM26.5911 26.1271C26.0557 26.1671 25.6387 26.1983 25.3104 26.2177L25.3008 26.2129C25.693 26.8804 26.1139 27.5791 26.566 28.3064C27.1272 28.4404 27.733 28.5927 28.3835 28.7634L28.7638 28.6725C28.7567 28.517 28.75 28.3606 28.7431 28.2032C28.7316 27.9369 28.72 27.668 28.7064 27.3973C28.4789 26.9498 28.2831 26.4869 28.1205 26.0119L27.2069 26.0813C26.9859 26.0976 26.781 26.1129 26.5911 26.1271ZM23.6003 30.0434L22.8518 28.8017L22.8374 28.7969C22.5833 28.7683 22.3272 28.7627 22.0721 28.7802C22.0889 29.1917 22.1152 29.6367 22.1487 30.0961C22.2665 30.2284 22.3919 30.3538 22.5241 30.4717C22.8736 30.3068 23.233 30.1637 23.6003 30.0434ZM23.0407 35.3526C22.9326 35.3408 22.8273 35.31 22.7298 35.2617L22.5983 35.3071C22.6533 35.9268 22.7035 36.4938 22.7442 37.0106C23.1112 37.0201 23.5111 37.0171 23.9385 37.014C24.1628 37.0123 24.3948 37.0106 24.6335 37.0106V36.9341C24.0632 36.4482 23.5307 35.9195 23.0407 35.3526ZM31.8849 36.6206L31.7223 36.5537L31.7725 36.6206H31.8849ZM33.2768 35.5796C33.2816 35.0411 33.256 34.5028 33.2003 33.9673C33.1113 33.8553 33.0248 33.7437 32.9385 33.6324C32.7997 33.4533 32.6613 33.2749 32.5139 33.0964L32.2915 33.1275C32.3066 33.1836 32.3218 33.2405 32.337 33.2977C32.3866 33.4842 32.4369 33.6731 32.49 33.8453C32.8053 34.8548 33.075 35.3348 33.2768 35.5796ZM35.664 24.4256C35.5777 24.1003 35.4907 23.7996 35.4029 23.5237C36.173 23.2988 36.8738 23.0834 37.5148 22.8753C37.5387 23.3777 37.5769 23.9184 37.6248 24.4951C37.0628 24.4379 36.4108 24.421 35.664 24.4256ZM38.6651 21.2148L39.0741 21.0641L39.0597 21.0473C39.0036 20.8969 38.9484 20.7515 38.8964 20.6147C38.831 20.4426 38.7708 20.2839 38.7201 20.1453C38.6819 20.5005 38.6634 20.8576 38.6651 21.2148ZM30.5595 17.6537C30.4126 17.5733 30.2534 17.4861 30.084 17.3915L30.0696 17.3747C29.6435 17.5333 29.2348 17.7354 28.85 17.9777C29.8401 18.1882 30.6604 18.2169 31.1387 17.9777C30.9797 17.8837 30.784 17.7766 30.5595 17.6537ZM20.6539 19.1572C20.6945 19.0782 20.7506 19.0082 20.8189 18.9514L20.2928 18.6954C20.4147 18.8414 20.5343 18.9945 20.6539 19.1572ZM23.6171 26.9475C22.6317 24.9114 21.6105 22.8849 20.6539 21.2962H20.6563C20.0914 21.0417 19.5601 20.8048 19.0682 20.5854C18.9312 20.5243 18.7972 20.4645 18.6665 20.4061C19.702 21.923 21.2398 23.8945 22.505 25.5119C22.8877 26.0048 23.2583 26.4833 23.6171 26.9475ZM22.0862 27.5541C22.0687 27.5251 22.0513 27.496 22.0339 27.469V27.5982H22.1128C22.1039 27.5837 22.095 27.5689 22.0862 27.5541ZM21.4419 35.885L21.4384 35.8431L21.4408 35.8383C20.7568 36.2283 20.5175 36.5513 20.429 36.769C20.7881 36.8728 21.1582 36.933 21.5316 36.9484C21.5017 36.5985 21.4718 36.2419 21.4419 35.885ZM21.6751 39.3817C21.6656 39.0085 21.644 38.5874 21.6177 38.1424L21.6201 38.1376C21.2351 38.1089 20.9241 38.073 20.6682 38.0371L21.0222 38.7022L21.4168 39.4439L21.6751 39.3817ZM15.9639 44.6478C16.007 44.631 16.0548 44.6167 16.1051 44.6023L15.9807 44.5951C15.974 44.6123 15.9684 44.6299 15.9639 44.6478ZM14.1726 47.7485C14.4668 47.9998 15.1053 48.1098 15.9448 48.1242L15.9472 48.117C17.0784 47.5476 18.8793 47.2246 20.8381 47.0595C18.1714 47.0356 14.5888 47.0571 14.0866 47.605C14.0902 47.6336 14.0997 47.6611 14.1145 47.6858C14.1293 47.7105 14.1491 47.7319 14.1726 47.7485ZM19.6159 45.4565C18.9654 45.4924 18.3627 45.5306 17.8581 45.5713L17.8557 45.5761C18.1243 45.5761 18.4306 45.5572 18.8147 45.5335L18.8219 45.533C19.0754 45.5139 19.3409 45.4876 19.6159 45.4565ZM16.2342 43.284C17.5807 43.1094 20.3932 42.784 23.3014 42.5662L23.299 42.5591C25.4661 42.3739 27.6424 42.3188 29.8161 42.3939C30.4471 42.2178 31.034 41.9105 31.5381 41.492C30.3901 41.0254 29.3713 40.5923 28.4936 40.1784C27.0974 40.3694 25.5034 40.7154 24.1491 41.0093L24.1408 41.0111C23.9742 41.0464 23.8122 41.081 23.6544 41.1147C23.3209 41.186 23.0062 41.2532 22.7059 41.3149C22.6596 41.4818 22.5781 41.6369 22.4667 41.7695C22.3926 41.8532 22.3018 41.9204 22.2 41.9666C22.0982 42.0127 21.9878 42.0369 21.876 42.0375C21.6344 42.0375 21.522 42.0375 21.2374 41.5948C19.7929 41.8365 18.908 41.846 18.4297 41.468C18.3196 41.3801 18.2309 41.2683 18.1704 41.1411C18.1099 41.0138 18.0792 40.8744 18.0805 40.7335C18.0805 40.255 18.3245 40.1952 19.2261 39.9774L20.209 39.7382C20.1397 39.5922 20.0584 39.4367 19.9699 39.274C18.865 37.1949 16.0788 31.9623 14.8519 30.8545C14.816 31.7805 15.1747 34.008 15.4498 35.7043C15.9807 38.9941 16.3514 41.5661 16.2342 43.284ZM24.5401 45.8774C25.8327 45.8698 27.1388 45.8337 28.1133 45.7364C27.9483 45.6168 27.8048 45.5067 27.6804 45.4062C26.7135 45.51 25.5604 45.7023 24.5401 45.8774ZM29.5483 47.9998L29.5196 48.0213L29.5315 48.0141C30.2227 47.7844 31.519 48.1553 33.8652 49.1004C31.9232 48.0835 30.5289 47.2892 29.5148 46.6647C29.3809 46.7054 29.235 46.7413 29.0795 46.7748C29.2167 46.814 29.3445 46.8808 29.455 46.971C29.5423 47.0436 29.6124 47.1348 29.6604 47.2378C29.7084 47.3408 29.733 47.4531 29.7324 47.5667C29.7323 47.6476 29.716 47.7276 29.6843 47.802C29.6527 47.8764 29.6064 47.9436 29.5483 47.9998ZM40.9826 45.3153C39.3228 44.521 37.1536 43.6788 34.8553 42.7887L34.8672 42.7815C34.1099 42.4881 33.3876 42.2129 32.7004 41.9561C32.5961 42.1016 32.4784 42.237 32.3489 42.3605C32.2304 42.4705 32.1049 42.5727 31.9734 42.6667C32.3519 42.7318 32.7062 42.897 32.9994 43.1452C33.1219 43.2457 33.2208 43.372 33.289 43.5151C33.3572 43.6582 33.3931 43.8146 33.394 43.9731C33.395 44.0432 33.387 44.1132 33.3701 44.1812C33.8156 44.3647 34.2687 44.56 34.736 44.7614C34.9635 44.8595 35.1943 44.959 35.4293 45.0593L35.4445 45.0659C38.5594 46.4123 42.8085 48.249 43.5248 47.0236L43.5248 47.0232C43.521 47.0033 43.4238 46.4854 40.9826 45.3153ZM29.0251 38.8925L30.2132 38.6161C30.3064 38.6974 30.3973 38.7716 30.4906 38.8386C30.0014 38.8248 29.5119 38.8428 29.0251 38.8925ZM34.4057 37.6399L33.5231 37.8456L37.0364 38.6831C36.4792 38.4605 35.9148 38.2381 35.3623 38.0203L34.4057 37.6399ZM37.675 32.393C37.8313 32.8784 38.0834 33.3275 38.4164 33.7137L38.4331 33.7065C38.4403 33.4098 38.426 32.9911 38.3638 32.5174L38.2155 32.3068C38.0792 32.3403 37.9141 32.3667 37.7372 32.393H37.675ZM44.5437 34.5702L49.9511 40.6952L49.9678 40.688C48.607 38.3194 46.7416 35.2019 44.9766 32.271V32.4815C44.9801 32.5621 44.9673 32.6426 44.9388 32.7181C44.9103 32.7936 44.8668 32.8626 44.8109 32.9207C44.755 32.9789 44.6879 33.0251 44.6136 33.0565C44.5393 33.088 44.4593 33.104 44.3787 33.1036C43.9099 33.1036 43.6468 32.9672 42.3434 29.7109C41.6379 27.9595 40.8032 25.7105 40.069 23.7294L39.4926 22.1838C39.2391 22.2771 38.9712 22.3752 38.689 22.4733C38.7201 23.1576 38.7727 23.9041 38.8349 24.6577C39.1431 24.7077 39.434 24.8335 39.6815 25.0238C39.7692 25.1017 39.8397 25.197 39.8883 25.3038C39.9369 25.4105 39.9626 25.5262 39.9638 25.6435C39.9638 26.1053 39.6648 26.5048 39.0454 26.89C39.0842 27.2689 39.123 27.6336 39.1591 27.9738C39.1787 28.1578 39.1975 28.3346 39.2152 28.5026V28.5888L44.5437 34.5702ZM41.3823 23.9001C41.7432 24.87 42.1581 25.9848 42.573 27.0719L42.5897 27.0647C42.8951 26.9175 43.2396 26.8722 43.5727 26.9355C43.5688 26.7769 43.5636 26.617 43.5584 26.4564C43.5476 26.125 43.5368 25.7904 43.5368 25.4569C43.4818 22.8968 43.4794 21.1933 43.5057 20.0497C43.0202 20.5425 42.1353 21.088 40.5808 21.7388C40.6467 21.9173 40.7164 22.1049 40.7896 22.3022C40.9048 22.6126 41.0289 22.9471 41.162 23.3083C41.2327 23.4981 41.3063 23.6959 41.3823 23.9001Z" fill="#798277"/>
<path d="M24.5987 23.3448C24.9545 23.3457 25.3066 23.417 25.6347 23.5545C25.9629 23.692 26.2607 23.8931 26.511 24.1461C26.7612 24.3991 26.959 24.6991 27.093 25.0289C27.227 25.3586 27.2945 25.7116 27.2916 26.0675C27.2916 26.7858 27.0064 27.4748 26.4987 27.9827C25.9909 28.4906 25.3023 28.7759 24.5843 28.7759C23.8663 28.7759 23.1777 28.4906 22.67 27.9827C22.1623 27.4748 21.877 26.7858 21.877 26.0675C21.8748 25.7094 21.9437 25.3543 22.0797 25.023C22.2157 24.6916 22.4161 24.3906 22.6692 24.1373C22.9224 23.884 23.2233 23.6836 23.5545 23.5475C23.8857 23.4115 24.2407 23.3426 24.5987 23.3448ZM37.5875 26.0675C37.5875 26.7858 37.3023 27.4748 36.7945 27.9827C36.2868 28.4906 35.5982 28.7759 34.8802 28.7759C34.1622 28.7759 33.4736 28.4906 32.9659 27.9827C32.4581 27.4748 32.1729 26.7858 32.1729 26.0675C32.1729 25.3492 32.4581 24.6603 32.9659 24.1524C33.4736 23.6445 34.1622 23.3591 34.8802 23.3591C35.5982 23.3591 36.2868 23.6445 36.7945 24.1524C37.3023 24.6603 37.5875 25.3492 37.5875 26.0675Z" fill="#E9E8E0"/>
<path d="M17.8652 34.5952V31.2192C20.496 33.2266 25.7767 34.8081 30.4905 34.7842C35.2044 34.7603 40.4636 33.2266 43.0872 31.2192V34.588C39.5524 37.1983 35.434 38.5166 30.4905 38.5166C25.5471 38.5166 21.4 37.2007 17.8652 34.5952Z" fill="#E9E8E0"/>
</svg>
