<svg width="60" height="60" viewBox="0 0 60 60" fill="none" xmlns="http://www.w3.org/2000/svg">
<path d="M55.5692 25.3135C55.3629 24.8435 55.1565 24.3734 54.9521 23.9034C54.4066 23.0164 53.6751 22.3103 52.7536 21.7872C52.2652 21.5885 51.7769 21.3899 51.2885 21.1932C50.2015 20.912 49.1165 20.912 48.0294 21.1932C46.9506 21.6279 45.8697 22.0625 44.7908 22.4952C44.8317 22.4067 44.8725 22.3182 44.9134 22.2297C45.0993 21.8285 45.2853 21.4273 45.4712 21.0241L45.4957 20.973C45.9432 20.2964 46.1864 19.5648 46.2232 18.7801C46.405 17.9954 46.3682 17.2106 46.1128 16.4279C45.9228 15.6609 45.557 14.9922 45.0156 14.4218C44.5824 13.7787 44.0103 13.2733 43.2951 12.9016C42.8068 12.7029 42.3184 12.5043 41.8301 12.3076C40.743 12.0264 39.658 12.0264 38.571 12.3076C38.0826 12.5062 37.5943 12.7049 37.1059 12.9016C36.1844 13.4267 35.4509 14.1308 34.9074 15.0177C34.7786 15.2931 34.6519 15.5704 34.5232 15.8457C34.1758 16.597 33.8264 17.3483 33.4791 18.0976C33.3401 18.3985 33.1992 18.6994 33.0602 19.0023C32.5637 17.9226 32.0692 16.8409 31.5727 15.7612C31.1865 15.0728 30.6614 14.5221 29.9932 14.1052C29.4007 13.584 28.7059 13.232 27.909 13.0491C27.0938 12.8032 26.2785 12.7678 25.4653 12.9429C24.65 12.9783 23.8899 13.2123 23.187 13.643C22.7742 13.9498 22.3594 14.2586 21.9467 14.5654C21.1866 15.301 20.6614 16.1702 20.3693 17.1693C20.2957 17.6925 20.2242 18.2156 20.1506 18.7388C20.1547 19.8047 20.4326 20.796 20.9884 21.7164C21.064 21.8836 21.1416 22.0488 21.2172 22.2159C20.5245 21.9367 19.8319 21.6593 19.1412 21.3801C18.326 21.1342 17.5107 21.0988 16.6974 21.2739C15.8822 21.3093 15.1221 21.5433 14.4192 21.974C13.704 22.3457 13.1319 22.8512 12.6987 23.4943C12.1572 24.0646 11.7915 24.7333 11.6014 25.5003C11.5279 26.0235 11.4564 26.5466 11.3828 27.0698C11.3869 28.1357 11.6648 29.127 12.2206 30.0474C12.5393 30.4447 12.8601 30.8439 13.1789 31.2412C13.9431 31.9728 14.8462 32.4783 15.8842 32.7595C16.3705 32.9542 16.8568 33.1509 17.3411 33.3456C16.8691 33.5285 16.3971 33.7134 15.9251 33.8963C15.1282 34.0792 14.4335 34.4312 13.8409 34.9524C13.1727 35.3693 12.6476 35.92 12.2614 36.6084C11.8139 37.2849 11.5708 38.0165 11.534 38.8012C11.3522 39.586 11.3889 40.3707 11.6444 41.1534L12.2614 42.5636C12.807 43.4506 13.5385 44.1566 14.46 44.6798C14.9484 44.8784 15.4367 45.077 15.9251 45.2737C17.0121 45.555 18.0971 45.555 19.1841 45.2737C19.8768 45.0062 20.5675 44.7348 21.2581 44.4654C21.2234 44.5401 21.1886 44.6149 21.1539 44.6896C20.9679 45.0908 20.782 45.492 20.5961 45.8952C20.5879 45.9129 20.5797 45.9286 20.5715 45.9463C20.1241 46.6229 19.8809 47.3545 19.8441 48.1392C19.6623 48.9239 19.6991 49.7087 19.9545 50.4914C20.1445 51.2584 20.5102 51.9271 21.0517 52.4975C21.4849 53.1406 22.057 53.646 22.7722 54.0177C23.2605 54.2164 23.7489 54.415 24.2372 54.6117C25.3243 54.8929 26.4093 54.8929 27.4963 54.6117C27.9846 54.413 28.473 54.2144 28.9613 54.0177C29.8829 53.4926 30.6164 52.7885 31.1599 51.9015C31.2887 51.6262 31.4153 51.3489 31.5441 51.0736C31.8914 50.3223 32.2408 49.571 32.5882 48.8217C32.7271 48.5208 32.8681 48.2199 33.0071 47.917C33.5036 48.9967 33.9981 50.0784 34.4946 51.1581C34.8808 51.8465 35.4059 52.3972 36.0741 52.8141C36.6666 53.3353 37.3614 53.6873 38.1582 53.8702C38.9735 54.1161 39.7888 54.1515 40.602 53.9764C41.4173 53.941 42.1774 53.707 42.8803 53.2763C43.2931 52.9695 43.7079 52.6607 44.1206 52.3539C44.8807 51.6183 45.4058 50.7491 45.698 49.75C45.7716 49.2268 45.8431 48.7037 45.9167 48.1805C45.9126 47.1146 45.6347 46.1233 45.0789 45.2029C44.9481 44.9177 44.8174 44.6306 44.6846 44.3454C45.4733 44.6621 46.262 44.9807 47.0507 45.2973C47.866 45.5432 48.6813 45.5786 49.4945 45.4035C50.3098 45.3681 51.0699 45.1341 51.7728 44.7034C52.4879 44.3317 53.0601 43.8262 53.4932 43.1831C54.0347 42.6127 54.4005 41.9441 54.5905 41.177C54.664 40.6539 54.7356 40.1308 54.8091 39.6076C54.805 38.5416 54.5271 37.5504 53.9714 36.63C53.6526 36.2327 53.3318 35.8335 53.0131 35.4362C52.2489 34.7046 51.3457 34.1991 50.3077 33.9179C49.9113 33.7586 49.517 33.5993 49.1206 33.44C49.8419 33.1489 50.5652 32.8618 51.2865 32.5707C52.0834 32.3878 52.7781 32.0357 53.3706 31.5146C54.0388 31.0976 54.5639 30.5469 54.9501 29.8586C55.3976 29.182 55.6407 28.4504 55.6775 27.6657C55.8594 26.881 55.8226 26.0963 55.5672 25.3135H55.5692Z" fill="#C3C6BD"/>
<path d="M4.86849 17.4013C4.86849 17.4013 6.29676 16.5891 6.30493 16.6028C6.30493 16.6028 3.98374 18.603 4.00009 18.6305C4.01439 18.6541 7.21829 16.8408 7.21829 16.8408C7.23872 16.8742 4.49661 19.3346 4.51091 19.3543C4.51091 19.3543 7.93957 17.3954 7.96409 17.4367C7.9927 17.4859 4.89505 20.1134 4.90323 20.1272C4.92162 20.1567 8.5117 18.0975 8.52396 18.1152C8.52396 18.1152 5.55913 20.7841 5.5816 20.8195C5.58569 20.8254 8.88562 18.9826 8.88562 18.9826C8.89788 19.0042 6.99965 21.0633 7.01396 21.0889C7.01804 21.0968 7.96614 20.55 7.97022 20.5579" stroke="#798277" stroke-width="0.5" stroke-linecap="round" stroke-linejoin="round"/>
<path d="M4.32741 4.27151L4.52765 4.1594C4.53174 4.1653 4.28654 5.37877 4.29472 5.3945C4.31311 5.424 6.49127 4.1594 6.4974 4.1712C6.5117 4.19284 4.28859 6.33656 4.30493 6.36606C4.30493 6.36409 8.55092 3.9824 8.56113 4.0001C8.58565 4.03943 4.62573 7.02098 4.65638 7.07014C4.65638 7.07211 8.59587 4.80645 8.62856 4.86349C8.62856 4.86349 4.57669 7.7998 4.60939 7.8529C4.60939 7.8529 8.53866 5.65411 8.54479 5.66591C8.56522 5.69934 4.38871 8.74382 4.41732 8.79299C4.43162 8.81659 9.10261 6.17725 9.10874 6.18709C9.14143 6.24216 4.21707 9.68391 4.26202 9.76061C4.28654 9.80191 8.53457 7.31795 8.56522 7.36908C8.56522 7.36908 4.55422 10.2444 4.57874 10.2838C4.58895 10.2995 8.89419 7.8529 8.90849 7.87846C8.94732 7.94337 4.63186 11.1176 4.63186 11.1176C4.65638 11.1609 8.43036 9.00736 8.43036 9.00736C8.46305 9.06243 4.83824 11.9968 4.83824 11.9968C4.84641 12.0105 8.90849 9.65638 8.94323 9.71538C8.96366 9.74881 4.80759 12.7186 4.83619 12.7658C4.83619 12.7677 8.89419 10.5099 8.89419 10.5099C8.89419 10.5099 4.6053 13.6311 4.64412 13.698C4.66456 13.7314 8.79611 11.3301 8.82268 11.3753C8.82268 11.3753 4.96083 14.5181 4.96696 14.5299C4.98944 14.5692 8.25872 12.6379 8.28733 12.6851C8.29959 12.7048 4.61552 15.411 4.61552 15.411C4.63391 15.4425 8.88398 13.0391 8.88398 13.0391C8.88398 13.0391 5.32659 15.826 5.34906 15.8633C5.34906 15.8633 8.48144 14.0972 8.4937 14.1169C8.49983 14.1287 7.70703 15.4995 7.71725 15.5172C7.71725 15.5192 8.43241 15.1199 8.43241 15.1199" stroke="#798277" stroke-width="0.5" stroke-linecap="round" stroke-linejoin="round"/>
<mask id="mask0_1355_37414" style="mask-type:alpha" maskUnits="userSpaceOnUse" x="10" y="12" width="46" height="44">
<path d="M53.7891 30.0513C53.8729 30.2263 54.0548 30.3384 54.255 30.3384C54.5043 30.3384 54.7291 30.2381 54.8864 30.0552C55.34 29.532 55.1786 28.4661 54.8598 26.7727C54.772 26.3106 54.6575 25.7009 54.6514 25.4334C54.7229 25.3488 54.7658 25.2407 54.7658 25.1227C54.7658 24.8513 54.537 24.631 54.255 24.631C54.0793 24.631 53.9138 24.7057 53.8014 24.8355C53.5317 25.1463 53.6052 25.6222 53.8545 26.9478C53.9199 27.292 54.018 27.8171 54.0834 28.3009C53.7748 27.6499 53.3866 26.8357 52.9963 26.0195C52.5632 25.1128 52.1279 24.2062 51.7969 23.5277C51.6294 23.1854 51.4904 22.9003 51.3883 22.7016C51.1962 22.3221 51.0899 22.1136 50.7589 22.1136C50.4279 22.1136 50.1173 22.2473 49.9007 22.4971C49.1651 23.3487 49.4962 25.3744 50.1275 28.6057C50.34 29.6992 50.6363 31.2156 50.667 32.0593C49.5779 30.4446 46.8624 26.228 44.9825 23.2858C44.8885 23.1402 44.7251 23.0517 44.5473 23.0517C44.3961 23.0517 44.2551 23.1107 44.1488 23.2169C44.0712 23.2956 43.9915 23.3762 43.9302 23.742C43.1824 23.3251 41.0798 23.4392 36.4926 23.7991C35.8081 23.8522 35.05 23.9112 34.3083 23.9623C34.3553 23.9033 34.4002 23.8404 34.4411 23.7735C34.5106 23.6575 34.529 23.4982 34.4902 23.3684C34.435 23.1894 34.3267 23.0497 33.6667 22.6761C35.0337 22.3142 36.654 22.0133 38.0455 21.7556C42.173 20.9886 45.7365 20.3278 45.7365 18.5145C45.7365 18.3277 45.6527 18.1546 45.5015 18.0307C45.0193 17.6373 43.9036 17.775 40.5792 18.3041C38.0741 18.7013 34.4595 19.2776 32.9495 18.9334C34.2286 18.8469 36.4415 18.6797 38.636 18.4398C45.2992 17.714 45.857 17.006 45.857 16.3413C45.857 16.1977 45.7957 16.062 45.6854 15.9617C45.3891 15.6903 44.8967 15.6569 39.9233 15.887C38.4133 15.9578 36.4333 16.0502 35.001 16.0659C40.5628 13.8947 41.0328 13.2909 41.0328 12.7481C41.0328 12.6104 40.9674 12.4688 40.8612 12.3764C40.6507 12.1935 40.4525 12.2112 39.6188 12.2879C39.2592 12.3213 38.6238 12.3803 38.3561 12.3626C38.2703 12.2977 38.1599 12.2584 38.0414 12.2584C37.7594 12.2584 37.5306 12.4786 37.5306 12.75C37.5306 12.9054 37.598 13.049 37.7186 13.1552C37.9229 13.3342 38.2437 13.3735 38.8833 13.3361C37.9352 13.8081 36.2413 14.5476 33.2131 15.6982C32.5572 15.9479 32.3999 16.0069 32.3999 16.3452C32.3999 16.4986 32.4652 16.6422 32.5837 16.7504C32.9863 17.1201 34.2286 17.1417 39.9723 16.8743C41.1207 16.8212 42.4243 16.7602 43.4357 16.7326C41.0492 17.2656 36.1759 17.775 31.7787 18.0268C31.509 18.0425 31.2985 18.2569 31.2985 18.5184C31.2985 18.8921 31.4559 19.2186 31.7562 19.4644C32.9413 20.432 36.229 19.9974 40.7447 19.2795C42.1709 19.0534 43.8975 18.7721 44.6168 18.7879C43.9935 19.6532 40.4791 20.3042 37.8493 20.7939C35.7917 21.1755 33.8669 21.5334 32.3999 22.0113C31.6622 21.6357 30.6569 21.1401 29.2818 20.4635C26.3006 18.9983 21.4334 16.6087 20.4813 15.7552C21.4927 14.9213 25.7407 14.7659 28.6422 14.9351C28.8404 14.9469 29.0182 14.8525 29.1163 14.6892C29.245 14.4749 29.2593 14.2428 29.1592 14.0363C28.9569 13.6252 28.4072 13.5367 28.0068 13.4718C27.9781 13.4679 27.9495 13.462 27.925 13.4581C27.6819 13.3302 27.3774 13.4109 27.2364 13.6429C27.1915 13.7177 27.167 13.8062 27.167 13.8927C24.668 13.8435 20.3158 13.9773 19.4392 15.4386C19.3513 15.5841 19.3329 15.7552 19.384 15.9243C19.6231 16.7031 22.0648 18.0189 28.8179 21.3367C29.6046 21.7222 30.4281 22.1274 31.1698 22.4991C30.7121 22.7252 30.3443 22.9789 30.0848 23.2681C27.8882 22.619 25.1523 21.3938 23.3092 20.5677C19.5046 18.8626 18.3889 18.4063 17.9374 19.1556C17.7759 19.4251 17.7473 19.7378 17.8536 20.0544C18.1274 20.8628 19.3677 21.7851 21.3272 22.8472C21.2046 22.8806 21.0861 22.9298 20.9717 22.9927C20.7776 23.1009 20.6447 23.2779 20.5896 23.4923C20.2667 23.51 20.0501 23.6358 19.9112 23.8718C19.8376 23.9938 19.8233 24.1413 19.8703 24.275C19.9173 24.4087 20.0215 24.5169 20.1564 24.572C20.1686 24.5759 20.4588 24.6939 20.9553 24.8985C21.5622 26.0234 22.8576 27.6656 24.762 30.0159C24.5291 30.3187 24.4351 30.891 24.4412 31.8508C24.3901 31.9019 24.3452 31.959 24.3084 32.0219C24.0754 32.4094 24.0366 32.846 24.196 33.2845C24.2205 33.3534 24.2512 33.4222 24.2859 33.491C22.0281 30.0729 19.8662 25.9546 18.6137 23.5749C17.2876 21.0496 17.2386 20.9729 16.9341 20.8864C16.7992 20.849 16.6439 20.8647 16.5234 20.9316C16.0984 21.1676 15.8266 21.555 15.7388 22.0526C15.4221 23.8069 17.4592 27.3962 21.8012 32.7516C20.8348 31.8331 19.8438 30.8773 18.9529 30.0198C17.2365 28.3678 15.4609 26.6587 14.1246 25.4295C11.7482 23.2425 11.5091 23.2071 11.1086 23.4293C10.7776 23.6142 10.5753 23.8915 10.5243 24.2337C10.3669 25.2977 11.6849 26.6803 13.8487 28.8457C15.2668 30.2656 17.2079 32.2087 17.0955 32.9718C17.0955 32.9856 17.0914 32.9994 17.0853 33.0131C16.7604 32.7948 16.1454 32.2776 15.6305 31.8469C13.2419 29.8428 11.6052 28.5684 10.6121 29.121C10.4609 29.2056 10.3588 29.3432 10.322 29.5104C10.2321 29.9254 10.5406 30.419 11.5132 31.6954C11.6583 31.8862 11.8361 32.1183 11.9076 32.2284C11.9198 32.2717 11.9362 32.313 11.9607 32.3543C12.1017 32.5903 12.4143 32.669 12.6595 32.5352C12.7862 32.4644 12.8781 32.3405 12.9088 32.2048C12.966 31.9413 12.8577 31.7977 12.3367 31.1153C12.1569 30.8792 11.8258 30.4466 11.5909 30.0965C12.494 30.5213 14.1613 31.9196 14.9582 32.5903C16.5009 33.8864 16.9668 34.2777 17.4511 34.0083C17.8229 33.8018 18.0477 33.493 18.1049 33.1115C18.2745 31.957 16.8871 30.4741 14.5843 28.1652C13.3358 26.9143 11.6522 25.2289 11.5377 24.4973C12.5798 25.2761 15.6836 28.2635 18.2296 30.716C21.7604 34.1145 23.6995 35.9435 24.8233 36.8974C24.8335 36.9977 24.8437 37.1 24.8539 37.2042C24.1347 37.5464 23.6157 37.924 23.3215 38.341C21.0146 34.319 19.9541 33.0171 19.1123 33.0171C18.9038 33.0171 18.7118 33.1036 18.5728 33.259C18.1172 33.7743 18.2806 35.0507 18.8262 38.2997C19.1715 40.3549 19.6599 43.2715 19.4596 44.6541C19.3922 44.7407 19.3534 44.8488 19.3595 44.9649C19.3595 44.9924 19.3656 45.0199 19.3718 45.0455C19.3697 45.0534 19.3677 45.0632 19.3636 45.0691C19.0142 44.1349 18.3092 42.296 17.5124 40.4709C15.3996 35.6407 14.4637 34.974 13.767 34.974C13.3767 34.974 13.0518 35.1195 12.823 35.3968C12.1364 36.2307 12.5001 37.987 13.1785 40.7817C13.4094 41.7355 13.7547 43.1535 13.8119 43.9953C11.3886 38.7796 10.9942 38.7796 10.6469 38.7796C10.4895 38.7796 10.3383 38.8445 10.2321 38.9585C9.993 39.2142 10.0237 39.5977 10.1462 40.6676C10.1851 41.0059 10.2464 41.5428 10.2382 41.7768C10.1749 41.8594 10.136 41.9597 10.136 42.0718C10.136 42.3432 10.3649 42.5635 10.6469 42.5635C10.8083 42.5635 10.9615 42.4966 11.0698 42.3806C11.2782 42.1564 11.2946 41.8339 11.2108 41.0275C11.8054 42.1446 12.5982 43.7789 13.2991 45.311C13.3808 45.49 13.5647 45.6041 13.767 45.6041C14.0776 45.6041 14.3493 45.4802 14.5353 45.256C15.1074 44.5617 14.7702 43.0198 14.1736 40.5594C13.7833 38.9546 13.1949 36.5316 13.6239 36.0104C13.6423 35.9888 13.6628 35.9632 13.7506 35.9612C13.8712 36.0065 14.666 36.4647 16.6501 41.0393C17.731 43.5292 18.6219 45.9974 18.63 46.021C18.7016 46.2196 18.8957 46.3514 19.1123 46.3514C19.382 46.3514 19.6251 46.2708 19.8295 46.1154C19.8417 46.2963 19.8948 46.4635 19.995 46.6071C18.9917 46.7113 18.3052 46.9041 17.9476 47.2423C17.7555 47.4252 17.6533 47.6534 17.6533 47.8992C17.6533 48.2532 17.8025 48.564 18.0865 48.796C18.3603 49.0222 18.7588 49.1678 19.2676 49.2504C19.1756 49.447 19.1511 49.6299 19.1511 49.7735C19.1511 49.9525 19.2308 50.1177 19.3738 50.2376C19.8152 50.6074 20.8205 50.5071 23.8119 50.1039C25.6324 49.8581 29.3921 49.3507 29.9377 49.803C29.8682 50.6507 26.8012 53.0205 23.9569 54.7591C23.8098 54.8496 23.7199 55.005 23.7199 55.1741C23.7199 55.3432 23.7935 55.5006 23.9283 55.6127C24.0918 55.7484 24.3104 55.8015 24.6292 55.8015C24.9479 55.8015 25.3607 55.7504 25.9165 55.6756C26.2413 55.6324 26.7072 55.5694 26.9299 55.5675C27.0158 55.6284 27.12 55.6638 27.2344 55.6638C27.5164 55.6638 27.7452 55.4435 27.7452 55.1721C27.7452 55.0128 27.6737 54.8594 27.547 54.7552C27.2732 54.5251 26.8666 54.5566 25.9308 54.6805C27.972 53.3293 30.9614 51.1227 30.9614 49.7735C30.9614 49.5021 30.8449 49.2602 30.6263 49.0773C29.7783 48.3673 27.3222 48.6387 23.6709 49.1304C22.4674 49.2936 21.0227 49.4883 20.3301 49.4883H20.3342C20.3893 49.4333 20.4547 49.3841 20.5303 49.3369C22.118 49.3369 24.2941 49.032 26.8809 48.6348C27.5613 48.5305 28.3071 48.4165 28.9875 48.324C29.813 48.3299 30.6447 48.3516 31.462 48.387C31.5151 48.3889 31.5866 48.3909 31.6643 48.3752C31.5805 48.4342 31.5131 48.5069 31.4579 48.5974C31.3864 48.7174 31.37 48.859 31.4129 48.9907C31.4804 49.1973 31.5948 49.2484 31.8727 49.3743C36.9135 51.6576 39.5759 53.0973 40.6037 53.821C40.1194 53.701 39.4635 53.4749 38.9691 53.3038C37.1546 52.6744 35.4423 52.0785 34.8334 53.0914C34.7558 53.2212 34.7394 53.3785 34.7905 53.5221C34.8927 53.8072 35.1644 53.9115 35.7039 54.1219C35.8592 54.1829 36.0982 54.2753 36.231 54.3402C36.274 54.4248 36.3434 54.4976 36.4333 54.5487C36.6765 54.6844 36.9891 54.6038 37.1321 54.3678C37.2139 54.2301 37.2302 54.0649 37.1771 53.9154C37.1505 53.8426 37.1117 53.7777 37.0606 53.7207C37.549 53.8544 38.0925 54.0432 38.6238 54.2281C39.6577 54.5861 40.5138 54.885 41.1329 54.885C41.5273 54.885 41.8236 54.7631 42.0075 54.4602C42.1015 54.3048 42.1198 54.1199 42.0606 53.937C41.9809 53.6912 41.8031 53.1425 37.8923 51.1443C42.0912 52.8475 43.2212 53.1936 43.6564 52.4679C43.7279 52.3479 43.7443 52.2044 43.7014 52.0726C43.6585 51.9408 43.5583 51.8327 43.4296 51.7756C39.4881 50.0252 35.3606 48.0153 32.8555 46.5855C32.9761 46.4242 33.0394 46.2413 33.0394 46.0446C33.0394 45.9345 33.019 45.8283 32.9781 45.7319C33.2989 45.7083 33.5748 45.6867 33.8138 45.6611C34.7353 45.9994 35.7018 46.4025 36.5171 46.7408C40.191 48.269 43.6625 49.7125 44.723 47.9445C44.8763 47.6888 44.9028 47.4056 44.7986 47.1204C44.3613 45.9246 41.4762 44.7977 36.8032 43.0552C36.2086 42.833 35.5731 42.5969 34.9295 42.3511C34.9295 42.3236 34.9335 42.298 34.9335 42.2705C34.9335 41.826 34.7537 41.4523 34.4125 41.1888C34.3492 41.1396 34.2797 41.0983 34.2082 41.059C34.3083 41.0295 34.4043 40.9882 34.4983 40.937C34.5698 40.8977 34.6271 40.8426 34.67 40.7777L39.4227 41.8673C39.531 41.9951 39.6393 42.121 39.7394 42.2429C40.289 43.1476 40.7672 43.954 41.1493 44.6187C41.2167 44.7348 41.327 44.8193 41.4599 44.8547C41.5927 44.8901 41.7337 44.8724 41.8522 44.8075C42.0238 44.7112 42.1403 44.5519 42.175 44.3591C42.2506 43.9461 41.938 43.3699 41.0328 42.237L42.1893 42.5025C42.408 42.5537 42.6368 42.4593 42.7492 42.2705C42.8391 42.119 42.8554 41.944 42.7941 41.7768C42.6348 41.3383 41.9584 40.9705 39.5575 40.0284C38.7504 38.7363 37.7901 37.2416 36.748 35.6957C36.9871 35.6662 37.218 35.6367 37.4284 35.6112C37.5612 35.5954 37.6859 35.5797 37.8085 35.564C38.2948 36.8109 38.9037 37.6389 39.7843 37.6389C39.958 37.6389 40.1215 37.5681 40.2421 37.4402C40.3503 37.3242 40.4219 37.1609 40.4607 36.9013C40.8939 37.4815 41.3536 38.0932 41.844 38.7402C42.5673 39.698 43.3846 40.7797 44.1386 41.8142C45.5853 44.4653 46.5354 46.4497 46.562 46.5068C46.6212 46.6327 46.7336 46.729 46.8705 46.7703C46.9216 46.7861 46.9727 46.7939 47.0258 46.7939C47.1137 46.7939 47.2036 46.7723 47.2812 46.729C47.4774 46.6209 47.6122 46.4379 47.6613 46.2137C47.8288 45.4585 46.9931 44.0307 45.0459 41.352C43.9936 39.4246 42.6777 37.1432 41.2494 34.974C44.3797 38.3665 48.45 42.7779 51.1635 45.7201C51.3249 45.8951 51.5905 45.9364 51.801 45.8204C51.9277 45.7496 52.0176 45.6336 52.0544 45.4939C52.13 45.2029 52.2097 44.9019 47.8901 37.9555C46.8378 36.2641 45.7753 34.5845 44.9784 33.3278C44.9702 33.0741 44.96 32.8204 44.9519 32.5667C45.9531 33.3357 47.2056 34.616 48.1639 35.5935C50.6547 38.1384 52.8063 40.3352 54.2857 39.5131C54.4226 39.4384 54.5166 39.3086 54.5493 39.1591C54.6167 38.8386 54.4287 38.5848 53.7708 37.7529C53.5113 37.4245 53.0536 36.8463 52.9187 36.5768C52.9616 36.449 52.9514 36.3054 52.8758 36.1796C52.7348 35.9435 52.4222 35.8629 52.177 35.9986C52.0217 36.0851 51.9154 36.2268 51.8807 36.3998C51.7928 36.8227 52.1239 37.2947 52.9575 38.3488C53.0249 38.4334 53.0965 38.5258 53.17 38.6183C52.0952 38.1758 50.2297 36.27 48.9097 34.9209C47.4283 33.4084 46.0716 32.0239 44.9171 31.3513C44.8436 28.7316 44.8129 26.344 44.8599 24.9673C45.4484 25.8838 46.3107 27.229 47.1729 28.5625C49.3198 31.8849 50.5178 33.5461 50.7671 33.5461C51.0164 33.5461 51.2411 33.4438 51.4005 33.259C51.9318 32.6434 51.6764 31.1802 51.139 28.4307C50.8059 26.7216 50.3176 24.2239 50.5852 23.3507C51.188 24.5661 52.7307 27.8053 53.7973 30.0552L53.7891 30.0513ZM16.7482 22.2198C16.9934 22.6603 17.3428 23.3271 17.7065 24.0193C18.8344 26.167 19.9745 28.2812 21.1045 30.2361C16.9607 24.8237 16.6296 22.8727 16.7482 22.2198ZM12.0445 31.7623C12.0138 31.7918 11.9873 31.8252 11.9648 31.8626C11.9852 31.8272 12.0118 31.7938 12.0445 31.7623ZM43.1701 24.5189C42.978 24.7392 42.4447 25.1482 40.9633 25.7461C40.7427 25.1876 40.5792 24.7942 40.4525 24.5149C41.6438 24.454 42.6777 24.4363 43.1701 24.5189ZM36.9687 39.0333C36.8849 39.0018 36.7991 38.9684 36.7133 38.9369C36.6152 38.7776 36.4272 38.6792 36.2249 38.6969C36.1881 38.7009 36.1493 38.7029 36.1125 38.7068C36.0758 38.693 36.039 38.6792 36.0022 38.6655C36.0533 38.4983 36.0819 38.2859 36.088 38.0125C36.3823 38.3567 36.6765 38.6989 36.9687 39.0352V39.0333ZM26.1739 40.9469C26.1657 40.7187 26.1535 40.469 26.1371 40.1995C26.7072 40.2113 27.3999 40.2094 28.2356 40.1858C28.3173 40.2644 28.4072 40.3431 28.5053 40.4218C27.6962 40.6027 26.9054 40.7817 26.1739 40.9469ZM25.2912 25.0715C25.4588 25.042 25.6488 25.0558 25.8674 25.1148C26.5621 25.2997 27.3999 25.8759 28.3235 26.7236C27.9802 26.5564 27.6369 26.3873 27.2957 26.2201C26.5907 25.874 25.9532 25.5612 25.3688 25.282C25.3382 25.2053 25.3096 25.1345 25.2892 25.0735L25.2912 25.0715ZM32.1812 31.0779C32.1853 31.0995 32.1894 31.1212 32.1935 31.1448C32.1833 31.1251 32.173 31.1074 32.1608 31.0877C32.1608 31.0759 32.1608 31.0641 32.1608 31.0523C32.1669 31.0602 32.1751 31.07 32.1812 31.0779ZM33.5645 32.9187C33.6258 33.0033 33.6871 33.0898 33.7505 33.1744C33.7014 33.1626 33.6544 33.1508 33.6054 33.137C33.5911 33.0643 33.5788 32.9915 33.5645 32.9168V32.9187ZM33.9548 31.7387C33.683 31.3749 33.4113 31.015 33.1375 30.6609C33.1232 30.5921 33.1089 30.5233 33.0946 30.4584C33.538 30.6924 33.9405 30.9127 34.3083 31.1192C34.3267 31.2903 34.3451 31.4634 34.3655 31.6423C34.2286 31.6758 34.0897 31.7072 33.9548 31.7387ZM34.1571 28.8496C34.1571 28.8909 34.1571 28.9342 34.1591 28.9774C33.9466 28.9892 33.73 28.9991 33.5073 29.0128C33.7219 28.9597 33.9405 28.9047 34.1571 28.8496ZM35.8428 30.8497C36.1023 30.895 36.3393 30.9205 36.558 30.9245C36.5702 30.9756 36.5825 31.0287 36.5948 31.0799C36.5089 31.1035 36.4211 31.1271 36.3332 31.1507C36.1779 31.0543 36.0165 30.954 35.8428 30.8497ZM32.4019 28.2674C32.3386 28.1573 32.2711 28.0609 32.1996 27.9803C32.3099 27.9508 32.4223 27.9331 32.5408 27.9252C32.6941 27.9921 32.8473 28.057 32.9985 28.1239C32.7983 28.173 32.6001 28.2202 32.4039 28.2674H32.4019ZM31.2454 33.554C31.2638 34.0634 31.2781 34.555 31.2883 35.0271C31.2679 35.029 31.2454 35.033 31.225 35.0349C30.9082 34.5472 30.5977 34.0653 30.2932 33.5914C30.4832 33.5461 30.6753 33.5009 30.8653 33.4576C30.9941 33.491 31.1207 33.5225 31.2454 33.554ZM30.9246 36.5532C30.9512 36.5473 30.9777 36.5434 31.0063 36.5375C31.0411 36.5926 31.0778 36.6457 31.1126 36.7007C31.0676 36.6811 31.0227 36.6614 30.9777 36.6417C30.9614 36.6122 30.943 36.5827 30.9266 36.5532H30.9246ZM30.0766 35.1706C30.0215 35.0644 29.9642 34.9582 29.9091 34.85C29.9785 34.9563 30.046 35.0605 30.1134 35.1667C30.1011 35.1667 30.0889 35.1687 30.0766 35.1706ZM27.8106 35.1234C27.4469 34.9248 27.1097 34.7261 26.8053 34.5314C26.9647 34.4764 27.1404 34.4193 27.3325 34.3603C27.4898 34.6121 27.6492 34.8658 27.8106 35.1234ZM27.5143 36.2877C27.169 36.3782 26.84 36.4726 26.5315 36.569C26.4048 36.4175 26.2802 36.2602 26.1535 36.1009C26.5274 36.211 26.9831 36.272 27.5164 36.2897L27.5143 36.2877ZM28.9569 36.9525C29.3615 37.5956 29.7415 38.1994 30.0623 38.7107L28.3868 38.3272C28.3296 38.3134 28.2724 38.3115 28.2172 38.3174C27.9025 38.0538 27.5777 37.7411 27.2487 37.3891C27.7391 37.2475 28.3051 37.1019 28.9569 36.9544V36.9525ZM32.3774 39.0038C32.3467 38.9644 32.314 38.9212 32.2834 38.8779C32.2916 38.7677 32.2977 38.6478 32.3038 38.518C32.4121 38.6812 32.5163 38.8386 32.6144 38.988C32.5347 38.9939 32.455 38.9998 32.3753 39.0038H32.3774ZM32.3365 36.7381C32.3365 36.6024 32.3365 36.4588 32.3345 36.3113C32.6246 36.2641 32.9127 36.2189 33.1988 36.1756C33.3582 36.7833 33.5359 37.3301 33.7443 37.7864C33.4195 37.6585 33.0946 37.5268 32.7717 37.395C32.6267 37.1747 32.4816 36.9564 32.3386 36.7361L32.3365 36.7381ZM32.3079 34.8855C32.2997 34.5511 32.2895 34.1951 32.2752 33.8175C32.4244 33.8549 32.5694 33.8923 32.7104 33.9296C32.7656 34.2266 32.8228 34.5177 32.8821 34.8009C32.692 34.8284 32.5 34.8579 32.3079 34.8855ZM34.3819 34.3426C34.4636 34.3623 34.5433 34.382 34.623 34.3997C34.6516 34.439 34.6781 34.4783 34.7067 34.5196C34.6516 34.5275 34.5964 34.5373 34.5392 34.5452C34.4861 34.4783 34.435 34.4095 34.3819 34.3426ZM35.6385 33.6209C35.5895 33.2413 35.5343 32.8224 35.4812 32.3838C35.71 32.3268 35.9327 32.2717 36.1452 32.2166C36.4844 32.4369 36.7643 32.6336 36.9973 32.8066C37.0892 33.1901 37.1832 33.5638 37.2813 33.9218C36.8297 33.8647 36.2597 33.7546 35.6385 33.6189V33.6209ZM38.4909 30.5056L38.0782 30.0572C38.0843 29.9942 38.0782 29.9274 38.0618 29.8625C38.3561 29.8684 38.6258 29.8802 38.8628 29.8959C38.8771 30.0434 38.8914 30.1948 38.9078 30.3463C38.7811 30.3974 38.6421 30.4505 38.493 30.5036L38.4909 30.5056ZM35.4669 27.4926C35.3933 27.5122 35.3218 27.5319 35.2482 27.5496C35.2768 27.4316 35.3116 27.3392 35.3565 27.2743C35.4076 27.3175 35.4607 27.3883 35.5159 27.4768C35.4995 27.4808 35.4832 27.4847 35.4669 27.4906V27.4926ZM30.7448 27.7777C30.4138 27.41 30.0848 27.0619 29.7619 26.7373C30.046 26.8593 30.33 26.9812 30.6201 27.1051C30.8122 27.1877 31.0084 27.2703 31.2025 27.3549C31.0206 27.4749 30.8674 27.6165 30.7448 27.7797V27.7777ZM29.3737 28.6077C29.5474 28.6903 29.7129 28.769 29.8784 28.8476C28.8445 29.0758 28.0415 29.2429 27.6247 29.3295C27.1527 28.5526 26.7358 27.8485 26.3864 27.2349C27.3529 27.6676 28.3664 28.1298 29.3737 28.6077ZM28.2519 30.3522C28.632 30.3286 29.151 30.2912 29.8702 30.2401C30.0991 30.2243 30.3627 30.2047 30.6508 30.183C30.7775 30.5429 30.9471 30.9245 31.1534 31.3218C31.1698 31.6738 31.1861 32.0239 31.2004 32.37C31.0901 32.3956 30.9838 32.4192 30.8755 32.4448C30.3198 32.3051 29.8028 32.1792 29.3247 32.0691C28.9487 31.4752 28.5891 30.9009 28.2519 30.3541V30.3522ZM26.1514 32.4762C26.3517 32.7948 26.5662 33.137 26.791 33.4969C26.4232 33.6169 26.1187 33.733 25.8715 33.849C25.7509 33.7448 25.6427 33.6405 25.5487 33.5402C25.5221 33.1606 25.4996 32.7968 25.4833 32.4585C25.657 32.4428 25.8838 32.4507 26.1514 32.4762ZM26.0452 37.7765C26.1514 37.8237 26.2373 37.8473 26.3129 37.8513C26.7767 38.3587 27.2303 38.7953 27.6737 39.1513C27.6737 39.1729 27.6757 39.1926 27.6798 39.2142C27.0873 39.224 26.5437 39.226 26.0656 39.2162C26.0309 38.7894 25.99 38.3252 25.941 37.8139C25.9757 37.8001 26.0104 37.7883 26.0472 37.7746L26.0452 37.7765ZM33.73 38.8405C33.777 38.8582 33.822 38.8779 33.869 38.8956C33.8363 38.8976 33.8036 38.9015 33.7709 38.9035C33.7566 38.8818 33.7423 38.8622 33.73 38.8405ZM35.0705 38.0499C34.8947 37.8611 34.6536 37.4599 34.3839 36.6103C34.3246 36.4254 34.2695 36.2287 34.2164 36.0261C34.2797 36.0163 34.343 36.0084 34.4064 35.9986C34.5984 36.2366 34.7946 36.4746 34.9928 36.7145C35.048 37.2632 35.0807 37.7372 35.0705 38.0499ZM37.0994 28.8811C37.0238 28.6097 36.9503 28.3579 36.8747 28.1278C37.5306 27.9429 38.1313 27.7659 38.6769 27.5948C38.6994 28.0078 38.73 28.4523 38.7709 28.9263C38.3009 28.8929 37.741 28.8791 37.0994 28.883V28.8811ZM40.0112 26.1041C39.8988 26.1454 39.7823 26.1867 39.6617 26.228C39.6638 25.8877 39.6781 25.5888 39.7108 25.3488C39.8007 25.5671 39.9029 25.8248 40.0132 26.1041H40.0112ZM32.3304 23.0851C32.6961 23.274 33.0067 23.4392 33.2315 23.569C32.8146 23.7696 32.122 23.742 31.276 23.569C31.5519 23.3979 31.9115 23.2366 32.3304 23.0851ZM18.8609 19.8243C19.5843 19.9817 21.3926 20.792 22.8822 21.4587C25.1707 22.4833 27.6042 23.5729 29.668 24.1845C29.6639 24.2298 29.6598 24.277 29.6598 24.3242C29.6598 24.4933 29.7333 24.6526 29.8682 24.7706C30.3504 25.1994 31.7317 25.1561 36.5764 24.7785C37.2711 24.7234 38.0659 24.6625 38.8628 24.6074C38.7055 25.0617 38.6421 25.7205 38.6462 26.5643C38.021 26.7649 37.314 26.9773 36.5089 27.2035C36.1963 26.58 35.8326 26.2614 35.3402 26.2614C35.0664 26.2614 34.8212 26.3696 34.6332 26.5761C34.4677 26.757 34.3533 27.0245 34.2776 27.3628C34.0508 27.2507 33.8261 27.1582 33.6054 27.0914C33.3153 27.0028 33.0353 26.9537 32.7636 26.9419C32.2384 26.7157 31.6663 26.4699 31.037 26.2024C26.4498 24.2455 19.5577 21.3072 18.8609 19.8224V19.8243ZM24.4289 24.3812C24.3738 24.4304 24.3247 24.4835 24.29 24.5504C24.1858 24.4166 24.0836 24.2927 23.9794 24.1708C24.1265 24.2396 24.2777 24.3104 24.4289 24.3812ZM24.2879 26.3106C25.1114 27.6165 25.9778 29.2803 26.8196 30.9559C26.5131 30.5764 26.1964 30.183 25.8695 29.7818C24.7886 28.4504 23.4768 26.8317 22.59 25.5848C23.1008 25.8012 23.6729 26.0451 24.2879 26.3125V26.3106ZM25.4669 31.3827C25.4874 31.4162 25.5119 31.4535 25.5344 31.4889C25.5119 31.4889 25.4894 31.4909 25.4649 31.4929C25.4649 31.4555 25.4649 31.4181 25.4649 31.3827H25.4669ZM24.9561 38.2623C24.9847 38.5652 25.0113 38.87 25.0358 39.1709C24.6087 39.1375 24.2859 39.0903 24.0959 39.0234C24.1694 38.8484 24.3819 38.5809 24.9561 38.2623ZM25.1094 40.1523C25.1339 40.5181 25.1502 40.8643 25.1604 41.1711C25.0848 41.1888 25.0133 41.2045 24.9398 41.2202C24.8294 41.0216 24.715 40.8151 24.6006 40.6106C24.4984 40.4237 24.3962 40.2428 24.2982 40.0658C24.5148 40.0992 24.7804 40.1287 25.1094 40.1523ZM20.4016 45.4605C20.3566 45.4723 20.3178 45.4841 20.279 45.4979C20.2851 45.4841 20.2892 45.4703 20.2933 45.4566C20.328 45.4566 20.3628 45.4605 20.3995 45.4605H20.4016ZM20.2626 48.3575C19.5454 48.3457 19.0019 48.2552 18.7486 48.0487C18.6975 48.0074 18.6791 47.972 18.675 47.9307C19.1041 47.4803 22.165 47.4646 24.4432 47.4823C22.7677 47.6239 21.2291 47.8894 20.2626 48.3594V48.3575ZM21.8932 46.259C22.3264 46.2255 22.8392 46.1941 23.3971 46.1646C23.1621 46.1901 22.9353 46.2118 22.7187 46.2275C22.3897 46.2511 22.118 46.2609 21.8932 46.259ZM26.5458 43.7888C24.0611 43.9678 21.6582 44.2352 20.5078 44.3709C20.608 42.9608 20.2912 40.8466 19.8376 38.1423C19.6047 36.7479 19.2962 34.915 19.3268 34.1558C20.375 35.0664 22.7534 39.3676 23.6995 41.0767C23.7751 41.2124 23.8445 41.3383 23.9099 41.4582C23.581 41.533 23.2969 41.5979 23.0701 41.651C22.2998 41.8299 22.0914 41.8771 22.0914 42.2705C22.0914 42.5104 22.1976 42.7248 22.3897 42.8743C22.7922 43.187 23.5524 43.1791 24.7865 42.9805C25.0297 43.3423 25.1257 43.3443 25.3341 43.3443C25.5262 43.3443 25.704 43.2656 25.8388 43.124C25.9246 43.0336 25.99 42.9116 26.0431 42.7504C26.4212 42.6756 26.8257 42.591 27.2691 42.4986C28.4277 42.2567 29.7926 41.9735 30.9859 41.8162C31.7358 42.1564 32.6062 42.5124 33.587 42.8959L33.5829 42.8998C33.2601 43.1948 32.7493 43.4387 32.1117 43.6413C30.9042 43.5823 29.1408 43.6059 26.5437 43.7927L26.5458 43.7888ZM27.5777 46.5166C28.4583 46.3691 29.4575 46.2098 30.2973 46.1193C30.4035 46.2019 30.5261 46.2924 30.6651 46.3907C29.8192 46.4812 28.6913 46.5107 27.5777 46.5166ZM31.8706 48.2729C31.8706 48.2729 31.887 48.2611 31.8952 48.2532C31.9953 48.1608 32.0525 48.033 32.0525 47.8973C32.0525 47.7065 31.9687 47.5334 31.8155 47.4075C31.7317 47.3387 31.6275 47.2856 31.4947 47.2482C31.6275 47.2207 31.7521 47.1912 31.8686 47.1578C32.7329 47.6711 33.9262 48.324 35.5833 49.1599C33.5707 48.3889 32.4612 48.0841 31.8706 48.2729ZM36.4292 43.9717C38.3929 44.7033 40.2461 45.3956 41.6642 46.0485C43.7647 47.0181 43.8321 47.4429 43.8342 47.4508C43.2273 48.4597 39.5821 46.9434 36.9176 45.8361C36.3128 45.5844 35.7243 45.3405 35.1583 45.1143C35.1726 45.0632 35.1787 45.0062 35.1787 44.9432C35.1787 44.7623 35.1195 44.4988 34.8416 44.2628C34.7231 44.1625 34.529 43.9992 33.965 43.8615C34.0835 43.7809 34.1898 43.6983 34.2858 43.6098C34.4023 43.5036 34.5024 43.3935 34.5862 43.2774C35.1685 43.4997 35.7815 43.7298 36.4272 43.9697L36.4292 43.9717ZM31.4068 40.7777C31.7583 40.6991 32.1097 40.6204 32.4612 40.5417C32.5408 40.6086 32.6185 40.6676 32.6982 40.7246C32.3099 40.7128 31.8809 40.7325 31.4068 40.7777ZM35.2932 39.9084C35.5486 39.8514 35.7999 39.7944 36.0471 39.7393C36.3189 39.8435 36.5907 39.9478 36.8665 40.052C37.3365 40.231 37.8207 40.4139 38.2948 40.5968L35.2932 39.9084ZM39.4717 36.5119C39.2531 36.3153 39.0406 35.9239 38.8403 35.4263C38.8567 35.4243 38.8751 35.4224 38.8914 35.4184C39.0426 35.3968 39.1836 35.3752 39.3103 35.3476C39.3512 35.4047 39.3941 35.4637 39.437 35.5207C39.4656 35.9239 39.4799 36.2681 39.4717 36.5119ZM49.3286 42.2508C48.0189 40.8289 46.3556 39.0274 44.6924 37.2258C43.0659 35.4617 41.4394 33.6995 40.1419 32.2953C40.1399 32.2717 40.1358 32.2481 40.1338 32.2245C40.0888 31.8292 40.0398 31.3788 39.9887 30.8989C40.5179 30.5842 40.7733 30.2538 40.7733 29.8762C40.7733 29.6855 40.6875 29.5045 40.5342 29.3649C40.3912 29.237 40.1481 29.1387 39.8109 29.064C39.7578 28.4464 39.7128 27.8328 39.6863 27.2684C39.9274 27.1877 40.1562 27.1071 40.3728 27.0304C40.5342 27.4473 40.7018 27.882 40.8632 28.3009C41.4925 29.9313 42.2057 31.778 42.8084 33.2275C43.922 35.9022 44.1468 36.0163 44.5473 36.0163C44.6862 36.0163 44.819 35.9612 44.9151 35.8649C45.0111 35.7685 45.0622 35.6387 45.0561 35.505C45.054 35.4479 45.052 35.3909 45.0479 35.3319C46.5702 37.7431 48.1639 40.3057 49.3266 42.2528L49.3286 42.2508ZM43.025 31.0504C42.5959 29.9687 42.1668 28.8555 41.8195 27.9567C41.6315 27.4709 41.468 27.0461 41.3209 26.6685C42.6491 26.1336 43.4051 25.6773 43.8219 25.278C43.7974 26.2201 43.8015 27.6204 43.8485 29.7228C43.8567 30.1319 43.8669 30.539 43.8791 30.9402C43.5726 30.891 43.2886 30.9225 43.025 31.0504Z" fill="#9EA399"/>
</mask>
<g mask="url(#mask0_1355_37414)">
<path d="M55.5692 25.3134C55.3628 24.8434 55.1565 24.3733 54.9521 23.9033C54.4066 23.0163 53.6751 22.3103 52.7535 21.7871C52.2652 21.5885 51.7768 21.3898 51.2885 21.1932C50.2015 20.9119 49.1165 20.9119 48.0294 21.1932C46.9506 21.6278 45.8697 22.0625 44.7908 22.4951C44.8317 22.4066 44.8725 22.3181 44.9134 22.2296C45.0993 21.8284 45.2853 21.4272 45.4712 21.024L45.4957 20.9729C45.9432 20.2963 46.1864 19.5647 46.2231 18.78C46.405 17.9953 46.3682 17.2106 46.1128 16.4278C45.9228 15.6608 45.557 14.9921 45.0156 14.4218C44.5824 13.7786 44.0103 13.2732 43.2951 12.9015C42.8068 12.7028 42.3184 12.5042 41.8301 12.3075C40.743 12.0263 39.658 12.0263 38.571 12.3075C38.0826 12.5062 37.5943 12.7048 37.1059 12.9015C36.1844 13.4266 35.4509 14.1307 34.9073 15.0177C34.7786 15.293 34.6519 15.5703 34.5232 15.8457C34.1758 16.5969 33.8264 17.3482 33.4791 18.0975C33.3401 18.3985 33.1991 18.6994 33.0602 19.0022C32.5637 17.9225 32.0692 16.8408 31.5727 15.7611C31.1865 15.0727 30.6614 14.5221 29.9932 14.1051C29.4006 13.5839 28.7059 13.2319 27.909 13.049C27.0938 12.8031 26.2785 12.7677 25.4652 12.9428C24.65 12.9782 23.8899 13.2122 23.187 13.6429C22.7742 13.9497 22.3594 14.2585 21.9467 14.5653C21.1866 15.3009 20.6614 16.1702 20.3693 17.1693C20.2957 17.6924 20.2242 18.2156 20.1506 18.7387C20.1547 19.8047 20.4326 20.7959 20.9884 21.7163C21.064 21.8835 21.1416 22.0487 21.2172 22.2159C20.5245 21.9366 19.8319 21.6593 19.1412 21.38C18.326 21.1342 17.5107 21.0988 16.6974 21.2738C15.8822 21.3092 15.1221 21.5432 14.4192 21.9739C13.704 22.3457 13.1319 22.8511 12.6987 23.4942C12.1572 24.0646 11.7915 24.7333 11.6014 25.5003C11.5279 26.0234 11.4564 26.5466 11.3828 27.0697C11.3869 28.1357 11.6648 29.1269 12.2206 30.0473C12.5393 30.4446 12.8601 30.8438 13.1789 31.2411C13.9431 31.9727 14.8462 32.4782 15.8842 32.7594C16.3705 32.9541 16.8568 33.1508 17.3411 33.3455C16.8691 33.5284 16.3971 33.7133 15.9251 33.8962C15.1282 34.0791 14.4335 34.4311 13.8409 34.9523C13.1727 35.3693 12.6476 35.9199 12.2614 36.6083C11.8139 37.2848 11.5708 38.0165 11.534 38.8012C11.3522 39.5859 11.3889 40.3706 11.6444 41.1534L12.2614 42.5635C12.807 43.4505 13.5385 44.1566 14.46 44.6797C14.9484 44.8783 15.4367 45.077 15.9251 45.2736C17.0121 45.5549 18.0971 45.5549 19.1841 45.2736C19.8768 45.0062 20.5675 44.7348 21.2581 44.4653C21.2234 44.5401 21.1886 44.6148 21.1539 44.6895C20.9679 45.0907 20.782 45.492 20.5961 45.8951C20.5879 45.9128 20.5797 45.9286 20.5715 45.9463C20.1241 46.6228 19.8809 47.3544 19.8441 48.1392C19.6623 48.9239 19.699 49.7086 19.9545 50.4913C20.1445 51.2584 20.5102 51.9271 21.0517 52.4974C21.4849 53.1405 22.057 53.646 22.7722 54.0177C23.2605 54.2163 23.7489 54.4149 24.2372 54.6116C25.3243 54.8929 26.4093 54.8929 27.4963 54.6116C27.9846 54.413 28.473 54.2143 28.9613 54.0177C29.8829 53.4926 30.6164 52.7885 31.1599 51.9015C31.2887 51.6261 31.4153 51.3488 31.5441 51.0735C31.8914 50.3222 32.2408 49.5709 32.5882 48.8216C32.7271 48.5207 32.8681 48.2198 33.0071 47.9169C33.5036 48.9966 33.9981 50.0783 34.4946 51.1581C34.8808 51.8464 35.4059 52.3971 36.0741 52.814C36.6666 53.3352 37.3613 53.6873 38.1582 53.8702C38.9735 54.116 39.7888 54.1514 40.602 53.9764C41.4173 53.941 42.1774 53.7069 42.8803 53.2762C43.2931 52.9694 43.7078 52.6606 44.1206 52.3538C44.8807 51.6183 45.4058 50.749 45.698 49.7499C45.7716 49.2267 45.8431 48.7036 45.9167 48.1805C45.9126 47.1145 45.6347 46.1233 45.0789 45.2028C44.9481 44.9177 44.8174 44.6305 44.6845 44.3454C45.4733 44.662 46.262 44.9806 47.0507 45.2972C47.866 45.5431 48.6812 45.5785 49.4945 45.4035C50.3098 45.368 51.0699 45.134 51.7728 44.7033C52.4879 44.3316 53.06 43.8261 53.4932 43.183C54.0347 42.6127 54.4004 41.944 54.5905 41.177C54.664 40.6538 54.7355 40.1307 54.8091 39.6075C54.805 38.5416 54.5271 37.5503 53.9714 36.6299C53.6526 36.2326 53.3318 35.8334 53.013 35.4361C52.2488 34.7045 51.3457 34.1991 50.3077 33.9178C49.9113 33.7585 49.517 33.5992 49.1206 33.4399C49.8418 33.1488 50.5652 32.8617 51.2864 32.5706C52.0833 32.3877 52.7781 32.0357 53.3706 31.5145C54.0388 31.0975 54.5639 30.5469 54.9501 29.8585C55.3976 29.182 55.6407 28.4503 55.6775 27.6656C55.8594 26.8809 55.8226 26.0962 55.5672 25.3134H55.5692Z" fill="#798277"/>
</g>
<path d="M26.9522 25.4315C28.2232 25.4197 29.253 26.4345 29.253 27.6696C29.253 28.9047 28.2232 29.8959 26.9522 29.9077C25.6588 29.8959 24.627 28.8457 24.627 27.6696C24.627 26.4935 25.6568 25.4197 26.9522 25.4315ZM38.0494 27.6696C38.0494 28.8457 37.0196 29.8959 35.7486 29.9077C34.4552 29.8959 33.4234 28.8457 33.4234 27.6696C33.4234 26.4935 34.4532 25.4197 35.7486 25.4315C37.0196 25.4197 38.0494 26.4345 38.0494 27.6696Z" fill="#E9E8E0"/>
<path d="M33.0503 32.0613C38.2362 32.0515 41.2255 34.2719 41.2255 37.9418C41.2255 41.6117 38.2362 43.8223 33.0503 43.8223C27.8644 43.8223 24.875 41.6235 24.875 37.9418C24.875 34.2601 27.8419 32.0515 33.0503 32.0613ZM27.2718 37.9418C27.282 39.8554 29.2272 41.0512 33.0503 41.0512C36.8406 41.0413 38.841 39.8554 38.8512 37.9418C38.841 36.0282 36.8406 34.8442 33.0503 34.8324C29.2272 34.8324 27.282 36.0164 27.2718 37.9418Z" fill="#E9E8E0"/>
</svg>
