<svg width="57" height="12" viewBox="0 0 57 12" fill="none" xmlns="http://www.w3.org/2000/svg">
<path fill-rule="evenodd" clip-rule="evenodd" d="M30.5309 2.9994C21.3701 2.93713 12.2294 4.1429 3.37134 6.59452C2.99575 6.67669 2.60297 6.61153 2.27405 6.41245C1.94514 6.21337 1.70526 5.89562 1.60389 5.52475C1.50251 5.15389 1.54735 4.75824 1.72925 4.41953C1.91116 4.08081 2.21626 3.82488 2.58142 3.70456C14.7092 0.336874 27.3571 -0.748218 39.8814 0.50455C40.891 0.605515 41.367 1.49997 41.3047 2.28758C45.8244 2.12232 50.3533 2.12405 54.8821 2.2938C56.8021 2.3738 56.8121 5.3738 54.8821 5.29379C36.9879 4.61093 19.0917 6.59604 1.78214 11.1838V11.1938C1.41081 11.2618 1.02748 11.1883 0.707675 10.9877C0.38787 10.7871 0.154746 10.474 0.0543545 10.1101C-0.0460366 9.74616 -0.00640832 9.35783 0.165316 9.02164C0.337041 8.68545 0.628399 8.42577 0.982089 8.29379C10.6838 5.7214 20.5668 3.95288 30.5309 2.9994Z" fill="#9EA399"/>
</svg>
