<svg width="34" height="34" viewBox="0 0 34 34" fill="none" xmlns="http://www.w3.org/2000/svg">
<circle opacity="0.4" cx="17" cy="17" r="16.5" fill="#F7F7F2" stroke="#121212"/>
<g clip-path="url(#clip0_880_9646)">
<path d="M28.3078 12.6367C28.2027 12.385 28.0975 12.134 27.9924 11.8837C27.7183 11.4156 27.3289 11.0256 26.8613 10.751L26.1075 10.4355C25.5587 10.2851 24.9796 10.2851 24.4308 10.4355L22.7645 11.1317L22.8276 10.9897C22.9233 10.7794 23.02 10.5596 23.1157 10.345L23.1272 10.3177C23.3541 9.96676 23.4833 9.56159 23.5015 9.14402C23.576 8.53101 23.474 7.90944 23.2073 7.35252C22.9406 6.7956 22.5203 6.32653 21.996 6.00054L21.2423 5.68504C20.6918 5.5337 20.1108 5.5337 19.5603 5.68504L18.8076 6.00054C18.3397 6.27516 17.9499 6.6651 17.6754 7.1332L17.4788 7.57492C17.2987 7.97666 17.1196 8.3784 16.9416 8.78014C16.8715 8.9414 16.8015 9.1023 16.7314 9.26286C16.4756 8.68584 16.2205 8.10811 15.9661 7.52969C15.6603 6.98621 15.1947 6.55011 14.6325 6.28066C14.0703 6.01121 13.4388 5.92148 12.8238 6.02367C12.4067 6.04143 12.0019 6.17072 11.6517 6.39807L11.0125 6.89131C10.6266 7.27716 10.3473 7.75657 10.202 8.2827C10.1642 8.56315 10.1267 8.84359 10.0895 9.12404C10.0884 9.68365 10.2368 10.2334 10.5195 10.7163C10.5594 10.8057 10.5983 10.894 10.6372 10.9834L9.56915 10.5364C9.16132 10.4046 8.72549 10.3854 8.30764 10.4807C7.89017 10.4985 7.48509 10.6278 7.13445 10.8551C6.44824 11.2968 5.9363 11.9628 5.68581 12.7397L5.57227 13.5811C5.57184 14.1407 5.72064 14.6904 6.00329 15.1733C6.16729 15.3837 6.33233 15.594 6.49633 15.8117C6.88219 16.1983 7.36179 16.4781 7.88819 16.6236L8.63775 16.9391L7.91026 17.2336C7.1328 17.4836 6.46646 17.9963 6.02536 18.6838C5.7981 19.0342 5.66886 19.4392 5.65111 19.8565C5.55597 20.2745 5.57522 20.7105 5.70683 21.1185L6.02221 21.8715C6.29578 22.3397 6.68536 22.7294 7.15336 23.0031L7.90713 23.3186C8.4576 23.47 9.03867 23.47 9.58914 23.3186L10.6562 22.8864L10.6025 23.0073L10.3155 23.651L10.3029 23.6783C10.0761 24.0293 9.94697 24.4344 9.92869 24.852C9.83426 25.2701 9.85384 25.706 9.98544 26.114C10.2363 26.891 10.7481 27.5572 11.4341 27.9997L12.1878 28.3152C12.7383 28.4665 13.3194 28.4665 13.8699 28.3152L14.6236 27.9997C15.0907 27.7248 15.48 27.3353 15.7547 26.8681C15.821 26.7198 15.8861 26.5725 15.9524 26.4253C16.1311 26.0236 16.3102 25.6222 16.4896 25.2211C16.5597 25.0592 16.6315 24.8979 16.7051 24.7373L17.4694 26.4705C17.7754 27.0138 18.241 27.4497 18.8031 27.7193C19.3652 27.9889 19.9965 28.0791 20.6116 27.9776C21.0289 27.9593 21.4339 27.8301 21.7848 27.6032L22.4229 27.1099C22.809 26.7238 23.0882 26.244 23.2334 25.7175L23.3469 24.8762C23.3469 24.3166 23.1982 23.767 22.9159 23.2839C22.8486 23.1314 22.7813 22.9779 22.713 22.8254L23.9304 23.3344C24.3383 23.4657 24.774 23.4849 25.1919 23.3901C25.6093 23.372 26.0143 23.2428 26.3651 23.0157C27.0517 22.5738 27.5641 21.9074 27.8148 21.1301C27.8516 20.8503 27.8894 20.5716 27.9273 20.2887C27.9278 19.729 27.779 19.1794 27.4962 18.6965L27.0032 18.057C26.6172 17.6708 26.1376 17.3914 25.6113 17.2462L25.0005 16.9906L26.1149 16.5258C26.8919 16.275 27.558 15.7625 27.9998 15.0755C28.2266 14.7249 28.3558 14.3201 28.374 13.9029C28.466 13.4825 28.4431 13.0451 28.3078 12.6367Z" fill="#C3C6BD"/>
<path fill-rule="evenodd" clip-rule="evenodd" d="M28.1722 12.3121C28.2174 12.42 28.2625 12.528 28.3077 12.6362C28.443 13.0447 28.4659 13.482 28.374 13.9024C28.3562 14.3079 28.2337 14.7016 28.0186 15.0453C27.4706 13.8495 26.7226 12.2144 26.4639 11.571C26.3294 12.038 26.5775 13.3736 26.7499 14.2875C26.8956 15.0645 27.0009 15.6494 27.0275 16.0768C26.7485 16.2682 26.4414 16.4199 26.1148 16.5253L26.0817 16.5391C25.8357 16.1687 25.4287 15.514 24.7094 14.3569C24.2837 13.6716 23.8579 12.9825 23.5567 12.4949L23.5194 12.4345C23.4962 13.1706 23.511 14.4474 23.5488 15.8482C24.1438 16.2079 24.8419 16.9483 25.603 17.757C26.2821 18.4785 27.2419 19.4976 27.7949 19.7342L27.6897 19.5901C27.2608 19.0264 27.0905 18.7751 27.1357 18.5489C27.1447 18.5051 27.163 18.4636 27.1893 18.4274C27.205 18.4056 27.2235 18.386 27.2441 18.3691L27.4961 18.696C27.7789 19.1789 27.9277 19.7286 27.9272 20.2882C27.9262 20.2953 27.9253 20.3025 27.9243 20.3096C27.2008 20.2288 26.2685 19.2394 25.2193 18.1251C25.1967 18.1012 25.1737 18.077 25.1506 18.0526C24.6649 17.5396 24.0583 16.899 23.5667 16.5066C23.5682 16.5543 23.5703 16.6022 23.5725 16.6502C23.5764 16.7375 23.5804 16.825 23.5804 16.9125C23.9914 17.5845 24.538 18.4827 25.0784 19.3871C26.0844 21.0696 26.6269 22.0232 26.9157 22.5775C26.7481 22.7404 26.5639 22.8873 26.365 23.0153C26.3505 23.0246 26.3359 23.0338 26.3212 23.0429L21.6629 17.7928C22.3977 18.9538 23.0747 20.1727 23.6161 21.2034C24.3708 22.2824 24.8004 22.9819 24.93 23.4339C24.6606 23.4642 24.3879 23.4485 24.1236 23.3873C23.9057 22.9355 23.5675 22.2501 23.1483 21.4516C22.7614 20.8984 22.3409 20.32 21.9677 19.8078C21.7168 19.4629 21.48 19.1351 21.2571 18.8245C21.2493 18.9297 21.2101 19.0301 21.1446 19.1126C21.115 19.1458 21.0787 19.1723 21.0381 19.1904C20.9975 19.2085 20.9536 19.2179 20.9091 19.2178C20.456 19.2178 20.1427 18.774 19.8925 18.1072L19.6981 18.1325L19.3469 18.1777C19.8831 19.0001 20.3719 19.7994 20.7924 20.4914C22.0276 20.9941 22.3756 21.1908 22.4576 21.4253C22.4731 21.4683 22.4791 21.5142 22.4751 21.5598C22.4711 21.6054 22.4573 21.6496 22.4345 21.6893C22.406 21.7383 22.3625 21.7768 22.3105 21.7991C22.2584 21.8215 22.2005 21.8265 22.1454 21.8134L21.5514 21.6724C22.0171 22.2814 22.1769 22.5864 22.138 22.8072C22.13 22.857 22.1108 22.9044 22.0821 22.9459C22.0534 22.9874 22.0157 23.0219 21.9719 23.047C21.9418 23.0643 21.9085 23.0754 21.8741 23.0797C21.8396 23.0841 21.8046 23.0815 21.7711 23.0722C21.7374 23.0631 21.7058 23.0471 21.6784 23.0255C21.6509 23.0038 21.6281 22.9768 21.6114 22.946C21.4116 22.5906 21.1688 22.1594 20.886 21.6756L20.722 21.4747L18.2778 20.8921C18.2549 20.9266 18.2248 20.9556 18.1895 20.9773C18.1422 21.0042 18.0921 21.0261 18.0402 21.0425C18.0768 21.0632 18.112 21.0864 18.1454 21.1119C18.2315 21.1814 18.3005 21.2699 18.347 21.3704C18.3934 21.4708 18.4162 21.5807 18.4134 21.6914V21.7345C18.7467 21.866 19.0715 21.9922 19.3774 22.111C21.2784 22.8477 22.6043 23.3787 23.1873 23.8848C23.2922 24.2021 23.3465 24.5355 23.3468 24.8725C22.7039 25.5814 21.0147 24.852 19.2322 24.0822L19.2313 24.0819C18.8119 23.8999 18.3146 23.6854 17.8405 23.5045C17.7175 23.5182 17.5756 23.5297 17.4105 23.5423C17.4317 23.5955 17.4424 23.6523 17.4421 23.7096C17.4422 23.8136 17.409 23.9149 17.3474 23.9988C18.6247 24.7564 20.7205 25.8188 22.7327 26.7488C22.639 26.8762 22.5354 26.9968 22.4228 27.1095L22.1916 27.2881C21.7499 27.184 21.0549 26.9071 19.9388 26.4366C21.0194 27.0132 21.546 27.3633 21.8084 27.5844L21.7847 27.6027C21.63 27.7028 21.4647 27.7838 21.2925 27.8447C20.7536 27.4617 19.4597 26.7373 17.0921 25.6147L16.705 24.7369C16.6704 24.8124 16.6361 24.8881 16.6023 24.964C16.1904 24.9447 15.7678 24.9306 15.3564 24.9306C15.0084 24.98 14.6226 25.041 14.2725 25.0967C12.9416 25.3092 11.8221 25.4722 11.0052 25.4722C10.9674 25.495 10.9322 25.5218 10.9001 25.5521C11.2533 25.5521 11.9997 25.448 12.6199 25.3607C14.4933 25.0967 15.7579 24.9527 16.1942 25.3323C16.2485 25.3779 16.2921 25.4349 16.3219 25.4992C16.3296 25.5159 16.3364 25.5329 16.3421 25.5503C16.212 25.8416 16.082 26.1331 15.9523 26.4248C15.9225 26.491 15.893 26.5572 15.8634 26.6235C15.3229 27.2221 14.4512 27.8721 13.7784 28.3338C13.7917 28.332 13.8048 28.3303 13.8177 28.3285C13.4561 28.4214 13.0822 28.4494 12.7132 28.4125C12.728 28.3969 12.7447 28.3832 12.7629 28.3717C14.2263 27.442 15.8042 26.1747 15.84 25.7214C15.5572 25.4795 13.6229 25.7509 12.6862 25.8823C11.1461 26.0979 10.6299 26.1516 10.4029 25.9539C10.3669 25.9233 10.3381 25.8852 10.3183 25.8424C10.2985 25.7995 10.2883 25.7529 10.2883 25.7057C10.2885 25.6096 10.309 25.5146 10.3482 25.427C10.18 25.4072 10.0182 25.3534 9.8723 25.2695C9.8787 25.1293 9.89745 24.9895 9.92861 24.8515C9.93939 24.6052 9.98875 24.3632 10.074 24.1341C10.249 24.0794 10.4652 24.0401 10.7214 24.0124C10.6698 23.9341 10.6404 23.8432 10.6362 23.7495C10.5311 23.8322 10.401 23.8767 10.2672 23.8757C10.2422 23.8756 10.2175 23.872 10.1938 23.865C10.2271 23.8011 10.2635 23.7387 10.3028 23.6778L10.3155 23.6505L10.6025 23.0068L10.6561 22.8859L10.4394 22.9737C10.4395 22.9736 10.4396 22.9735 10.4396 22.9734C10.5416 22.234 10.2904 20.6744 10.1127 19.5754C9.83308 17.838 9.74896 17.1544 9.98339 16.8799C10.017 16.8392 10.0592 16.8064 10.107 16.784C10.1549 16.7617 10.2071 16.7502 10.2599 16.7506C10.693 16.7506 11.2397 17.4457 12.4255 19.5964C12.5769 19.3735 12.8439 19.1715 13.2139 18.9886L13.1981 18.8245C12.6199 18.3144 11.6223 17.3363 9.80573 15.519C8.49587 14.2086 6.89901 12.6143 6.36287 12.1936C6.4216 12.5839 7.28399 13.482 7.92585 14.1504L7.93031 14.155C9.11192 15.3886 9.82993 16.1827 9.74267 16.8C9.72797 16.9005 9.68984 16.9962 9.63141 17.0793C9.57298 17.1625 9.49586 17.2307 9.40625 17.2785C9.21852 17.3871 9.03616 17.295 8.61812 16.9465L8.63766 16.9386L8.5794 16.9141C8.45102 16.806 8.30124 16.6753 8.12375 16.5203L8.12372 16.5202L8.10644 16.5052C7.68906 16.1421 6.84845 15.4108 6.39125 15.1878C6.49741 15.3521 6.64167 15.5506 6.73719 15.682C6.75045 15.7002 6.76277 15.7171 6.77392 15.7325L6.77435 15.7331C7.01211 16.0568 7.08257 16.1527 7.07475 16.2688C6.86555 16.14 6.67125 15.9866 6.49624 15.8112C6.3542 15.6227 6.21138 15.4396 6.06913 15.2574C6.04714 15.2292 6.02516 15.201 6.0032 15.1729C5.92282 15.0355 5.85327 14.8928 5.79489 14.7459C5.81979 14.7129 5.85095 14.685 5.88664 14.664C6.39755 14.3695 7.24067 15.05 8.46854 16.1227L8.48029 16.1329C8.74276 16.3611 9.05236 16.6303 9.21704 16.7464C9.21742 16.7387 9.21742 16.7309 9.21704 16.7232C9.27486 16.3131 8.27615 15.273 7.54658 14.5147C6.60287 13.5323 5.9719 12.8521 5.85088 12.3205C5.97729 12.0517 6.13679 11.8006 6.32507 11.5729C6.50794 11.6062 6.82214 11.8574 7.68851 12.6869C8.37586 13.344 9.28909 14.2576 10.1719 15.1408L10.1726 15.1415C10.631 15.6 11.1419 16.1111 11.6381 16.6023C9.40417 13.7396 8.35605 11.8192 8.519 10.8811C8.53703 10.7574 8.5827 10.6394 8.65258 10.5358C8.67994 10.4953 8.71075 10.4573 8.74457 10.4224C8.95194 10.4143 9.1598 10.4334 9.36283 10.4794C9.47368 10.662 9.65071 11.0101 9.99707 11.6962L9.99806 11.6981C10.6416 12.971 11.7543 15.1719 12.9154 16.9988C12.8978 16.9651 12.8821 16.9301 12.8681 16.8936C12.8275 16.7837 12.8117 16.6662 12.8217 16.5496C12.8317 16.4329 12.8673 16.3198 12.9259 16.2184C12.9454 16.1853 12.9687 16.1546 12.9953 16.1269C12.991 15.6137 13.0405 15.3077 13.1593 15.1468C12.1805 13.8921 11.5161 13.0139 11.2008 12.4124C11.1544 12.3923 11.1115 12.3738 11.0724 12.3568C10.8958 12.2804 10.7949 12.2367 10.7897 12.2367C10.7554 12.2223 10.7245 12.2007 10.6991 12.1735C10.6737 12.1462 10.6544 12.1138 10.6425 12.0785C10.6306 12.0432 10.6263 12.0058 10.6299 11.9687C10.6335 11.9316 10.645 11.8957 10.6636 11.8634C10.6983 11.8012 10.7492 11.7496 10.8108 11.7138C10.8724 11.6781 10.9424 11.6597 11.0136 11.6604C11.0266 11.6049 11.0507 11.5526 11.0845 11.5066C11.1183 11.4607 11.1611 11.4222 11.2102 11.3933C11.2676 11.3596 11.3291 11.3334 11.3931 11.3155C11.0774 11.1381 10.798 10.9679 10.5588 10.8044C10.5458 10.775 10.5326 10.7454 10.5194 10.7158C10.354 10.4333 10.2346 10.1279 10.1642 9.81106C10.7532 10.6214 14.0203 12.0736 16.2785 13.0774L16.3677 13.117L17.256 13.5124C17.4033 13.5203 17.5489 13.5475 17.6891 13.5934C17.8085 13.6322 17.9246 13.6807 18.036 13.7385C18.0605 13.5851 18.1234 13.4404 18.2189 13.3179C18.2635 13.2648 18.3192 13.2221 18.382 13.1928C18.4449 13.1636 18.5134 13.1485 18.5827 13.1486C18.836 13.1486 19.0231 13.32 19.184 13.6534C19.5982 13.5324 19.9619 13.4167 20.2836 13.3116C20.2671 12.9574 20.3046 12.6027 20.395 12.2599C20.0707 12.2832 19.7469 12.3091 19.4489 12.333C19.3702 12.3393 19.2933 12.3454 19.2187 12.3514C16.7262 12.5617 16.0155 12.5806 15.7674 12.3514C15.7339 12.3214 15.7072 12.2846 15.689 12.2434C15.6709 12.2022 15.6618 12.1576 15.6623 12.1126V12.038C14.6024 11.7118 13.3553 11.1314 12.1807 10.5848L12.1711 10.5803C11.433 10.236 10.5419 9.82137 10.1446 9.71606C10.1099 9.53354 10.0914 9.34764 10.0896 9.16049C10.4836 9.20682 11.1688 9.51714 12.4118 10.0955C13.359 10.5372 14.7666 11.1924 15.8967 11.5395C16.0553 11.3685 16.2447 11.229 16.4549 11.1283C16.2494 11.0203 16.031 10.9094 15.8098 10.797C15.6215 10.7013 15.4311 10.6045 15.2449 10.5078C11.9898 8.84557 10.6817 8.12678 10.4284 7.69673C10.5729 7.41129 10.7606 7.14847 10.9856 6.91794C11.8554 6.54452 13.4072 6.50693 14.3955 6.52714C14.395 6.48019 14.4074 6.43399 14.4313 6.39358C14.4654 6.33409 14.5216 6.2904 14.5877 6.27191C14.5937 6.27024 14.5997 6.26878 14.6057 6.26754C14.6146 6.27171 14.6235 6.27592 14.6324 6.28018C14.9335 6.42449 15.2069 6.61662 15.4429 6.84744C15.4336 6.88426 15.4186 6.91955 15.3984 6.95202C15.3743 6.99462 15.3385 7.0295 15.2954 7.05258C15.2522 7.07567 15.2034 7.08601 15.1545 7.08243C13.6618 6.99619 11.4814 7.07507 10.9558 7.52204C11.4457 7.97847 13.9498 9.25626 15.4836 10.0387C16.1921 10.4005 16.7083 10.6666 17.0878 10.8664C17.8426 10.6108 18.8339 10.4194 19.8915 10.2154C21.2455 9.95458 23.0579 9.60542 23.3733 9.14267C23.0211 9.13567 22.2017 9.27055 21.4891 9.38784C21.4528 9.39381 21.4168 9.39974 21.3811 9.4056C19.0568 9.78946 17.3653 10.0219 16.7556 9.50446C16.6813 9.44297 16.6217 9.36563 16.5811 9.2781C16.5405 9.19057 16.5201 9.09507 16.5212 8.99859C16.5213 8.95225 16.5336 8.90715 16.5564 8.86763C16.6147 8.99925 16.673 9.13083 16.7313 9.26238C16.8014 9.10182 16.8715 8.94092 16.9415 8.77966C16.9497 8.76131 16.9578 8.74296 16.9659 8.72461C19.1692 8.58617 21.5672 8.32041 22.7604 8.04472C22.2502 8.05799 21.6033 8.0891 21.0255 8.11688L20.9732 8.11939C18.29 8.25122 17.5184 8.25288 17.2419 8.10391C17.3207 7.92742 17.3996 7.75093 17.4787 7.57443L17.5192 7.48353C19.0644 6.87496 19.9304 6.48187 20.4161 6.22951C20.087 6.25055 19.922 6.22952 19.8168 6.13381C19.7864 6.10651 19.7621 6.07311 19.7454 6.03578C19.7288 5.99846 19.7202 5.95805 19.7201 5.91717C19.7201 5.84744 19.7478 5.78056 19.7971 5.73125C19.8464 5.68195 19.9133 5.65425 19.983 5.65425C20.0419 5.65439 20.0992 5.67398 20.1459 5.70998C20.3627 5.7098 20.5793 5.6968 20.7945 5.67107C20.9145 5.65963 21.0092 5.65064 21.0856 5.64575C21.1381 5.65734 21.1903 5.67027 21.2422 5.68455L21.4886 5.78768C21.4923 5.79454 21.4958 5.80157 21.4989 5.80874C21.5139 5.84293 21.5218 5.87983 21.522 5.91717C21.522 6.20743 21.2802 6.53451 18.4187 7.69136C19.1546 7.68294 20.1743 7.63456 20.9512 7.5967C22.1729 7.53745 22.8691 7.51056 23.2796 7.51456C23.3919 7.78633 23.4663 8.07126 23.5015 8.36136C23.0196 8.55759 22.0857 8.75839 20.2889 8.96179C19.1598 9.08904 18.0213 9.17844 17.3632 9.22576C18.1129 9.40868 19.8756 9.12026 21.1554 8.91083C21.2001 8.90353 21.2441 8.89632 21.2876 8.88923C22.5252 8.68465 23.168 8.58951 23.5229 8.63206C23.5292 8.80216 23.5221 8.97318 23.5014 9.14354C23.4917 9.36624 23.4504 9.58542 23.3796 9.79473C22.678 10.2135 21.398 10.4608 19.9903 10.7327L19.984 10.7339C19.2681 10.8716 18.4345 11.0326 17.7312 11.2261C18.0676 11.4259 18.1233 11.5016 18.1517 11.5973C18.1715 11.6697 18.1624 11.747 18.1264 11.8129C18.1065 11.8495 18.084 11.8846 18.0591 11.9181C18.4116 11.8932 18.7624 11.8648 19.0875 11.8384C19.1192 11.8359 19.1507 11.8333 19.1819 11.8308C21.542 11.6394 22.6237 11.5784 23.0085 11.8003C23.041 11.6048 23.082 11.5616 23.122 11.5195L23.122 11.5195C23.1483 11.4917 23.1798 11.4695 23.2149 11.4544C23.25 11.4392 23.2878 11.4313 23.326 11.4311C23.3709 11.431 23.4151 11.4425 23.4543 11.4644C23.4935 11.4863 23.5264 11.518 23.5499 11.5563C24.517 13.1296 25.9141 15.3844 26.4745 16.2479C26.4587 15.7967 26.3073 14.9858 26.1969 14.4011C25.8711 12.6721 25.7028 11.59 26.0813 11.1346C26.1338 11.0683 26.2008 11.0148 26.2772 10.9784C26.3535 10.9419 26.4372 10.9234 26.5218 10.9242C26.6912 10.9242 26.7455 11.0353 26.8422 11.2329L26.8456 11.2397C26.8981 11.347 26.9707 11.4995 27.0558 11.6825C27.2261 12.0453 27.45 12.5302 27.6729 13.015C27.8737 13.4514 28.0734 13.8868 28.2322 14.2349C28.2026 14.0078 28.1593 13.7636 28.1271 13.5821C28.1227 13.5569 28.1184 13.5329 28.1144 13.5103C27.9809 12.8015 27.9473 12.548 28.0861 12.3808C28.1104 12.3529 28.1396 12.3296 28.1722 12.3121ZM6.007 21.8349L5.70674 21.118C5.69406 21.0787 5.68242 21.0391 5.67183 20.9993C5.66577 20.9412 5.65964 20.8855 5.65432 20.8374C5.59335 20.2663 5.57654 20.0613 5.69849 19.9245C5.72498 19.8948 5.75732 19.8709 5.7935 19.8542C5.82968 19.8376 5.86892 19.8286 5.90874 19.8278C6.08746 19.8278 6.29035 19.8278 7.53714 22.6169C7.50811 22.1729 7.33489 21.4293 7.21618 20.9196L7.21124 20.8984C6.86222 19.404 6.6751 18.4648 7.02832 18.0189C7.08619 17.9461 7.1602 17.8878 7.2445 17.8485C7.3288 17.8093 7.42105 17.7902 7.51399 17.7928C7.87247 17.7928 8.3529 18.1546 9.4399 20.7375C9.8066 21.6073 10.1348 22.4845 10.329 23.0184L9.84626 23.2139C9.66266 22.7083 9.35099 21.8739 9.00048 21.0341C7.97866 18.5879 7.56972 18.3428 7.5077 18.3197C7.46355 18.3207 7.45197 18.3344 7.44356 18.346C7.2228 18.6247 7.52555 19.9214 7.72634 20.7785C8.03331 22.0931 8.20677 22.9187 7.91242 23.2899C7.90629 23.2976 7.89994 23.3051 7.89338 23.3124L7.15327 23.0026C7.14529 22.998 7.13734 22.9933 7.12941 22.9885C6.80844 22.2719 6.46698 21.5462 6.20202 21.0288C6.24407 21.4611 6.23462 21.6325 6.12949 21.7534C6.10205 21.784 6.06852 21.8085 6.03104 21.8254C6.02316 21.8289 6.01514 21.8321 6.007 21.8349ZM19.5842 27.9706C19.3152 27.9227 19.0523 27.8384 18.803 27.7188C18.6533 27.647 18.5105 27.5634 18.3757 27.4692C18.6964 26.9507 19.5668 27.2645 20.4893 27.597L20.4939 27.5987L20.5074 27.6035C20.7365 27.6856 21.027 27.7897 21.2615 27.8555C21.0525 27.9262 20.8338 27.9674 20.6115 27.9771C20.4489 28.0039 20.2852 28.0174 20.122 28.0176C19.911 27.9424 19.7047 27.8702 19.512 27.8153C19.5382 27.8464 19.5586 27.8821 19.5719 27.9205C19.5775 27.9368 19.5816 27.9536 19.5842 27.9706ZM9.44649 11.8164C9.28397 11.4956 9.13145 11.1945 9.02045 10.9863H9.01624C8.95526 11.3312 9.12558 12.3829 11.2617 15.274C10.6804 14.2276 10.0938 13.0981 9.51348 11.9486C9.49102 11.9043 9.46866 11.8601 9.44649 11.8164ZM21.4757 12.872C22.2368 12.5522 22.5123 12.3335 22.6111 12.2157C22.3556 12.1726 21.8248 12.1799 21.2129 12.2125C21.2781 12.3619 21.3622 12.5733 21.4757 12.872ZM19.4179 19.9765C19.2674 19.7965 19.1169 19.6144 18.9664 19.4303C18.9669 19.5481 18.9521 19.6654 18.9222 19.7794L18.979 19.8026L19.0368 19.7962C19.0865 19.7918 19.1365 19.8015 19.1809 19.8242C19.2254 19.8469 19.2625 19.8817 19.2881 19.9245L19.4179 19.9765ZM13.8519 20.6691C13.859 20.7869 13.8657 20.8972 13.8657 20.9994L15.0662 20.7186C15.0158 20.6765 14.9695 20.6344 14.9275 20.5934C14.8895 20.594 14.8521 20.5945 14.8152 20.5951C14.4343 20.6007 14.1153 20.6055 13.8478 20.5997C13.8492 20.6231 13.8506 20.6462 13.8519 20.6691ZM13.7091 12.5333C13.6131 12.5039 13.5118 12.4964 13.4126 12.5112H13.4115C13.4221 12.5428 13.4357 12.5817 13.4546 12.6227C13.7542 12.772 14.0823 12.9393 14.4449 13.1244L14.9706 13.3936C14.4975 12.9414 14.0665 12.6385 13.7091 12.5333ZM16.9637 15.7588L16.9574 15.7231H16.9564C16.9533 15.7187 16.9505 15.7141 16.948 15.7094C16.9475 15.7157 16.9475 15.722 16.948 15.7283L16.9637 15.7588ZM17.6702 16.709C17.6704 16.7366 17.6763 16.7642 17.6824 16.7923C17.6847 16.8032 17.6871 16.8142 17.6891 16.8252L17.7637 16.8442L17.6702 16.709ZM17.4494 15.5001C17.5896 15.6887 17.7298 15.8808 17.8699 16.0764L18.0865 16.0281C18.076 15.9324 18.0665 15.8398 18.0581 15.7483C18.0195 15.7265 17.9806 15.7045 17.9411 15.6821C17.7804 15.5911 17.6113 15.4954 17.4273 15.3949L17.4494 15.5001ZM17.975 14.5999V14.5315L17.6386 14.6188L17.975 14.5999ZM19.2113 15.641C19.0875 15.637 18.9641 15.6237 18.8423 15.6011L18.8402 15.6021C18.8947 15.6347 18.9454 15.6669 18.9948 15.6982C19.0285 15.7196 19.0615 15.7405 19.0946 15.7609L19.2292 15.7241C19.2261 15.7105 19.2232 15.6965 19.2203 15.6826C19.2174 15.6686 19.2145 15.6547 19.2113 15.641ZM16.968 14.0656C17.0077 14.1134 17.0429 14.1648 17.0731 14.2192L17.379 14.1413L17.1435 14.0362C17.0842 14.0401 17.0253 14.0499 16.968 14.0656ZM16.5002 17.8338C16.4952 17.5814 16.4879 17.3188 16.4781 17.0461L16.2825 16.9904L15.9882 17.0619C16.1445 17.3157 16.3043 17.573 16.4676 17.8338H16.5002ZM16.354 18.6425L16.312 18.6499L16.3393 18.6972L16.4087 18.7288C16.4037 18.7209 16.3988 18.713 16.3938 18.705C16.3808 18.6842 16.3677 18.6631 16.354 18.6425ZM15.7895 17.7423L15.8757 17.9137L15.8946 17.9116L15.7895 17.7423ZM14.1937 17.573C14.3503 17.6781 14.5227 17.7833 14.7099 17.8885L14.7078 17.8864C14.6577 17.8052 14.6105 17.7261 14.5641 17.6484C14.5305 17.5922 14.4974 17.5366 14.4639 17.4815C14.3661 17.513 14.2757 17.5435 14.1937 17.573ZM14.0518 18.6604C14.2116 18.6089 14.3797 18.5595 14.5574 18.51L14.5553 18.5079C14.3195 18.5049 14.0849 18.472 13.8573 18.4101C13.9225 18.4953 13.9876 18.5794 14.0518 18.6604ZM15.6573 19.4546C15.5461 19.2698 15.4266 19.0714 15.3007 18.8655L15.2985 18.8634C14.9621 18.9423 14.672 19.0201 14.4208 19.099C14.577 19.2744 14.7438 19.4401 14.9201 19.5954C14.949 19.5907 14.9785 19.5907 15.0073 19.5954L15.8694 19.8057C15.8028 19.696 15.7319 19.5784 15.6573 19.4546ZM17.0121 19.8961L17.0605 19.9624L17.1835 19.954C17.1424 19.8939 17.1036 19.8314 17.0637 19.767C17.0505 19.7458 17.0372 19.7243 17.0237 19.7026C17.0223 19.726 17.0205 19.7488 17.0188 19.771C17.0153 19.8148 17.0121 19.8564 17.0121 19.8961ZM17.0394 18.5237V18.7498C17.112 18.8666 17.1855 18.9843 17.2633 19.1032L17.7648 19.3135C17.6481 19.0341 17.5543 18.7457 17.4841 18.4511L17.0394 18.5237ZM17.0198 17.5916C17.0215 17.6492 17.0231 17.7057 17.0247 17.7612L17.3201 17.716C17.2968 17.6009 17.2747 17.4815 17.2524 17.361C17.2456 17.3241 17.2387 17.2871 17.2318 17.2501L17.0079 17.1902C17.0122 17.3301 17.0161 17.4636 17.0198 17.5916ZM18.2158 17.5025L18.0917 17.472L18.1727 17.5793L18.2589 17.5656L18.2158 17.5025ZM18.737 17.0833C18.7322 17.0449 18.7273 17.0057 18.7223 16.9658C18.7011 16.7956 18.6783 16.6132 18.6563 16.4246L18.9979 16.3351C19.1724 16.4529 19.3133 16.5581 19.4363 16.6507C19.4847 16.861 19.533 17.0556 19.5835 17.247C19.3527 17.2144 19.0569 17.1557 18.737 17.0833ZM20.206 15.4158C20.2304 15.4067 20.2543 15.3978 20.2779 15.389C20.3273 15.3705 20.3754 15.3525 20.4245 15.335C20.4171 15.253 20.4098 15.173 20.4014 15.0931C20.2805 15.0847 20.1417 15.0752 19.9903 15.0752C19.9984 15.1097 20.0013 15.1451 19.9987 15.1804L20.206 15.4158ZM18.5974 13.6923C18.5699 13.7375 18.551 13.7874 18.5417 13.8395L18.6531 13.808L18.6784 13.7974C18.6569 13.7584 18.6296 13.7229 18.5974 13.6923ZM16.2213 13.9566C16.0511 13.7613 15.884 13.5765 15.718 13.4041L16.1606 13.5997L16.4602 13.7333C16.3682 13.7933 16.2874 13.8688 16.2213 13.9566ZM15.7779 14.5336L15.5183 14.4043L15.512 14.4022C14.9937 14.1476 14.4723 13.8994 13.9845 13.6702C14.1642 13.9983 14.3787 14.3759 14.6215 14.7902C14.6686 14.7799 14.7258 14.7674 14.7922 14.753C15.0229 14.7028 15.3649 14.6283 15.7779 14.5336ZM15.5042 15.2973C15.2688 15.3149 15.0855 15.3286 14.9411 15.3371L14.9369 15.335C15.1093 15.6284 15.2944 15.9355 15.493 16.2552C15.7397 16.3141 16.006 16.3811 16.292 16.4561L16.4591 16.4161C16.456 16.3478 16.453 16.2791 16.45 16.2099C16.445 16.0928 16.4399 15.9746 16.4339 15.8556C16.3339 15.6589 16.2478 15.4554 16.1764 15.2467L15.7748 15.2772C15.6776 15.2843 15.5876 15.291 15.5042 15.2973ZM14.1895 17.0187L13.8604 16.4729L13.8541 16.4708C13.7424 16.4583 13.6299 16.4558 13.5177 16.4635C13.5251 16.6444 13.5367 16.84 13.5514 17.0419C13.6032 17.1 13.6583 17.1552 13.7164 17.207C13.87 17.1345 14.028 17.0716 14.1895 17.0187ZM13.9435 19.3524C13.8959 19.3472 13.8497 19.3337 13.8068 19.3125L13.749 19.3324C13.7732 19.6048 13.7953 19.8541 13.8131 20.0812C13.9745 20.0854 14.1502 20.0841 14.3381 20.0827C14.4367 20.082 14.5387 20.0812 14.6436 20.0812V20.0476C14.3929 19.834 14.1589 19.6016 13.9435 19.3524ZM17.831 19.9098L17.7596 19.8804L17.7816 19.9098H17.831ZM18.4429 19.4522C18.445 19.2155 18.4337 18.9789 18.4092 18.7435C18.3701 18.6943 18.3321 18.6452 18.2941 18.5963C18.2331 18.5176 18.1723 18.4391 18.1075 18.3607L18.0097 18.3744C18.0164 18.399 18.0231 18.4241 18.0298 18.4492C18.0516 18.5312 18.0737 18.6142 18.097 18.6899C18.2356 19.1336 18.3542 19.3446 18.4429 19.4522ZM19.4922 14.5494C19.4543 14.4064 19.416 14.2742 19.3774 14.1529C19.7159 14.054 20.024 13.9594 20.3057 13.8679C20.3162 14.0888 20.333 14.3264 20.3541 14.5799C20.107 14.5548 19.8204 14.5474 19.4922 14.5494ZM20.8113 13.138L20.9911 13.0718L20.9848 13.0644C20.9601 12.9983 20.9359 12.9344 20.913 12.8742C20.8843 12.7986 20.8578 12.7289 20.8355 12.6679C20.8187 12.824 20.8106 12.981 20.8113 13.138ZM17.2485 11.5727C17.1839 11.5374 17.1139 11.499 17.0394 11.4574L17.0331 11.4501C16.8458 11.5198 16.6662 11.6086 16.497 11.7151C16.9322 11.8077 17.2928 11.8203 17.503 11.7151C17.4331 11.6738 17.3471 11.6267 17.2485 11.5727ZM12.8943 12.2336C12.9122 12.1989 12.9369 12.1681 12.9669 12.1431L12.7356 12.0306C12.7892 12.0948 12.8418 12.1621 12.8943 12.2336ZM14.1968 15.6579C13.7637 14.7629 13.3148 13.8721 12.8943 13.1738H12.8954C12.6471 13.0619 12.4135 12.9578 12.1973 12.8613C12.1371 12.8345 12.0782 12.8082 12.0207 12.7826C12.4759 13.4493 13.1519 14.3159 13.708 15.0269C13.8762 15.2435 14.0391 15.4538 14.1968 15.6579ZM13.5239 15.9246C13.5162 15.9118 13.5086 15.899 13.5009 15.8871V15.9439H13.5356C13.5317 15.9375 13.5278 15.9311 13.5239 15.9246ZM13.2407 19.5867L13.2392 19.568L13.2402 19.5659C12.9395 19.7374 12.8344 19.8793 12.7955 19.975C12.9533 20.0206 13.116 20.0471 13.2801 20.0539C13.267 19.9002 13.2539 19.7435 13.2407 19.5867ZM13.3432 21.1235C13.339 20.9594 13.3296 20.7743 13.318 20.5787L13.319 20.5766C13.1498 20.564 13.0131 20.5482 12.9006 20.5324L13.0562 20.8248L13.2297 21.1508L13.3432 21.1235ZM10.8328 23.4382C10.8517 23.4309 10.8728 23.4246 10.8948 23.4183L10.8402 23.4151C10.8373 23.4226 10.8348 23.4304 10.8328 23.4382ZM10.0454 24.8012C10.1747 24.9116 10.4554 24.96 10.8244 24.9663L10.8254 24.9632C11.3227 24.7129 12.1143 24.5709 12.9753 24.4983C11.8031 24.4878 10.2284 24.4973 10.0076 24.7381C10.0092 24.7507 10.0134 24.7628 10.0199 24.7736C10.0264 24.7845 10.0351 24.7939 10.0454 24.8012ZM12.4381 23.7937C12.1521 23.8095 11.8872 23.8263 11.6654 23.8442L11.6644 23.8463C11.7824 23.8463 11.917 23.838 12.0858 23.8275L12.0891 23.8273C12.2005 23.8189 12.3172 23.8074 12.4381 23.7937ZM10.9516 22.8388C11.5435 22.762 12.7797 22.619 14.0581 22.5233L14.057 22.5201C15.0096 22.4387 15.9662 22.4145 16.9217 22.4475C17.1991 22.3701 17.457 22.235 17.6786 22.0511C17.174 21.846 16.7262 21.6556 16.3404 21.4737C15.7266 21.5576 15.026 21.7097 14.4307 21.8389L14.4271 21.8397C14.3538 21.8552 14.2826 21.8704 14.2133 21.8852C14.0667 21.9165 13.9283 21.9461 13.7963 21.9732C13.776 22.0466 13.7401 22.1147 13.6912 22.173C13.6586 22.2099 13.6187 22.2394 13.5739 22.2597C13.5292 22.28 13.4806 22.2906 13.4315 22.2908C13.3253 22.2908 13.2759 22.2908 13.1508 22.0963C12.5159 22.2025 12.1269 22.2067 11.9167 22.0405C11.8683 22.0019 11.8293 21.9528 11.8027 21.8968C11.7761 21.8409 11.7626 21.7796 11.7632 21.7177C11.7632 21.5073 11.8704 21.481 12.2667 21.3853L12.6988 21.2802C12.6683 21.216 12.6326 21.1477 12.5937 21.0761C12.108 20.1622 10.8833 17.8622 10.344 17.3753C10.3282 17.7823 10.4859 18.7614 10.6068 19.507C10.8402 20.9531 11.0031 22.0837 10.9516 22.8388ZM14.6026 23.9787C15.1707 23.9754 15.7448 23.9595 16.1732 23.9167C16.1007 23.8642 16.0376 23.8158 15.9829 23.7716C15.5579 23.8172 15.0511 23.9017 14.6026 23.9787ZM16.804 24.9116L16.7913 24.9211L16.7966 24.9179C17.1004 24.817 17.6702 24.98 18.7015 25.3954C17.8479 24.9484 17.235 24.5993 16.7892 24.3248C16.7304 24.3427 16.6662 24.3585 16.5979 24.3732C16.6582 24.3904 16.7144 24.4198 16.763 24.4594C16.8013 24.4914 16.8322 24.5314 16.8532 24.5767C16.8743 24.622 16.8851 24.6713 16.8849 24.7213C16.8849 24.7568 16.8777 24.792 16.8638 24.8247C16.8498 24.8574 16.8295 24.887 16.804 24.9116ZM21.83 23.7316C21.1004 23.3825 20.1469 23.0123 19.1367 22.6211L19.142 22.6179C18.8091 22.4889 18.4916 22.368 18.1895 22.2551C18.1436 22.319 18.0919 22.3785 18.035 22.4328C17.9829 22.4812 17.9278 22.5261 17.8699 22.5674C18.0363 22.596 18.192 22.6687 18.3209 22.7778C18.3748 22.8219 18.4182 22.8775 18.4482 22.9404C18.4782 23.0033 18.494 23.072 18.4944 23.1417C18.4948 23.1725 18.4913 23.2032 18.4839 23.2332C18.6797 23.3138 18.8788 23.3996 19.0842 23.4881C19.1842 23.5313 19.2857 23.575 19.389 23.6191L19.3957 23.622C20.7649 24.2138 22.6326 25.0212 22.9475 24.4826L22.9475 24.4824C22.9458 24.4736 22.9031 24.246 21.83 23.7316ZM16.574 20.9084L17.0962 20.7869C17.1372 20.8227 17.1771 20.8553 17.2181 20.8847C17.0031 20.8787 16.788 20.8866 16.574 20.9084ZM18.9391 20.3578L18.5511 20.4483L20.0954 20.8164C19.8505 20.7186 19.6024 20.6208 19.3596 20.5251L18.9391 20.3578ZM20.3761 18.0515C20.4448 18.2649 20.5557 18.4623 20.702 18.632L20.7094 18.6289C20.7125 18.4985 20.7062 18.3144 20.6789 18.1062L20.6137 18.0136C20.5538 18.0284 20.4813 18.0399 20.4035 18.0515H20.3761ZM23.3953 19.0085L25.7722 21.7008L25.7796 21.6977C25.1814 20.6565 24.3614 19.2862 23.5856 17.9979V18.0904C23.5872 18.1259 23.5815 18.1612 23.569 18.1944C23.5565 18.2276 23.5374 18.2579 23.5128 18.2835C23.4882 18.3091 23.4587 18.3294 23.4261 18.3432C23.3934 18.357 23.3583 18.364 23.3228 18.3638C23.1168 18.3638 23.0011 18.3039 22.4282 16.8726C22.1181 16.1027 21.7512 15.1141 21.4284 14.2433L21.1751 13.564C21.0637 13.605 20.9459 13.6481 20.8219 13.6912C20.8355 13.992 20.8587 14.3201 20.886 14.6514C21.0215 14.6734 21.1493 14.7287 21.2581 14.8123C21.2967 14.8465 21.3276 14.8884 21.349 14.9354C21.3704 14.9823 21.3817 15.0331 21.3822 15.0847C21.3822 15.2877 21.2508 15.4633 20.9785 15.6326C20.9955 15.7992 21.0126 15.9595 21.0285 16.109C21.0371 16.1899 21.0454 16.2676 21.0531 16.3415V16.3793L23.3953 19.0085ZM22.0058 14.3187C22.1645 14.7449 22.3468 15.2348 22.5291 15.7126L22.5365 15.7094C22.6707 15.6447 22.8221 15.6248 22.9685 15.6526C22.9668 15.5829 22.9645 15.5126 22.9622 15.442C22.9575 15.2964 22.9528 15.1493 22.9528 15.0027C22.9286 13.8774 22.9275 13.1286 22.9391 12.6259C22.7257 12.8425 22.3367 13.0823 21.6534 13.3683C21.6824 13.4468 21.7129 13.5291 21.7451 13.6158C21.7958 13.7523 21.8503 13.8994 21.9089 14.0583C21.94 14.1418 21.9724 14.2288 22.0058 14.3187Z" fill="#9EA399"/>
<path d="M14.6261 14.0742C14.7824 14.0747 14.9372 14.106 15.0815 14.1664C15.2257 14.2269 15.3566 14.3153 15.4666 14.4265C15.5766 14.5377 15.6636 14.6696 15.7225 14.8145C15.7813 14.9594 15.811 15.1146 15.8098 15.2711C15.8098 15.5868 15.6844 15.8896 15.4612 16.1129C15.238 16.3361 14.9354 16.4616 14.6197 16.4616C14.3041 16.4616 14.0014 16.3361 13.7783 16.1129C13.5551 15.8896 13.4297 15.5868 13.4297 15.2711C13.4287 15.1136 13.459 14.9576 13.5188 14.8119C13.5786 14.6663 13.6667 14.5339 13.7779 14.4226C13.8892 14.3113 14.0215 14.2232 14.1671 14.1634C14.3127 14.1036 14.4687 14.0733 14.6261 14.0742ZM20.3354 15.2711C20.3354 15.5868 20.21 15.8896 19.9869 16.1129C19.7637 16.3361 19.461 16.4616 19.1454 16.4616C18.8298 16.4616 18.5271 16.3361 18.3039 16.1129C18.0808 15.8896 17.9554 15.5868 17.9554 15.2711C17.9554 14.9553 18.0808 14.6525 18.3039 14.4292C18.5271 14.206 18.8298 14.0806 19.1454 14.0806C19.461 14.0806 19.7637 14.206 19.9869 14.4292C20.21 14.6525 20.3354 14.9553 20.3354 15.2711Z" fill="#E9E8E0"/>
<path d="M11.668 19.0203V17.5364C12.8244 18.4187 15.1455 19.1139 17.2176 19.1034C19.2896 19.0929 21.6013 18.4187 22.7545 17.5364V19.0171C21.2008 20.1645 19.3905 20.744 17.2176 20.744C15.0446 20.744 13.2217 20.1656 11.668 19.0203Z" fill="#E9E8E0"/>
</g>
<defs>
<clipPath id="clip0_880_9646">
<rect width="22.8571" height="22.8571" fill="white" transform="translate(5.57227 5.57153)"/>
</clipPath>
</defs>
</svg>
