<svg width="60" height="60" viewBox="0 0 60 60" fill="none" xmlns="http://www.w3.org/2000/svg">
<g clip-path="url(#clip0_1233_15275)">
<path d="M59.7402 24.819C59.5021 24.2767 59.2639 23.7343 59.0282 23.192C58.3987 22.1685 57.5546 21.3538 56.4913 20.7502C55.9279 20.521 55.3644 20.2918 54.8009 20.0649C53.5466 19.7404 52.2947 19.7404 51.0404 20.0649C49.7956 20.5664 48.5484 21.0679 47.3035 21.5671C47.3507 21.465 47.3979 21.3629 47.445 21.2608C47.6595 20.7979 47.8741 20.3349 48.0886 19.8697L48.1169 19.8107C48.6333 19.0301 48.9138 18.1859 48.9563 17.2805C49.1661 16.375 49.1237 15.4696 48.8289 14.5664C48.6097 13.6814 48.1877 12.9098 47.5629 12.2517C47.0631 11.5097 46.4029 10.9264 45.5777 10.4976C45.0143 10.2684 44.4508 10.0392 43.8873 9.81223C42.633 9.48772 41.3811 9.48772 40.1268 9.81223C39.5634 10.0414 38.9999 10.2706 38.4364 10.4976C37.3731 11.1035 36.5267 11.9159 35.8996 12.9393C35.751 13.257 35.6049 13.577 35.4563 13.8947C35.0555 14.7615 34.6524 15.6284 34.2516 16.493C34.0912 16.8402 33.9286 17.1874 33.7682 17.5369C33.1953 16.291 32.6248 15.0429 32.0519 13.7971C31.6063 13.0028 31.0003 12.3674 30.2294 11.8864C29.5457 11.285 28.7441 10.8788 27.8246 10.6677C26.8839 10.3841 25.9432 10.3432 25.0048 10.5452C24.0641 10.5861 23.1871 10.8561 22.376 11.3531C21.8998 11.7071 21.4212 12.0634 20.9449 12.4174C20.0679 13.2661 19.462 14.2691 19.1248 15.4219C19.04 16.0255 18.9574 16.6292 18.8726 17.2328C18.8773 18.4628 19.1979 19.6065 19.8392 20.6685C19.9264 20.8614 20.016 21.052 20.1033 21.2449C19.304 20.9227 18.5048 20.6027 17.7079 20.2805C16.7672 19.9968 15.8265 19.9559 14.8881 20.1579C13.9474 20.1988 13.0704 20.4688 12.2593 20.9658C11.4342 21.3947 10.774 21.9779 10.2742 22.7199C9.64941 23.378 9.22739 24.1496 9.00813 25.0346C8.92325 25.6382 8.84074 26.2419 8.75586 26.8455C8.76057 28.0755 9.08122 29.2192 9.7225 30.2812C10.0903 30.7396 10.4604 31.2003 10.8282 31.6587C11.71 32.5028 12.7521 33.0861 13.9498 33.4106C14.5109 33.6352 15.072 33.8621 15.6308 34.0868C15.0862 34.2979 14.5415 34.5112 13.9969 34.7222C13.0774 34.9333 12.2758 35.3395 11.5921 35.9408C10.8212 36.4219 10.2152 37.0573 9.76965 37.8516C9.25332 38.6322 8.97276 39.4764 8.93033 40.3818C8.72049 41.2873 8.76293 42.1927 9.05764 43.0959L9.76965 44.723C10.3991 45.7464 11.2432 46.5611 12.3065 47.1647C12.87 47.3939 13.4334 47.6231 13.9969 47.85C15.2512 48.1746 16.5031 48.1746 17.7574 47.85C18.5566 47.5414 19.3535 47.2283 20.1504 46.9174C20.1103 47.0036 20.0703 47.0898 20.0302 47.1761C19.8156 47.639 19.6011 48.1019 19.3865 48.5671C19.3771 48.5876 19.3677 48.6057 19.3582 48.6261C18.8419 49.4068 18.5614 50.2509 18.5189 51.1564C18.3091 52.0618 18.3515 52.9673 18.6462 53.8705C18.8655 54.7555 19.2875 55.527 19.9123 56.1851C20.4121 56.9272 21.0723 57.5104 21.8974 57.9393C22.4609 58.1685 23.0244 58.3977 23.5879 58.6246C24.8421 58.9491 26.0941 58.9491 27.3483 58.6246C27.9118 58.3954 28.4753 58.1662 29.0388 57.9393C30.1021 57.3334 30.9485 56.521 31.5756 55.4975C31.7241 55.1798 31.8703 54.8599 32.0189 54.5422C32.4197 53.6753 32.8228 52.8084 33.2236 51.9438C33.3839 51.5966 33.5466 51.2494 33.7069 50.9C34.2799 52.1458 34.8504 53.3939 35.4233 54.6398C35.8689 55.434 36.4748 56.0694 37.2458 56.5505C37.9295 57.1519 38.7311 57.5581 39.6506 57.7691C40.5913 58.0528 41.532 58.0936 42.4703 57.8916C43.4111 57.8508 44.2881 57.5808 45.0991 57.0838C45.5754 56.7298 46.054 56.3735 46.5302 56.0195C47.4073 55.1708 48.0132 54.1677 48.3503 53.0149C48.4352 52.4113 48.5177 51.8077 48.6026 51.2041C48.5979 49.9741 48.2773 48.8304 47.636 47.7683C47.4851 47.4393 47.3342 47.108 47.1809 46.7789C48.091 47.1443 49.0011 47.5119 49.9111 47.8773C50.8518 48.1609 51.7925 48.2018 52.7309 47.9998C53.6716 47.959 54.5486 47.6889 55.3597 47.192C56.1848 46.7631 56.845 46.1798 57.3448 45.4378C57.9696 44.7797 58.3916 44.0081 58.6109 43.1231C58.6957 42.5195 58.7783 41.9159 58.8631 41.3122C58.8584 40.0823 58.5378 38.9385 57.8965 37.8765C57.5287 37.4181 57.1586 36.9575 56.7908 36.4991C55.909 35.6549 54.8669 35.0717 53.6692 34.7472C53.2118 34.5634 52.7568 34.3795 52.2994 34.1957C53.1317 33.8599 53.9663 33.5286 54.7985 33.1927C55.718 32.9817 56.5196 32.5755 57.2033 31.9741C57.9743 31.493 58.5802 30.8576 59.0258 30.0634C59.5421 29.2827 59.8227 28.4385 59.8651 27.5331C60.075 26.6277 60.0325 25.7222 59.7378 24.819H59.7402Z" fill="#C3C6BD"/>
<path d="M1.23843 15.6901C1.23843 15.6901 2.88643 14.7529 2.89586 14.7688C2.89586 14.7688 0.217566 17.0766 0.236427 17.1084C0.252931 17.1356 3.94974 15.0433 3.94974 15.0433C3.97331 15.0819 0.809338 17.9208 0.825841 17.9435C0.825841 17.9435 4.78199 15.6833 4.81028 15.7309C4.84329 15.7877 1.26908 18.8194 1.27851 18.8353C1.29973 18.8694 5.44213 16.4934 5.45628 16.5138C5.45628 16.5138 2.03532 19.5933 2.06125 19.6341C2.06597 19.6409 5.87358 17.5146 5.87358 17.5146C5.88773 17.5396 3.69747 19.9155 3.71397 19.945C3.71869 19.9541 4.81264 19.3232 4.81735 19.3323" stroke="#798277" stroke-width="0.5" stroke-linecap="round" stroke-linejoin="round"/>
<path d="M0.612907 0.540326L0.843958 0.410976C0.848673 0.417784 0.565754 1.81794 0.575185 1.83609C0.596404 1.87013 3.10967 0.410976 3.11674 0.424592C3.13324 0.449554 0.568112 2.92308 0.586973 2.95712C0.586973 2.95485 5.48618 0.20674 5.49797 0.227164C5.52626 0.27255 0.957125 3.71279 0.99249 3.76952C0.99249 3.77179 5.53805 1.15757 5.57578 1.22338C5.57578 1.22338 0.900542 4.61143 0.938264 4.6727C0.938264 4.6727 5.47204 2.13564 5.47911 2.14925C5.50269 2.18783 0.683637 5.70069 0.716644 5.75742C0.733148 5.78465 6.12275 2.73927 6.12982 2.75061C6.16755 2.81415 0.485594 6.78541 0.537462 6.87391C0.565754 6.92157 5.46732 4.05545 5.50269 4.11446C5.50269 4.11446 0.874607 7.43216 0.902899 7.47754C0.914687 7.4957 5.88227 4.6727 5.89877 4.7022C5.94357 4.77709 0.964198 8.43972 0.964198 8.43972C0.99249 8.48964 5.34708 6.00477 5.34708 6.00477C5.3848 6.06831 1.20232 9.45409 1.20232 9.45409C1.21175 9.46998 5.89877 6.75364 5.93885 6.82172C5.96243 6.86029 1.16696 10.2869 1.19996 10.3414C1.19996 10.3437 5.88227 7.73851 5.88227 7.73851C5.88227 7.73851 0.933549 11.3399 0.978344 11.417C1.00192 11.4556 5.7691 8.6848 5.79975 8.737C5.79975 8.737 1.34378 12.3633 1.35085 12.3769C1.37679 12.4223 5.14904 10.1939 5.18205 10.2483C5.19619 10.271 0.945337 13.3936 0.945337 13.3936C0.966556 13.4299 5.87048 10.6568 5.87048 10.6568C5.87048 10.6568 1.7658 13.8724 1.79174 13.9155C1.79174 13.9155 5.40602 11.8777 5.42017 11.9004C5.42724 11.914 4.51247 13.4957 4.52426 13.5161C4.52426 13.5184 5.34944 13.0577 5.34944 13.0577" stroke="#798277" stroke-width="0.5" stroke-linecap="round" stroke-linejoin="round"/>
<mask id="mask0_1233_15275" style="mask-type:alpha" maskUnits="userSpaceOnUse" x="7" y="9" width="53" height="51">
<path d="M57.6858 30.2857C57.7825 30.4877 57.9923 30.617 58.2233 30.617C58.511 30.617 58.7703 30.5013 58.9519 30.2902C59.4753 29.6866 59.289 28.4567 58.9212 26.5028C58.8198 25.9695 58.6878 25.266 58.6807 24.9574C58.7632 24.8598 58.8128 24.735 58.8128 24.5989C58.8128 24.2857 58.5487 24.0315 58.2233 24.0315C58.0206 24.0315 57.8296 24.1178 57.6999 24.2676C57.3887 24.6261 57.4736 25.1753 57.7612 26.7048C57.8367 27.1019 57.9498 27.7078 58.0253 28.266C57.6693 27.5149 57.2213 26.5754 56.771 25.6337C56.2712 24.5875 55.769 23.5414 55.3871 22.7585C55.1937 22.3636 55.0334 22.0346 54.9155 21.8054C54.6939 21.3674 54.5713 21.1269 54.1894 21.1269C53.8074 21.1269 53.4491 21.2812 53.1992 21.5694C52.3504 22.552 52.7324 24.8893 53.4609 28.6178C53.7061 29.8795 54.0479 31.6291 54.0833 32.6027C52.8267 30.7396 49.6933 25.8742 47.5243 22.4794C47.4158 22.3114 47.2272 22.2093 47.0221 22.2093C46.8476 22.2093 46.685 22.2774 46.5624 22.3999C46.4728 22.4907 46.3808 22.5837 46.3101 23.0058C45.4472 22.5247 43.0212 22.6564 37.7282 23.0716C36.9384 23.1329 36.0637 23.201 35.2079 23.26C35.2621 23.1919 35.314 23.1193 35.3611 23.0421C35.4413 22.9082 35.4625 22.7244 35.4177 22.5747C35.3541 22.3682 35.2291 22.207 34.4676 21.7759C36.0449 21.3583 37.9145 21.0111 39.52 20.7138C44.2825 19.8288 48.3943 19.0663 48.3943 16.9741C48.3943 16.7585 48.2976 16.5588 48.1231 16.4158C47.5667 15.962 46.2794 16.1208 42.4435 16.7312C39.5531 17.1896 35.3824 17.8545 33.6401 17.4574C35.1159 17.3576 37.6693 17.1647 40.2014 16.8878C47.8897 16.0505 48.5334 15.2335 48.5334 14.4665C48.5334 14.3008 48.4626 14.1443 48.3353 14.0285C47.9935 13.7154 47.4253 13.6768 41.6867 13.9423C39.9444 14.024 37.6599 14.1306 36.0071 14.1488C42.4247 11.6435 42.9669 10.9468 42.9669 10.3205C42.9669 10.1617 42.8915 9.99826 42.7689 9.89161C42.5261 9.68056 42.2974 9.70099 41.3354 9.78949C40.9205 9.82807 40.1873 9.89615 39.8784 9.87572C39.7794 9.80084 39.6521 9.75545 39.5153 9.75545C39.19 9.75545 38.9259 10.0096 38.9259 10.3228C38.9259 10.502 39.0037 10.6677 39.1428 10.7902C39.3786 10.9968 39.7487 11.0421 40.4867 10.999C39.3927 11.5436 37.4382 12.3969 33.9442 13.7244C33.1874 14.0126 33.0058 14.0807 33.0058 14.471C33.0058 14.648 33.0813 14.8137 33.218 14.9385C33.6825 15.3651 35.1159 15.3901 41.7433 15.0815C43.0683 15.0202 44.5725 14.9499 45.7395 14.9181C42.9858 15.5331 37.3628 16.1208 32.2891 16.4113C31.9779 16.4294 31.7351 16.6768 31.7351 16.9786C31.7351 17.4098 31.9166 17.7865 32.2632 18.0701C33.6306 19.1866 37.4241 18.6851 42.6345 17.8568C44.2802 17.5958 46.2724 17.2713 47.1023 17.2895C46.3832 18.288 42.328 19.0391 39.2937 19.6042C36.9195 20.0444 34.6986 20.4574 33.0058 21.0089C32.1547 20.5754 30.9948 20.0036 29.4081 19.2229C25.9682 17.5323 20.3523 14.7751 19.2536 13.7902C20.4207 12.8281 25.3222 12.6488 28.6701 12.844C28.8988 12.8576 29.1039 12.7486 29.2171 12.5603C29.3656 12.3129 29.3821 12.0452 29.2666 11.8069C29.0332 11.3326 28.399 11.2305 27.9369 11.1556C27.9039 11.1511 27.8709 11.1443 27.8426 11.1397C27.562 10.9922 27.2107 11.0853 27.048 11.353C26.9962 11.4393 26.9679 11.5414 26.9679 11.6412C24.0845 11.5845 19.0627 11.7388 18.0512 13.4249C17.9498 13.5928 17.9286 13.7902 17.9876 13.9854C18.2634 14.884 21.0808 16.4022 28.8729 20.2305C29.7806 20.6753 30.7307 21.1427 31.5865 21.5716C31.0584 21.8326 30.634 22.1253 30.3346 22.4589C27.8001 21.7101 24.6432 20.2963 22.5166 19.3432C18.1267 17.3757 16.8394 16.8492 16.3183 17.7138C16.1321 18.0247 16.0991 18.3856 16.2217 18.7509C16.5376 19.6836 17.9687 20.7479 20.2297 21.9733C20.0882 22.0119 19.9515 22.0686 19.8195 22.1412C19.5955 22.266 19.4422 22.4703 19.3786 22.7176C19.0061 22.7381 18.7562 22.8833 18.5958 23.1556C18.511 23.2963 18.4945 23.4665 18.5487 23.6208C18.6029 23.7751 18.7232 23.8999 18.8788 23.9635C18.8929 23.968 19.2277 24.1042 19.8006 24.3402C20.5008 25.6382 21.9956 27.5331 24.1929 30.2449C23.9241 30.5943 23.8157 31.2547 23.8228 32.3621C23.7638 32.4211 23.712 32.4869 23.6695 32.5595C23.4007 33.0066 23.356 33.5104 23.5399 34.0164C23.5681 34.0958 23.6035 34.1753 23.6436 34.2547C21.0384 30.3107 18.544 25.5588 17.0987 22.8129C15.5686 19.8992 15.512 19.8107 15.1607 19.7108C15.0051 19.6677 14.826 19.6859 14.6868 19.763C14.1965 20.0353 13.8829 20.4824 13.7815 21.0565C13.4161 23.0807 15.7667 27.2222 20.7767 33.4014C19.6615 32.3417 18.518 31.2388 17.4901 30.2494C15.5097 28.3432 13.4609 26.3712 11.919 24.9529C9.17701 22.4294 8.90116 22.3886 8.43906 22.645C8.05712 22.8583 7.82371 23.1783 7.76477 23.5731C7.58323 24.8008 9.10392 26.3961 11.6007 28.8946C13.2369 30.5331 15.4767 32.7751 15.347 33.6556C15.347 33.6715 15.3423 33.6874 15.3352 33.7033C14.9603 33.4514 14.2507 32.8545 13.6566 32.3576C10.9005 30.0452 9.01197 28.5747 7.86615 29.2123C7.69168 29.3099 7.5738 29.4688 7.53136 29.6617C7.42763 30.1405 7.78363 30.7101 8.90588 32.1828C9.07327 32.403 9.27839 32.6707 9.3609 32.7978C9.37505 32.8477 9.39391 32.8954 9.4222 32.943C9.58488 33.2154 9.9456 33.3061 10.2285 33.1518C10.3747 33.0701 10.4808 32.9272 10.5162 32.7706C10.5822 32.4665 10.4572 32.3008 9.85601 31.5134C9.64854 31.2411 9.2666 30.7418 8.99547 30.3379C10.0376 30.8281 11.9614 32.4415 12.8809 33.2154C14.6609 34.7108 15.1985 35.1624 15.7572 34.8515C16.1863 34.6132 16.4457 34.257 16.5117 33.8167C16.7074 32.4846 15.1065 30.7736 12.4494 28.1095C11.0089 26.6662 9.0662 24.7214 8.93417 23.8772C10.1366 24.7759 13.7179 28.2229 16.6555 31.0527C20.7295 34.9741 22.9669 37.0845 24.2637 38.1851C24.2754 38.3008 24.2872 38.4188 24.299 38.5391C23.4691 38.934 22.8703 39.3697 22.5308 39.8508C19.869 35.2101 18.6454 33.7078 17.674 33.7078C17.4335 33.7078 17.2119 33.8076 17.0516 33.9869C16.5258 34.5815 16.7144 36.0542 17.3439 39.8031C17.7424 42.1745 18.3059 45.5399 18.0748 47.1352C17.997 47.235 17.9522 47.3598 17.9593 47.4937C17.9593 47.5255 17.9663 47.5573 17.9734 47.5868C17.9711 47.5958 17.9687 47.6072 17.964 47.614C17.5608 46.5361 16.7474 44.4143 15.828 42.3084C13.3901 36.735 12.3103 35.9657 11.5064 35.9657C11.0561 35.9657 10.6812 36.1337 10.4171 36.4536C9.62496 37.4158 10.0446 39.4423 10.8274 42.667C11.0938 43.7676 11.4922 45.4037 11.5582 46.375C8.76206 40.3568 8.30703 40.3568 7.90623 40.3568C7.72469 40.3568 7.55022 40.4317 7.42763 40.5633C7.15178 40.8583 7.18714 41.3008 7.3286 42.5353C7.3734 42.9256 7.44413 43.5452 7.4347 43.8152C7.36161 43.9105 7.31682 44.0263 7.31682 44.1556C7.31682 44.4688 7.58087 44.7229 7.90623 44.7229C8.09248 44.7229 8.26931 44.6458 8.39426 44.5119C8.63475 44.2532 8.65361 43.881 8.55694 42.9506C9.24302 44.2396 10.1578 46.1253 10.9665 47.8931C11.0608 48.0996 11.273 48.2312 11.5064 48.2312C11.8647 48.2312 12.1783 48.0883 12.3928 47.8296C13.053 47.0285 12.664 45.2494 11.9755 42.4105C11.5252 40.5588 10.8462 37.763 11.3413 37.1617C11.3626 37.1367 11.3861 37.1072 11.4875 37.1049C11.6266 37.1571 12.5437 37.6859 14.833 42.9642C16.0802 45.8371 17.1082 48.6851 17.1176 48.7123C17.2001 48.9415 17.4241 49.0936 17.674 49.0936C17.9852 49.0936 18.2658 49.0005 18.5015 48.8213C18.5157 49.03 18.577 49.2229 18.6925 49.3886C17.5349 49.5089 16.7427 49.7312 16.3301 50.1216C16.1085 50.3326 15.9906 50.5958 15.9906 50.8795C15.9906 51.288 16.1627 51.6465 16.4905 51.9143C16.8064 52.1753 17.2661 52.3432 17.8532 52.4385C17.7471 52.6654 17.7188 52.8765 17.7188 53.0421C17.7188 53.2486 17.8107 53.4393 17.9758 53.5777C18.485 54.0043 19.645 53.8886 23.0966 53.4234C25.1973 53.1397 29.5354 52.5542 30.1649 53.0762C30.0847 54.0542 26.5459 56.7887 23.264 58.7948C23.0943 58.8992 22.9905 59.0784 22.9905 59.2736C22.9905 59.4688 23.0754 59.6503 23.231 59.7797C23.4196 59.9362 23.6719 59.9975 24.0397 59.9975C24.4075 59.9975 24.8837 59.9385 25.525 59.8523C25.8999 59.8023 26.4374 59.7297 26.6944 59.7275C26.7934 59.7978 26.9137 59.8387 27.0457 59.8387C27.371 59.8387 27.6351 59.5845 27.6351 59.2713C27.6351 59.0875 27.5526 58.9105 27.4064 58.7902C27.0905 58.5247 26.6213 58.5611 25.5415 58.704C27.8968 57.145 31.3461 54.5989 31.3461 53.0421C31.3461 52.729 31.2117 52.4499 30.9594 52.2388C29.981 51.4196 27.1471 51.7328 22.9339 52.3001C21.5453 52.4884 19.8784 52.7131 19.0792 52.7131H19.0839C19.1475 52.6496 19.223 52.5928 19.3102 52.5384C21.1421 52.5384 23.653 52.1866 26.6378 51.7282C27.4229 51.6079 28.2835 51.4763 29.0686 51.3697C30.021 51.3765 30.9806 51.4014 31.9237 51.4423C31.985 51.4446 32.0675 51.4468 32.1571 51.4287C32.0604 51.4968 31.9826 51.5807 31.919 51.6851C31.8364 51.8235 31.8176 51.9869 31.8671 52.139C31.9449 52.3772 32.0769 52.4362 32.3976 52.5815C38.2139 55.2161 41.2859 56.8772 42.4718 57.7123C41.9131 57.5739 41.1563 57.3129 40.5857 57.1155C38.4921 56.3893 36.5164 55.7017 35.8138 56.8704C35.7242 57.0202 35.7054 57.2017 35.7643 57.3674C35.8822 57.6965 36.1957 57.8167 36.8182 58.0595C36.9974 58.1299 37.2732 58.2365 37.4264 58.3114C37.476 58.409 37.5561 58.493 37.6599 58.552C37.9404 58.7085 38.3011 58.6155 38.4662 58.3432C38.5605 58.1843 38.5793 57.9937 38.518 57.8213C38.4874 57.7373 38.4426 57.6624 38.3837 57.5966C38.9471 57.7509 39.5743 57.9688 40.1873 58.1821C41.3802 58.5951 42.3681 58.94 43.0825 58.94C43.5375 58.94 43.8794 58.7993 44.0915 58.4499C44.2 58.2706 44.2212 58.0573 44.1528 57.8462C44.0609 57.5626 43.8558 56.9294 39.3432 54.6238C44.1882 56.589 45.492 56.9884 45.9942 56.1511C46.0767 56.0126 46.0956 55.847 46.046 55.6949C45.9965 55.5429 45.881 55.4181 45.7325 55.3523C41.1846 53.3326 36.4221 51.0134 33.5316 49.3636C33.6707 49.1775 33.7438 48.9665 33.7438 48.7396C33.7438 48.6125 33.7202 48.4899 33.6731 48.3787C34.0432 48.3515 34.3615 48.3266 34.6373 48.2971C35.7006 48.6874 36.8158 49.1526 37.7565 49.5429C41.9956 51.3061 46.0012 52.9718 47.2249 50.9317C47.4017 50.6367 47.4323 50.3099 47.3121 49.9809C46.8076 48.6011 43.4786 47.3008 38.0866 45.2902C37.4005 45.0338 36.6673 44.7615 35.9246 44.4778C35.9246 44.4461 35.9293 44.4166 35.9293 44.3848C35.9293 43.8719 35.7219 43.4408 35.3281 43.1367C35.255 43.08 35.1749 43.0323 35.0924 42.9869C35.2079 42.9529 35.3187 42.9052 35.4272 42.8462C35.5097 42.8008 35.5757 42.7373 35.6252 42.6624L41.1091 43.9196C41.2341 44.0671 41.359 44.2123 41.4745 44.353C42.1088 45.3969 42.6604 46.3273 43.1013 47.0943C43.1791 47.2282 43.3064 47.3258 43.4597 47.3666C43.6129 47.4075 43.7756 47.3871 43.9124 47.3122C44.1104 47.201 44.2448 47.0172 44.2849 46.7948C44.3721 46.3182 44.0114 45.6533 42.9669 44.3462L44.3014 44.6526C44.5536 44.7116 44.8177 44.6027 44.9474 44.3848C45.0511 44.2101 45.07 44.0081 44.9992 43.8152C44.8153 43.3092 44.035 42.8848 41.2647 41.7978C40.3334 40.3069 39.2253 38.5822 38.0229 36.7986C38.2988 36.7645 38.5652 36.7305 38.808 36.701C38.9613 36.6828 39.1051 36.6647 39.2466 36.6465C39.8077 38.0853 40.5103 39.0406 41.5264 39.0406C41.7268 39.0406 41.9154 38.9589 42.0545 38.8114C42.1795 38.6775 42.262 38.4892 42.3068 38.1896C42.8066 38.8591 43.3371 39.5648 43.9029 40.3114C44.7375 41.4166 45.6806 42.6647 46.5506 43.8583C48.2198 46.9173 49.3161 49.207 49.3468 49.2729C49.4151 49.4181 49.5448 49.5293 49.7028 49.5769C49.7617 49.5951 49.8206 49.6042 49.8819 49.6042C49.9833 49.6042 50.0871 49.5792 50.1767 49.5293C50.403 49.4045 50.5586 49.1934 50.6152 48.9347C50.8085 48.0633 49.8442 46.4158 47.5974 43.325C46.3832 41.1011 44.8649 38.4688 43.2169 35.9657C46.8288 39.8803 51.5252 44.9703 54.6562 48.3651C54.8425 48.5671 55.1489 48.6148 55.3918 48.4809C55.538 48.3992 55.6417 48.2653 55.6841 48.1042C55.7714 47.7683 55.8633 47.4211 50.8792 39.406C49.665 37.4544 48.4391 35.5164 47.5196 34.0663C47.5101 33.7736 47.4984 33.4809 47.4889 33.1881C48.6442 34.0754 50.0894 35.5527 51.1952 36.6806C54.0691 39.617 56.5518 42.1518 58.2587 41.2033C58.4167 41.117 58.5251 40.9673 58.5628 40.7948C58.6406 40.4249 58.4237 40.1322 57.6646 39.1722C57.3651 38.7933 56.837 38.1261 56.6814 37.8152C56.7309 37.6677 56.7192 37.502 56.6319 37.3568C56.4692 37.0845 56.1085 36.9915 55.8256 37.148C55.6464 37.2479 55.5238 37.4113 55.4837 37.611C55.3824 38.0989 55.7643 38.6435 56.7262 39.8598C56.804 39.9574 56.8865 40.0641 56.9714 40.1707C55.7313 39.6601 53.5788 37.4612 52.0557 35.9045C50.3464 34.1594 48.7809 32.5618 47.4488 31.7857C47.364 28.763 47.3286 26.0081 47.3828 24.4196C48.0618 25.4771 49.0568 27.0293 50.0517 28.5679C52.5288 32.4014 53.9112 34.3182 54.1988 34.3182C54.4865 34.3182 54.7458 34.2002 54.9297 33.9869C55.5427 33.2766 55.248 31.5883 54.6279 28.4158C54.2436 26.4438 53.6801 23.5618 53.989 22.5542C54.6845 23.9567 56.4645 27.6942 57.6952 30.2902L57.6858 30.2857ZM14.9462 21.2494C15.2291 21.7577 15.6323 22.527 16.0519 23.3258C17.3534 25.8039 18.6689 28.2433 19.9727 30.499C15.1914 24.2539 14.8094 22.0028 14.9462 21.2494ZM9.51887 32.26C9.4835 32.294 9.45285 32.3326 9.42692 32.3757C9.4505 32.3349 9.48114 32.2963 9.51887 32.26ZM45.433 23.9022C45.2114 24.1564 44.5961 24.6284 42.8868 25.3182C42.6322 24.6738 42.4435 24.2199 42.2974 23.8977C43.6719 23.8273 44.8649 23.8069 45.433 23.9022ZM38.2776 40.6496C38.1809 40.6132 38.0819 40.5747 37.9829 40.5384C37.8697 40.3545 37.6528 40.2411 37.4194 40.2615C37.3769 40.266 37.3321 40.2683 37.2897 40.2729C37.2473 40.257 37.2048 40.2411 37.1624 40.2252C37.2213 40.0323 37.2543 39.7872 37.2614 39.4718C37.6009 39.8689 37.9404 40.2638 38.2776 40.6518V40.6496ZM25.8221 42.8576C25.8126 42.5943 25.7985 42.3061 25.7796 41.9952C26.4374 42.0089 27.2367 42.0066 28.2009 41.9794C28.2952 42.0701 28.399 42.1609 28.5121 42.2517C27.5785 42.4604 26.6661 42.667 25.8221 42.8576ZM24.8036 24.5399C24.9969 24.5058 25.2161 24.5217 25.4684 24.5898C26.27 24.8031 27.2367 25.468 28.3023 26.4461C27.9062 26.2532 27.5101 26.058 27.1164 25.8651C26.303 25.4657 25.5674 25.1049 24.8931 24.7827C24.8578 24.6942 24.8248 24.6125 24.8012 24.5421L24.8036 24.5399ZM32.7536 31.4703C32.7583 31.4952 32.763 31.5202 32.7677 31.5474C32.7559 31.5247 32.7441 31.5043 32.73 31.4816C32.73 31.468 32.73 31.4544 32.73 31.4408C32.7371 31.4499 32.7465 31.4612 32.7536 31.4703ZM34.3497 33.5943C34.4204 33.6919 34.4912 33.7918 34.5643 33.8893C34.5077 33.8757 34.4534 33.8621 34.3969 33.8462C34.3804 33.7623 34.3662 33.6783 34.3497 33.5921V33.5943ZM34.8 32.2328C34.4864 31.8129 34.1729 31.3977 33.857 30.9892C33.8405 30.9098 33.8239 30.8303 33.8074 30.7555C34.3191 31.0255 34.7835 31.2797 35.2079 31.5179C35.2291 31.7154 35.2503 31.9151 35.2739 32.1216C35.1159 32.1601 34.9556 32.1964 34.8 32.2328ZM35.0334 28.8992C35.0334 28.9468 35.0334 28.9968 35.0358 29.0467C34.7906 29.0603 34.5407 29.0716 34.2837 29.0875C34.5312 29.0263 34.7835 28.9627 35.0334 28.8992ZM36.9785 31.207C37.2779 31.2592 37.5514 31.2887 37.8037 31.2933C37.8178 31.3523 37.832 31.4135 37.8461 31.4725C37.7471 31.4998 37.6457 31.527 37.5443 31.5542C37.3651 31.443 37.1789 31.3273 36.9785 31.207ZM33.0082 28.2275C32.9351 28.1004 32.8573 27.9892 32.7748 27.8961C32.9021 27.8621 33.0318 27.8417 33.1685 27.8326C33.3453 27.9098 33.5222 27.9846 33.6966 28.0618C33.4656 28.1185 33.2369 28.173 33.0106 28.2275H33.0082ZM31.6738 34.3273C31.695 34.9151 31.7115 35.4824 31.7233 36.027C31.6997 36.0293 31.6738 36.0338 31.6502 36.0361C31.2848 35.4733 30.9264 34.9173 30.5751 34.3704C30.7944 34.3182 31.016 34.266 31.2352 34.2161C31.3838 34.2547 31.5299 34.291 31.6738 34.3273ZM31.3036 37.788C31.3343 37.7812 31.3649 37.7766 31.3979 37.7698C31.438 37.8334 31.4804 37.8946 31.5205 37.9582C31.4686 37.9355 31.4168 37.9128 31.3649 37.8901C31.346 37.8561 31.3248 37.822 31.306 37.788H31.3036ZM30.3252 36.1927C30.2615 36.0701 30.1955 35.9476 30.1319 35.8228C30.212 35.9453 30.2898 36.0656 30.3676 36.1881C30.3535 36.1881 30.3393 36.1904 30.3252 36.1927ZM27.7105 36.1382C27.2909 35.909 26.9019 35.6798 26.5506 35.4552C26.7345 35.3916 26.9372 35.3258 27.1589 35.2577C27.3404 35.5482 27.5243 35.8409 27.7105 36.1382ZM27.3687 37.4816C26.9702 37.586 26.5907 37.6949 26.2347 37.8061C26.0885 37.6314 25.9447 37.4499 25.7985 37.266C26.2299 37.3931 26.7557 37.4635 27.371 37.4839L27.3687 37.4816ZM29.0332 38.2486C29.5 38.9907 29.9385 39.6874 30.3087 40.2774L28.3754 39.8349C28.3094 39.819 28.2434 39.8167 28.1797 39.8235C27.8166 39.5194 27.4418 39.1586 27.0622 38.7524C27.628 38.589 28.2811 38.4211 29.0332 38.2509V38.2486ZM32.9799 40.6155C32.9445 40.5701 32.9068 40.5202 32.8715 40.4703C32.8809 40.3432 32.888 40.2048 32.895 40.055C33.02 40.2433 33.1402 40.4249 33.2534 40.5974C33.1614 40.6042 33.0695 40.611 32.9776 40.6155H32.9799ZM32.9328 38.0013C32.9328 37.8447 32.9328 37.6791 32.9304 37.5089C33.2652 37.4544 33.5976 37.4022 33.9277 37.3523C34.1116 38.0535 34.3167 38.6843 34.5572 39.2108C34.1823 39.0633 33.8074 38.9113 33.4349 38.7592C33.2675 38.5051 33.1001 38.2532 32.9351 37.999L32.9328 38.0013ZM32.8997 35.8636C32.8903 35.4778 32.8785 35.0671 32.862 34.6314C33.0341 34.6745 33.2015 34.7176 33.3642 34.7607C33.4279 35.1034 33.4939 35.4393 33.5622 35.766C33.343 35.7978 33.1214 35.8318 32.8997 35.8636ZM35.2928 35.2373C35.3871 35.26 35.479 35.2827 35.571 35.3031C35.604 35.3485 35.6346 35.3939 35.6676 35.4415C35.604 35.4506 35.5403 35.462 35.4743 35.471C35.413 35.3939 35.3541 35.3145 35.2928 35.2373ZM36.7427 34.4045C36.6861 33.9665 36.6225 33.4831 36.5612 32.9771C36.8252 32.9113 37.0822 32.8477 37.3274 32.7842C37.7188 33.0384 38.0418 33.2653 38.3106 33.465C38.4167 33.9075 38.5251 34.3387 38.6383 34.7517C38.1172 34.6859 37.4595 34.5588 36.7427 34.4022V34.4045ZM40.034 30.8099L39.5578 30.2925C39.5648 30.2199 39.5578 30.1427 39.5389 30.0679C39.8784 30.0747 40.1896 30.0883 40.4631 30.1064C40.4796 30.2766 40.4961 30.4514 40.515 30.6261C40.3688 30.6851 40.2085 30.7464 40.0364 30.8076L40.034 30.8099ZM36.5447 27.3334C36.4598 27.3561 36.3773 27.3787 36.2924 27.3992C36.3254 27.263 36.3655 27.1564 36.4174 27.0815C36.4763 27.1314 36.5376 27.2131 36.6013 27.3152C36.5824 27.3197 36.5635 27.3243 36.5447 27.3311V27.3334ZM31.0961 27.6624C30.7142 27.2381 30.3346 26.8364 29.9621 26.462C30.2898 26.6027 30.6175 26.7433 30.9523 26.8863C31.1739 26.9816 31.4003 27.0769 31.6243 27.1745C31.4144 27.3129 31.2376 27.4763 31.0961 27.6647V27.6624ZM29.5142 28.6201C29.7146 28.7154 29.9055 28.8061 30.0965 28.8969C28.9035 29.1601 27.977 29.353 27.496 29.4529C26.9514 28.5565 26.4704 27.7441 26.0673 27.0361C27.1824 27.5353 28.3518 28.0686 29.5142 28.6201ZM28.2198 30.6329C28.6583 30.6057 29.2572 30.5626 30.0871 30.5036C30.3511 30.4854 30.6553 30.4627 30.9877 30.4378C31.1339 30.853 31.3295 31.2933 31.5677 31.7517C31.5865 32.1579 31.6054 32.5618 31.6219 32.9612C31.4946 32.9907 31.372 33.0179 31.247 33.0474C30.6057 32.8863 30.0093 32.7411 29.4576 32.614C29.0238 31.9287 28.6088 31.266 28.2198 30.6352V30.6329ZM25.7961 33.0837C26.0272 33.4514 26.2747 33.8462 26.5341 34.2615C26.1097 34.3999 25.7584 34.5338 25.4731 34.6677C25.334 34.5474 25.2091 34.4272 25.1006 34.3114C25.07 33.8735 25.044 33.4536 25.0252 33.0633C25.2256 33.0452 25.4873 33.0542 25.7961 33.0837ZM25.6735 39.1995C25.7961 39.2539 25.8951 39.2812 25.9824 39.2857C26.5176 39.8712 27.041 40.375 27.5526 40.7857C27.5526 40.8107 27.5549 40.8334 27.5597 40.8583C26.8759 40.8697 26.2488 40.8719 25.6971 40.8606C25.657 40.3682 25.6099 39.8326 25.5533 39.2426C25.5934 39.2267 25.6334 39.2131 25.6759 39.1972L25.6735 39.1995ZM34.5407 40.4272C34.5949 40.4476 34.6468 40.4703 34.701 40.4907C34.6633 40.493 34.6256 40.4975 34.5878 40.4998C34.5713 40.4748 34.5548 40.4521 34.5407 40.4272ZM36.0873 39.5149C35.8845 39.2971 35.6063 38.8341 35.2951 37.8538C35.2268 37.6405 35.1631 37.4135 35.1018 37.1798C35.1749 37.1685 35.248 37.1594 35.3211 37.148C35.5427 37.4226 35.769 37.6972 35.9977 37.9741C36.0614 38.6072 36.0991 39.1541 36.0873 39.5149ZM38.4285 28.9355C38.3412 28.6223 38.2563 28.3319 38.1691 28.0663C38.9259 27.853 39.6191 27.6488 40.2486 27.4514C40.2745 27.9279 40.3099 28.4408 40.357 28.9877C39.8148 28.9491 39.1688 28.9332 38.4285 28.9377V28.9355ZM41.7881 25.7312C41.6584 25.7789 41.5241 25.8266 41.3849 25.8742C41.3873 25.4816 41.4038 25.1367 41.4415 24.8598C41.5453 25.1117 41.6632 25.409 41.7905 25.7312H41.7881ZM32.9257 22.2479C33.3477 22.4657 33.7061 22.6564 33.9654 22.8061C33.4844 23.0376 32.6852 23.0058 31.7091 22.8061C32.0274 22.6087 32.4424 22.4226 32.9257 22.2479ZM17.384 18.4854C18.2186 18.6669 20.3051 19.6019 22.0239 20.3712C24.6645 21.5535 27.4724 22.8107 29.8537 23.5164C29.8489 23.5686 29.8442 23.6231 29.8442 23.6775C29.8442 23.8727 29.9291 24.0565 30.0847 24.1927C30.6411 24.6874 32.2349 24.6374 37.8249 24.2017C38.6265 24.1382 39.5436 24.0679 40.4631 24.0043C40.2816 24.5285 40.2085 25.2887 40.2132 26.2623C39.4918 26.4937 38.676 26.7388 37.7471 26.9998C37.3864 26.2804 36.9667 25.9128 36.3985 25.9128C36.0826 25.9128 35.7997 26.0376 35.5828 26.2759C35.3918 26.4846 35.2598 26.7933 35.1725 27.1836C34.9108 27.0542 34.6515 26.9476 34.3969 26.8704C34.0621 26.7683 33.7391 26.7116 33.4255 26.698C32.8196 26.437 32.1594 26.1533 31.4333 25.8447C26.1403 23.5868 18.188 20.1964 17.384 18.4831V18.4854ZM23.8086 23.7433C23.745 23.8001 23.6884 23.8613 23.6483 23.9385C23.5281 23.7842 23.4102 23.6412 23.2899 23.5005C23.4597 23.58 23.6342 23.6617 23.8086 23.7433ZM23.6459 25.9695C24.5961 27.4763 25.5957 29.3961 26.5671 31.3296C26.2134 30.8916 25.848 30.4377 25.4708 29.9748C24.2236 28.4385 22.71 26.5709 21.6867 25.1322C22.2761 25.3818 22.9363 25.6632 23.6459 25.9718V25.9695ZM25.0063 31.822C25.0299 31.8606 25.0582 31.9037 25.0841 31.9446C25.0582 31.9446 25.0322 31.9468 25.004 31.9491C25.004 31.906 25.004 31.8629 25.004 31.822H25.0063ZM24.4169 39.76C24.4499 40.1095 24.4806 40.4612 24.5088 40.8084C24.0161 40.7698 23.6436 40.7154 23.4243 40.6382C23.5092 40.4362 23.7544 40.1276 24.4169 39.76ZM24.5937 41.9408C24.622 42.3629 24.6409 42.7623 24.6527 43.1163C24.5654 43.1367 24.4829 43.1548 24.398 43.173C24.2707 42.9438 24.1387 42.7055 24.0067 42.4695C23.8888 42.2539 23.7709 42.0452 23.6577 41.8409C23.9076 41.8795 24.2141 41.9135 24.5937 41.9408ZM19.1617 48.0656C19.1098 48.0792 19.065 48.0928 19.0202 48.1087C19.0273 48.0928 19.032 48.0769 19.0367 48.061C19.0768 48.061 19.1169 48.0656 19.1593 48.0656H19.1617ZM19.0014 51.4082C18.1738 51.3946 17.5467 51.2902 17.2543 51.052C17.1954 51.0043 17.1742 50.9635 17.1695 50.9158C17.6646 50.3961 21.1963 50.378 23.8251 50.3984C21.8918 50.5618 20.1165 50.8682 19.0014 51.4105V51.4082ZM20.8828 48.9869C21.3826 48.9483 21.9744 48.912 22.618 48.878C22.3469 48.9075 22.0852 48.9325 21.8353 48.9506C21.4557 48.9778 21.1421 48.9892 20.8828 48.9869ZM26.2512 46.1367C23.3842 46.3432 20.6116 46.6518 19.2843 46.8084C19.3998 45.1813 19.0344 42.7418 18.511 39.6216C18.2422 38.0126 17.8862 35.8977 17.9216 35.0217C19.131 36.0724 21.8753 41.0353 22.9669 43.0073C23.0542 43.1639 23.1343 43.3092 23.2098 43.4476C22.8302 43.5338 22.5025 43.6087 22.2408 43.67C21.3519 43.8765 21.1115 43.9309 21.1115 44.3848C21.1115 44.6617 21.2341 44.909 21.4557 45.0815C21.9201 45.4423 22.7972 45.4332 24.2212 45.204C24.5018 45.6216 24.6126 45.6238 24.8531 45.6238C25.0747 45.6238 25.2798 45.5331 25.4354 45.3697C25.5344 45.2653 25.6099 45.1246 25.6712 44.9385C26.1073 44.8523 26.5742 44.7547 27.0858 44.648C28.4226 44.3689 29.9975 44.0421 31.3743 43.8606C32.2396 44.2532 33.244 44.6639 34.3756 45.1064L34.3709 45.111C33.9984 45.4514 33.409 45.7328 32.6734 45.9665C31.28 45.8984 29.2454 45.9256 26.2488 46.1412L26.2512 46.1367ZM27.4418 49.2842C28.4579 49.114 29.6108 48.9302 30.5798 48.8258C30.7024 48.9211 30.8439 49.0255 31.0042 49.139C30.0281 49.2433 28.7267 49.2774 27.4418 49.2842ZM32.3952 51.3107C32.3952 51.3107 32.4141 51.2971 32.4235 51.288C32.539 51.1813 32.605 51.0338 32.605 50.8772C32.605 50.6571 32.5084 50.4574 32.3316 50.3122C32.2349 50.2328 32.1146 50.1715 31.9614 50.1284C32.1146 50.0966 32.2585 50.0626 32.3928 50.024C33.3901 50.6163 34.767 51.3697 36.6791 52.3341C34.3568 51.4446 33.0766 51.0928 32.3952 51.3107ZM37.6551 46.3477C39.9208 47.1919 42.0592 47.9907 43.6955 48.7441C46.1191 49.8629 46.1969 50.353 46.1993 50.3621C45.4991 51.5263 41.293 49.7766 38.2186 48.499C37.5208 48.2086 36.8417 47.9272 36.1887 47.6662C36.2052 47.6072 36.2123 47.5414 36.2123 47.4688C36.2123 47.26 36.1439 46.9559 35.8232 46.6836C35.6865 46.5679 35.4625 46.3795 34.8118 46.2207C34.9486 46.1276 35.0711 46.0323 35.182 45.9302C35.3163 45.8076 35.4319 45.6806 35.5285 45.5467C36.2005 45.8031 36.9078 46.0686 37.6528 46.3455L37.6551 46.3477ZM31.86 42.6624C32.2655 42.5716 32.6711 42.4809 33.0766 42.3901C33.1685 42.4673 33.2581 42.5353 33.3501 42.6011C32.9021 42.5875 32.407 42.6102 31.86 42.6624ZM36.3443 41.6594C36.639 41.5936 36.929 41.5278 37.2143 41.4642C37.5278 41.5845 37.8414 41.7048 38.1597 41.825C38.7019 42.0315 39.2607 42.2426 39.8077 42.4536L36.3443 41.6594ZM41.1657 37.7403C40.9134 37.5134 40.6682 37.0618 40.4372 36.4877C40.456 36.4854 40.4773 36.4831 40.4961 36.4786C40.6706 36.4536 40.8333 36.4287 40.9794 36.3969C41.0266 36.4627 41.0761 36.5308 41.1256 36.5966C41.1586 37.0618 41.1751 37.4589 41.1657 37.7403ZM52.539 44.3621C51.0278 42.7214 49.1086 40.6427 47.1895 38.5641C45.3128 36.5285 43.4361 34.4952 41.939 32.875C41.9366 32.8477 41.9319 32.8205 41.9296 32.7933C41.8777 32.3371 41.8211 31.8175 41.7622 31.2638C42.3728 30.9007 42.6675 30.5194 42.6675 30.0837C42.6675 29.8636 42.5685 29.6548 42.3917 29.4937C42.2266 29.3462 41.9461 29.2328 41.5571 29.1465C41.4958 28.434 41.4439 27.726 41.4132 27.0747C41.6914 26.9816 41.9555 26.8886 42.2054 26.8001C42.3917 27.2812 42.585 27.7827 42.7713 28.266C43.4974 30.1473 44.3202 32.2781 45.0157 33.9506C46.3007 37.0368 46.56 37.1685 47.0221 37.1685C47.1824 37.1685 47.3357 37.1049 47.4465 36.9937C47.5573 36.8825 47.6162 36.7328 47.6092 36.5784C47.6068 36.5126 47.6045 36.4468 47.5997 36.3787C49.3562 39.1609 51.1952 42.1178 52.5367 44.3644L52.539 44.3621ZM45.2657 31.4385C44.7705 30.1904 44.2754 28.906 43.8746 27.8689C43.6577 27.3084 43.4691 26.8182 43.2994 26.3825C44.8318 25.7653 45.7042 25.2388 46.1851 24.7781C46.1568 25.8651 46.1616 27.4809 46.2158 29.9067C46.2252 30.3787 46.237 30.8485 46.2512 31.3114C45.8975 31.2547 45.5698 31.291 45.2657 31.4385Z" fill="#9EA399"/>
</mask>
<g mask="url(#mask0_1233_15275)">
<path d="M59.7402 24.819C59.502 24.2767 59.2639 23.7343 59.0282 23.192C58.3987 22.1685 57.5546 21.3538 56.4913 20.7502C55.9278 20.521 55.3644 20.2918 54.8009 20.0649C53.5466 19.7404 52.2947 19.7404 51.0404 20.0649C49.7956 20.5664 48.5484 21.0679 47.3035 21.5671C47.3507 21.465 47.3978 21.3629 47.445 21.2608C47.6595 20.7979 47.8741 20.3349 48.0886 19.8697L48.1169 19.8107C48.6333 19.0301 48.9138 18.1859 48.9563 17.2805C49.1661 16.375 49.1236 15.4696 48.8289 14.5664C48.6097 13.6814 48.1877 12.9098 47.5629 12.2517C47.0631 11.5097 46.4029 10.9264 45.5777 10.4976C45.0143 10.2684 44.4508 10.0392 43.8873 9.81223C42.633 9.48772 41.3811 9.48772 40.1268 9.81223C39.5634 10.0414 38.9999 10.2706 38.4364 10.4976C37.3731 11.1035 36.5267 11.9159 35.8996 12.9393C35.751 13.257 35.6048 13.577 35.4563 13.8947C35.0555 14.7615 34.6524 15.6284 34.2516 16.493C34.0912 16.8402 33.9286 17.1874 33.7682 17.5369C33.1953 16.291 32.6248 15.0429 32.0519 13.7971C31.6063 13.0028 31.0003 12.3674 30.2294 11.8864C29.5457 11.285 28.7441 10.8788 27.8246 10.6677C26.8839 10.3841 25.9432 10.3432 25.0048 10.5452C24.0641 10.5861 23.1871 10.8561 22.376 11.3531C21.8998 11.7071 21.4212 12.0634 20.9449 12.4174C20.0679 13.2661 19.462 14.2691 19.1248 15.4219C19.04 16.0255 18.9574 16.6292 18.8726 17.2328C18.8773 18.4628 19.1979 19.6065 19.8392 20.6685C19.9264 20.8614 20.016 21.052 20.1033 21.2449C19.304 20.9227 18.5048 20.6027 17.7079 20.2805C16.7672 19.9968 15.8265 19.9559 14.8881 20.1579C13.9474 20.1988 13.0704 20.4688 12.2593 20.9658C11.4342 21.3947 10.774 21.9779 10.2742 22.7199C9.64941 23.378 9.22739 24.1496 9.00813 25.0346C8.92325 25.6382 8.84073 26.2419 8.75586 26.8455C8.76057 28.0755 9.08122 29.2192 9.7225 30.2812C10.0903 30.7396 10.4604 31.2003 10.8282 31.6587C11.71 32.5028 12.7521 33.0861 13.9498 33.4106C14.5109 33.6352 15.072 33.8622 15.6308 34.0868C15.0862 34.2979 14.5415 34.5112 13.9969 34.7222C13.0774 34.9333 12.2758 35.3395 11.5921 35.9408C10.8212 36.4219 10.2152 37.0573 9.76965 37.8516C9.25332 38.6322 8.97276 39.4764 8.93033 40.3818C8.72049 41.2873 8.76293 42.1927 9.05764 43.0959L9.76965 44.723C10.3991 45.7464 11.2432 46.5611 12.3065 47.1647C12.87 47.3939 13.4334 47.6231 13.9969 47.85C15.2512 48.1746 16.5031 48.1746 17.7574 47.85C18.5566 47.5414 19.3535 47.2283 20.1504 46.9174C20.1103 47.0036 20.0703 47.0898 20.0302 47.1761C19.8156 47.639 19.6011 48.1019 19.3865 48.5671C19.3771 48.5876 19.3677 48.6057 19.3582 48.6261C18.8419 49.4068 18.5614 50.251 18.5189 51.1564C18.3091 52.0618 18.3515 52.9673 18.6462 53.8705C18.8655 54.7555 19.2875 55.5271 19.9123 56.1851C20.4121 56.9272 21.0723 57.5104 21.8974 57.9393C22.4609 58.1685 23.0244 58.3977 23.5879 58.6246C24.8421 58.9491 26.0941 58.9491 27.3483 58.6246C27.9118 58.3954 28.4753 58.1662 29.0388 57.9393C30.1021 57.3334 30.9485 56.521 31.5756 55.4976C31.7241 55.1799 31.8703 54.8599 32.0189 54.5422C32.4197 53.6753 32.8228 52.8084 33.2236 51.9438C33.3839 51.5966 33.5466 51.2494 33.7069 50.9C34.2798 52.1458 34.8504 53.3939 35.4233 54.6398C35.8689 55.434 36.4748 56.0694 37.2458 56.5505C37.9295 57.1519 38.7311 57.5581 39.6506 57.7691C40.5913 58.0528 41.532 58.0936 42.4703 57.8917C43.411 57.8508 44.2881 57.5808 45.0991 57.0838C45.5754 56.7298 46.054 56.3735 46.5302 56.0195C47.4073 55.1708 48.0132 54.1677 48.3503 53.0149C48.4352 52.4113 48.5177 51.8077 48.6026 51.2041C48.5979 49.9741 48.2772 48.8304 47.636 47.7684C47.4851 47.4393 47.3342 47.108 47.1809 46.7789C48.091 47.1443 49.001 47.5119 49.9111 47.8773C50.8518 48.1609 51.7925 48.2018 52.7309 47.9998C53.6716 47.959 54.5486 47.6889 55.3596 47.192C56.1848 46.7631 56.845 46.1799 57.3448 45.4378C57.9696 44.7797 58.3916 44.0081 58.6109 43.1231C58.6957 42.5195 58.7782 41.9159 58.8631 41.3122C58.8584 40.0823 58.5378 38.9385 57.8965 37.8765C57.5287 37.4181 57.1585 36.9575 56.7907 36.4991C55.909 35.6549 54.8669 35.0717 53.6692 34.7472C53.2118 34.5634 52.7568 34.3795 52.2994 34.1957C53.1317 33.8599 53.9663 33.5286 54.7985 33.1927C55.718 32.9817 56.5196 32.5755 57.2033 31.9741C57.9743 31.493 58.5802 30.8576 59.0258 30.0634C59.5421 29.2827 59.8227 28.4386 59.8651 27.5331C60.075 26.6277 60.0325 25.7222 59.7378 24.819H59.7402Z" fill="#798277"/>
</g>
<path d="M26.7182 24.9552C28.1846 24.9416 29.3729 26.1125 29.3729 27.5376C29.3729 28.9628 28.1846 30.1065 26.7182 30.1201C25.2258 30.1065 24.0352 28.8947 24.0352 27.5376C24.0352 26.1806 25.2234 24.9416 26.7182 24.9552ZM39.5226 27.5376C39.5226 28.8947 38.3343 30.1065 36.8679 30.1201C35.3755 30.1065 34.1849 28.8947 34.1849 27.5376C34.1849 26.1806 35.3731 24.9416 36.8679 24.9552C38.3343 24.9416 39.5226 26.1125 39.5226 27.5376Z" fill="#E9E8E0"/>
<path d="M33.7533 32.605C39.737 32.5937 43.1863 35.1557 43.1863 39.3902C43.1863 43.6247 39.737 46.1754 33.7533 46.1754C27.7696 46.1754 24.3203 43.6383 24.3203 39.3902C24.3203 35.1421 27.7436 32.5937 33.7533 32.605ZM27.0858 39.3902C27.0976 41.5982 29.3421 42.9779 33.7533 42.9779C38.1267 42.9666 40.4349 41.5982 40.4467 39.3902C40.4349 37.1822 38.1267 35.8161 33.7533 35.8024C29.3421 35.8024 27.0976 37.1686 27.0858 39.3902Z" fill="#E9E8E0"/>
</g>
<defs>
<clipPath id="clip0_1233_15275">
<rect width="60" height="60" fill="white"/>
</clipPath>
</defs>
</svg>
