<svg width="24" height="25" viewBox="0 0 24 25" xmlns="http://www.w3.org/2000/svg">
<path fill-rule="evenodd" clip-rule="evenodd" d="M20.9609 5.9751H2.96094C2.41094 5.9751 1.96094 5.5251 1.96094 4.9751C1.96094 4.4251 2.41094 3.9751 2.96094 3.9751H20.9609C21.5109 3.9751 21.9609 4.4251 21.9609 4.9751C21.9609 5.5251 21.5109 5.9751 20.9609 5.9751ZM17.9609 10.5801H5.96094C5.41094 10.5801 4.96094 10.1301 4.96094 9.58014C4.96094 9.03014 5.41094 8.58014 5.96094 8.58014H17.9609C18.5109 8.58014 18.9609 9.03014 18.9609 9.58014C18.9609 10.1301 18.5109 10.5801 17.9609 10.5801ZM17.9609 19.8001H5.96094C5.41094 19.8001 4.96094 19.3501 4.96094 18.8001C4.96094 18.2501 5.41094 17.8001 5.96094 17.8001H17.9609C18.5109 17.8001 18.9609 18.2501 18.9609 18.8001C18.9609 19.3501 18.5109 19.8001 17.9609 19.8001ZM2.96094 15.1901H20.9609C21.5109 15.1901 21.9609 14.7401 21.9609 14.1901C21.9609 13.6401 21.5109 13.1901 20.9609 13.1901H2.96094C2.41094 13.1901 1.96094 13.6401 1.96094 14.1901C1.96094 14.7401 2.41094 15.1901 2.96094 15.1901Z"/>
</svg>
