<svg width="24" height="25" viewBox="0 0 24 25" xmlns="http://www.w3.org/2000/svg">
<path fill-rule="evenodd" clip-rule="evenodd" d="M3.03906 5.9751H21.0391C21.5891 5.9751 22.0391 5.5251 22.0391 4.9751C22.0391 4.4251 21.5891 3.9751 21.0391 3.9751H3.03906C2.48906 3.9751 2.03906 4.4251 2.03906 4.9751C2.03906 5.5251 2.48906 5.9751 3.03906 5.9751ZM3.03906 10.5801H15.0391C15.5891 10.5801 16.0391 10.1301 16.0391 9.58014C16.0391 9.03014 15.5891 8.58014 15.0391 8.58014H3.03906C2.48906 8.58014 2.03906 9.03014 2.03906 9.58014C2.03906 10.1301 2.48906 10.5801 3.03906 10.5801ZM3.03906 19.8001H15.0391C15.5891 19.8001 16.0391 19.3501 16.0391 18.8001C16.0391 18.2501 15.5891 17.8001 15.0391 17.8001H3.03906C2.48906 17.8001 2.03906 18.2501 2.03906 18.8001C2.03906 19.3501 2.48906 19.8001 3.03906 19.8001ZM21.0391 15.1901H3.03906C2.48906 15.1901 2.03906 14.7401 2.03906 14.1901C2.03906 13.6401 2.48906 13.1901 3.03906 13.1901H21.0391C21.5891 13.1901 22.0391 13.6401 22.0391 14.1901C22.0391 14.7401 21.5891 15.1901 21.0391 15.1901Z" />
</svg>
