<svg width="25" height="25" viewBox="0 0 25 25" fill="none" xmlns="http://www.w3.org/2000/svg">
<path fill-rule="evenodd" clip-rule="evenodd" d="M6.6895 20.5718C6.77463 20.6332 6.87692 20.6662 6.98186 20.6662C7.0699 20.6653 7.15614 20.6411 7.23186 20.5962L11.4119 18.1812C11.5254 18.1144 11.608 18.0055 11.6417 17.8782C11.6754 17.7509 11.6575 17.6154 11.5919 17.5012C11.5761 17.4674 11.554 17.4368 11.5269 17.4112L12.0967 16.9882C12.1052 17.0085 12.1151 17.0282 12.1262 17.0472C12.1922 17.1616 12.3007 17.2453 12.4281 17.2799C12.5555 17.3146 12.6914 17.2974 12.8062 17.2322L15.2312 15.8322L13.4862 17.6322C13.4024 17.7188 13.3527 17.8328 13.3463 17.9532C13.3399 18.0735 13.3771 18.1922 13.4512 18.2872C13.5255 18.3825 13.6318 18.4475 13.7503 18.4705C13.8689 18.4935 13.9918 18.4728 14.0962 18.4122L15.2612 17.7423L14.4862 18.5522C14.4024 18.6389 14.3527 18.7528 14.3463 18.8732C14.3399 18.9935 14.3771 19.1122 14.4512 19.2072C14.5255 19.3024 14.6318 19.3676 14.7503 19.3906C14.8689 19.4135 14.9918 19.3928 15.0962 19.3322L16.5962 18.4622L15.7312 19.8572C15.6734 19.9522 15.6489 20.0638 15.6616 20.1743C15.6743 20.2847 15.7234 20.3878 15.8012 20.4672C15.8471 20.5154 15.9022 20.5539 15.9631 20.5805C16.0241 20.6071 16.0897 20.6213 16.1562 20.6223C16.2409 20.6196 16.3235 20.5955 16.3962 20.5522L18.3062 19.4522C18.3635 19.4195 18.4138 19.3759 18.4541 19.3237C18.4945 19.2716 18.5241 19.2119 18.5413 19.1483C18.5585 19.0846 18.5629 19.0182 18.5543 18.9528C18.5457 18.8874 18.5243 18.8243 18.4912 18.7672C18.4582 18.7103 18.4142 18.6606 18.3618 18.6207C18.3095 18.5809 18.2497 18.5518 18.1861 18.535C18.1225 18.5183 18.0562 18.5143 17.991 18.5233C17.9258 18.5322 17.863 18.554 17.8062 18.5872L17.6162 18.6923L18.4812 17.2972C18.5392 17.2026 18.5641 17.0912 18.5518 16.9808C18.5396 16.8705 18.4909 16.7673 18.4136 16.6877C18.3362 16.608 18.2345 16.5564 18.1245 16.5409C18.0146 16.5254 17.9026 16.547 17.8062 16.6022L17.6362 16.6972L18.4162 15.8922C18.5 15.8056 18.5497 15.6916 18.5562 15.5713C18.5626 15.4509 18.5253 15.3323 18.4512 15.2372C18.3769 15.142 18.2707 15.0769 18.1521 15.0539C18.0336 15.0309 17.9107 15.0517 17.8062 15.1122L16.6712 15.7672L18.4162 13.9622C18.4999 13.8755 18.5494 13.7614 18.5556 13.6411C18.5618 13.5207 18.5243 13.4022 18.4501 13.3073C18.3758 13.2123 18.2698 13.1474 18.1515 13.1244C18.0332 13.1014 17.9106 13.122 17.8062 13.1823L15.1728 14.7049L18.3369 12.3562C18.4452 12.2822 18.5201 12.1687 18.5455 12.04C18.5709 11.9113 18.5446 11.7778 18.4725 11.6682C18.4003 11.5587 18.288 11.4819 18.1598 11.4544C18.0315 11.4268 17.8976 11.4509 17.7869 11.5212L16.8269 12.0762L18.3269 11.0362C18.4389 10.9653 18.5182 10.8527 18.5473 10.7233C18.5763 10.5939 18.5528 10.4583 18.4819 10.3462C18.4109 10.2341 18.2984 10.1549 18.169 10.1258C18.0396 10.0967 17.9039 10.1203 17.7919 10.1912L14.2919 12.1912L18.3219 9.2212C18.4249 9.14589 18.4953 9.03401 18.5185 8.90851C18.5417 8.78302 18.5161 8.65342 18.4469 8.54621C18.3932 8.46591 18.3174 8.40284 18.2287 8.36469C18.1399 8.32654 18.0421 8.3149 17.9469 8.33118L18.3269 8.07117C18.4396 8.00089 18.5198 7.88874 18.5498 7.75934C18.5798 7.62994 18.5571 7.49389 18.4869 7.38117C18.4166 7.26845 18.3044 7.18828 18.175 7.15827C18.0456 7.12826 17.9096 7.15091 17.7969 7.2212L15.6569 8.45618L18.3369 6.55121C18.4421 6.47654 18.5144 6.36404 18.5386 6.23731C18.5628 6.11058 18.5371 5.97944 18.4669 5.87122C18.397 5.76375 18.2885 5.68719 18.1638 5.65741C18.0391 5.62764 17.9078 5.64688 17.7969 5.71119L13.0119 8.4712L18.2819 4.4112C18.3363 4.3729 18.3825 4.32415 18.4178 4.26777C18.4531 4.21139 18.4768 4.14855 18.4875 4.08289C18.4982 4.01724 18.4957 3.95006 18.4801 3.88538C18.4646 3.8207 18.4363 3.75978 18.3969 3.70618C18.3263 3.60086 18.2184 3.52628 18.0949 3.4975C17.9715 3.46873 17.8417 3.48794 17.7319 3.55121L14.2969 5.55121L16.7019 3.77619C16.8102 3.70223 16.8851 3.58866 16.9105 3.45997C16.9359 3.33127 16.9096 3.19775 16.8375 3.0882C16.7653 2.97866 16.653 2.9019 16.5248 2.8744C16.3965 2.84689 16.2626 2.8709 16.1519 2.94123L11.4019 5.68622L13.6869 3.75617C13.7846 3.67608 13.8485 3.56196 13.8655 3.43671C13.8825 3.31147 13.8515 3.1844 13.7786 3.08112C13.7057 2.97784 13.5964 2.90604 13.4727 2.88007C13.349 2.85411 13.2201 2.87596 13.1119 2.94123L10.4669 4.4712L11.2569 3.74122C11.3478 3.65791 11.4047 3.5439 11.4167 3.42115C11.4287 3.2984 11.3949 3.17552 11.3219 3.07618C11.2488 2.97805 11.1423 2.91014 11.0225 2.88526C10.9027 2.86038 10.778 2.88031 10.6719 2.94123L7.99686 4.48121L8.45186 3.6012C8.50067 3.50518 8.51717 3.39596 8.4989 3.2898C8.48063 3.18365 8.42856 3.08627 8.35045 3.01209C8.27234 2.93792 8.17237 2.89095 8.06541 2.87818C7.95846 2.86541 7.85024 2.88753 7.75687 2.94123L6.58186 3.62122C6.48728 3.67733 6.41383 3.76304 6.37289 3.86512C6.33196 3.9672 6.32583 4.07994 6.35544 4.18586C6.38505 4.29178 6.44874 4.38494 6.53668 4.45099C6.62462 4.51704 6.73188 4.55229 6.84186 4.55121L6.34186 5.55121C6.29305 5.64724 6.27656 5.75646 6.29483 5.86262C6.3131 5.96877 6.36516 6.06615 6.44327 6.14033C6.52138 6.2145 6.62136 6.26147 6.72832 6.27424C6.83527 6.287 6.94349 6.26489 7.03687 6.21119L7.24187 6.09119L6.44685 6.82117C6.3563 6.90465 6.29974 7.01864 6.28803 7.14124C6.27631 7.26385 6.31026 7.38648 6.38336 7.4856C6.45647 7.58472 6.56358 7.65339 6.68417 7.67841C6.80477 7.70343 6.93036 7.68307 7.03687 7.62122L8.75186 6.62122L6.46185 8.55121C6.36649 8.63205 6.30487 8.74568 6.28914 8.86969C6.27341 8.99371 6.30471 9.11911 6.37686 9.2212C6.44879 9.32355 6.55648 9.39522 6.67867 9.42206C6.80085 9.44891 6.92866 9.42899 7.03687 9.36622L8.89687 8.29621L6.49187 10.0662C6.39184 10.1429 6.32448 10.2545 6.30325 10.3788C6.28203 10.503 6.30852 10.6307 6.37741 10.7363C6.4463 10.8418 6.55251 10.9175 6.67479 10.9481C6.79707 10.9786 6.92639 10.9619 7.03687 10.9012L11.7469 8.18122L6.48186 12.2462C6.3874 12.3256 6.32564 12.4371 6.30844 12.5593C6.29124 12.6815 6.31983 12.8056 6.3887 12.908C6.45757 13.0104 6.56187 13.0837 6.68152 13.1138C6.80117 13.144 6.92774 13.1287 7.03687 13.0712L9.17686 11.8362L6.49686 13.7462C6.40485 13.8132 6.33844 13.9095 6.30859 14.0194C6.27875 14.1292 6.28727 14.2458 6.33273 14.3502C6.37819 14.4545 6.45787 14.5402 6.55862 14.5931C6.65938 14.6461 6.77516 14.663 6.88686 14.6412L6.50687 14.9012C6.40481 14.9758 6.33481 15.0864 6.31099 15.2106C6.28717 15.3348 6.31128 15.4633 6.37846 15.5704C6.44565 15.6776 6.55092 15.7552 6.67308 15.7878C6.79525 15.8205 6.92524 15.8056 7.03687 15.7462L10.5369 13.7462L6.50687 16.7162C6.40684 16.7929 6.33948 16.9046 6.31825 17.0288C6.29703 17.1531 6.32352 17.2807 6.39241 17.3862C6.4613 17.4918 6.56751 17.5674 6.68979 17.598C6.81207 17.6286 6.94139 17.6119 7.05186 17.5512L8.01186 16.9962L6.51186 18.0362C6.3998 18.1071 6.32053 18.2197 6.29146 18.3491C6.26239 18.4785 6.28591 18.6141 6.35686 18.7262C6.4278 18.8383 6.54035 18.9175 6.66975 18.9466C6.79915 18.9757 6.93481 18.9521 7.04686 18.8812L10.7869 16.7212L6.68185 19.7662C6.5979 19.8291 6.5359 19.9169 6.50461 20.0171C6.47332 20.1173 6.47434 20.2247 6.50752 20.3243C6.54071 20.4238 6.60437 20.5105 6.6895 20.5718Z" fill="#545F53"/>
</svg>
