<svg width="16" height="17" viewBox="0 0 16 17" fill="none" xmlns="http://www.w3.org/2000/svg">
<path fill-rule="evenodd" clip-rule="evenodd" d="M3.33331 12.9999C2.22998 12.9999 1.33331 12.1033 1.33331 10.9999V5.66658C1.33331 4.56325 2.22998 3.66659 3.33331 3.66659H5.22998L5.63998 2.73325C5.74665 2.48992 5.98665 2.33325 6.24998 2.33325H9.74998C10.0133 2.33325 10.2533 2.48992 10.36 2.73325L10.77 3.66659H12.6666C13.77 3.66659 14.6666 4.56325 14.6666 5.66658V10.9999C14.6666 12.1033 13.77 12.9999 12.6666 12.9999H3.33331ZM3.33331 4.99992C2.96665 4.99992 2.66665 5.29992 2.66665 5.66658V10.9999C2.66665 11.3666 2.96665 11.6666 3.33331 11.6666H12.6666C13.0333 11.6666 13.3333 11.3666 13.3333 10.9999V5.66658C13.3333 5.29992 13.0333 4.99992 12.6666 4.99992H10.3333C10.07 4.99992 9.82998 4.84325 9.72331 4.59992L9.31331 3.66659H6.68665L6.27665 4.59992C6.16998 4.84325 5.92998 4.99992 5.66665 4.99992H3.33331ZM7.99998 10.9999C6.52998 10.9999 5.33331 9.80325 5.33331 8.33325C5.33331 6.86325 6.52998 5.66659 7.99998 5.66659C9.46998 5.66659 10.6666 6.86325 10.6666 8.33325C10.6666 9.80325 9.46998 10.9999 7.99998 10.9999ZM7.99998 6.99992C7.26331 6.99992 6.66665 7.59659 6.66665 8.33325C6.66665 9.06992 7.26331 9.66659 7.99998 9.66659C8.73665 9.66659 9.33331 9.06992 9.33331 8.33325C9.33331 7.59659 8.73665 6.99992 7.99998 6.99992ZM12.6666 6.33325C12.6666 6.70144 12.3682 6.99992 12 6.99992C11.6318 6.99992 11.3333 6.70144 11.3333 6.33325C11.3333 5.96506 11.6318 5.66659 12 5.66659C12.3682 5.66659 12.6666 5.96506 12.6666 6.33325Z" fill="#E9E8E0"/>
</svg>
