<svg width="24" height="25" viewBox="0 0 24 25" fill="none" xmlns="http://www.w3.org/2000/svg">
<path d="M12.0452 18C11.7774 17.9989 11.521 17.8921 11.3322 17.7031L2.33095 8.75102C2.22959 8.65929 2.14803 8.54802 2.09119 8.42398C2.03435 8.29993 2.00339 8.1657 2.00026 8.0294C1.99714 7.89311 2.02189 7.75761 2.07298 7.63111C2.12407 7.50461 2.20044 7.38977 2.29749 7.29354C2.39454 7.19731 2.51026 7.12169 2.63756 7.0713C2.76486 7.0209 2.9011 6.99676 3.03806 7.00035C3.17502 7.00394 3.30979 7.03521 3.43424 7.09221C3.55869 7.14922 3.67021 7.23077 3.76202 7.33196L12.0301 15.5695L20.3082 7.33196C20.5003 7.15815 20.7522 7.06451 21.0117 7.07041C21.2713 7.0763 21.5186 7.1813 21.7025 7.36366C21.8864 7.54602 21.9928 7.79175 21.9996 8.05001C22.0065 8.30827 21.9133 8.55927 21.7393 8.75102L12.7481 17.7031C12.5618 17.8897 12.3095 17.9962 12.0452 18Z" fill="#545F53"/>
</svg>
