<svg width="24" height="25" viewBox="0 0 24 25" fill="none" xmlns="http://www.w3.org/2000/svg">
<path d="M11.9548 6C12.2226 6.00112 12.479 6.10791 12.6678 6.29691L21.6691 15.249C21.7704 15.3407 21.852 15.452 21.9088 15.576C21.9657 15.7001 21.9966 15.8343 21.9997 15.9706C22.0029 16.1069 21.9781 16.2424 21.927 16.3689C21.8759 16.4954 21.7996 16.6102 21.7025 16.7065C21.6055 16.8027 21.4897 16.8783 21.3624 16.9287C21.2351 16.9791 21.0989 17.0032 20.9619 16.9997C20.825 16.9961 20.6902 16.9648 20.5658 16.9078C20.4413 16.8508 20.3298 16.7692 20.238 16.668L11.9699 8.43051L3.6918 16.668C3.49972 16.8418 3.24783 16.9355 2.98827 16.9296C2.72872 16.9237 2.48142 16.8187 2.29752 16.6363C2.11361 16.454 2.0072 16.2082 2.00035 15.95C1.99351 15.6917 2.08674 15.4407 2.26073 15.249L11.2519 6.29691C11.4382 6.11034 11.6905 6.00376 11.9548 6Z" fill="#545F53"/>
</svg>
