<svg width="22" height="22" viewBox="0 0 22 22" fill="none" xmlns="http://www.w3.org/2000/svg">
<path fill-rule="evenodd" clip-rule="evenodd" d="M0.55406 10.334C0.643856 10.4635 0.775854 10.5577 0.927433 10.6007H0.927448C1.04744 10.6007 1.12741 10.6007 1.55406 10.4407C2.11406 10.1474 3.2474 9.50741 5.7274 8.06741L0.674096 11.7473C0.535954 11.8489 0.442255 11.9998 0.412459 12.1686C0.382662 12.3375 0.419065 12.5114 0.514103 12.6541C0.508458 12.6759 0.508458 12.6989 0.514103 12.7207C0.435169 12.8126 0.380206 12.9225 0.354109 13.0407C0.339079 13.1319 0.343119 13.2252 0.366072 13.3147C0.389025 13.4042 0.430358 13.488 0.48741 13.5607C0.674077 13.8141 0.76743 13.934 1.34076 13.6807L1.84744 13.3607C2.38077 13.0807 3.18074 12.6274 4.31407 11.9607L7.83409 9.93403L6.12738 8.2274C5.98781 8.10787 5.87449 7.96077 5.79446 7.79535C5.71443 7.62994 5.66947 7.44977 5.66238 7.26614C5.65528 7.08251 5.68616 6.8994 5.7532 6.7283C5.82023 6.5572 5.92192 6.40178 6.05186 6.27184C6.1818 6.1419 6.33722 6.0402 6.50832 5.97317C6.67942 5.90614 6.86254 5.87526 7.04617 5.88235C7.22979 5.88944 7.40996 5.9344 7.57538 6.01443C7.7408 6.09446 7.8879 6.20778 8.00743 6.34736L10.9274 9.26736L13.8474 6.34736C14.0727 6.13037 14.367 5.9995 14.679 5.97757C14.991 5.95563 15.3007 6.04407 15.5541 6.2274C16.0835 5.84152 16.5627 5.49456 16.9955 5.1811L16.9959 5.18082C18.4923 4.09728 19.4357 3.41413 19.9941 2.90742L20.4874 2.62739V2.5207C20.9749 2.05953 20.9025 1.92392 20.7978 1.72778L20.7941 1.72073C20.7022 1.56515 20.5543 1.45066 20.3807 1.40074H20.2207C20.205 1.34263 20.1778 1.28824 20.1407 1.24075C20.0539 1.08712 19.9097 0.97419 19.7398 0.926703C19.5698 0.879216 19.388 0.901046 19.2341 0.987413L11.4341 5.49409L16.5274 1.77403C16.6582 1.67336 16.7478 1.52855 16.7797 1.36664C16.8116 1.20474 16.7836 1.03681 16.7008 0.894069L16.6976 0.888564C16.4999 0.545858 16.4171 0.402345 15.7407 0.707383H15.6607C15.1541 0.947383 14.3274 1.41402 12.9941 2.17402L7.20738 5.53404C9.52738 3.57404 10.7541 2.50739 11.3807 1.88072L11.6474 1.73408V1.65408C12.1175 1.15783 12.0505 1.03252 11.9473 0.839655L11.9408 0.827419C11.849 0.671842 11.7011 0.557266 11.5274 0.507351C11.3649 0.442082 11.1834 0.442082 11.0208 0.507351L10.5541 0.78738C10.4207 0.54738 10.3274 0.400733 9.74075 0.640733C9.66376 0.562846 9.5669 0.507521 9.46072 0.480739H9.46063C9.34068 0.480739 9.26064 0.480739 8.88739 0.61404H8.79405C8.43405 0.800707 7.87407 1.12069 6.90074 1.68069L7.00743 1.57408C7.09897 1.49482 7.16719 1.39207 7.20478 1.27696C7.24236 1.16186 7.24785 1.03869 7.22073 0.920681C7.19563 0.803576 7.13888 0.695674 7.05658 0.608669C6.97428 0.521665 6.86962 0.458913 6.75409 0.427354H6.75408C6.63409 0.427354 6.56739 0.427354 6.15408 0.587347H6.08743C5.79409 0.734014 5.35408 0.97405 4.66075 1.37405C4.91408 1.01405 4.86075 0.907383 4.74075 0.707383C4.6997 0.629374 4.64299 0.560707 4.57416 0.505642C4.50533 0.450577 4.42588 0.410314 4.34076 0.387396C4.20951 0.354098 4.07203 0.354098 3.94078 0.387396C3.76564 0.315529 3.5692 0.315529 3.39407 0.387396L1.18077 1.72073C1.09045 1.77441 1.0135 1.84788 0.955753 1.93565C0.898007 2.02343 0.860977 2.12321 0.847436 2.2274C0.607436 2.4674 0.607436 2.66737 0.847436 3.02737C0.940769 3.1607 1.00745 3.25405 1.11412 3.29405L0.7274 3.70738C0.62149 3.82689 0.563012 3.98105 0.563012 4.14073C0.563012 4.30041 0.62149 4.45458 0.7274 4.57408C0.793631 4.65896 0.878735 4.72718 0.975935 4.77346C1.07314 4.81975 1.17974 4.84276 1.28738 4.84068L0.820743 5.24075C0.720422 5.32493 0.647748 5.43725 0.612085 5.56326C0.576421 5.68927 0.579383 5.82311 0.620711 5.94737C0.582077 6.03332 0.562117 6.1265 0.562117 6.22073C0.562117 6.31496 0.582077 6.40814 0.620711 6.49409C0.545047 6.60637 0.504663 6.73865 0.504663 6.87405C0.504663 7.00945 0.545047 7.14173 0.620711 7.25401C0.714241 7.40051 0.860377 7.50564 1.029 7.5478C1.19761 7.58995 1.37598 7.56599 1.52745 7.48074L5.43411 5.21406L3.10077 7.45405C2.85721 7.66079 2.6341 7.84949 2.42991 8.02218L2.42989 8.02221C1.67279 8.66254 1.17582 9.08286 0.860782 9.3874C0.327449 9.9074 0.327394 10.0273 0.55406 10.334ZM21.554 4.14626L21.5533 4.14499C21.4203 3.90574 21.3394 3.76006 20.6473 4.03957V3.94623L19.7807 4.47959C18.9807 4.89293 17.794 5.5596 16.0207 6.57294C16.2005 6.82518 16.2869 7.1321 16.265 7.4411C16.2431 7.7501 16.1142 8.04185 15.9006 8.26621L12.9806 11.1862L15.3006 13.5062L21.434 8.89292C21.5712 8.79376 21.6646 8.64518 21.6944 8.47853C21.7243 8.31189 21.6883 8.14015 21.594 7.99953C21.6878 7.83334 21.7117 7.63676 21.6606 7.4529C21.6503 7.37254 21.623 7.29531 21.5806 7.22626C21.6391 7.12246 21.6698 7.00535 21.6698 6.88625C21.6698 6.76715 21.6391 6.65004 21.5806 6.54624C21.6496 6.43882 21.6862 6.31385 21.6862 6.18622C21.6862 6.05859 21.6496 5.93369 21.5806 5.82627C21.5126 5.70442 21.4041 5.6101 21.274 5.55959V5.46625C21.7007 5.09291 21.714 4.93287 21.634 4.75954C21.7494 4.54024 21.6849 4.4109 21.5964 4.23306C21.5826 4.20547 21.5683 4.17671 21.554 4.14626ZM21.1543 10.7336C21.3279 10.7836 21.4758 10.8981 21.5676 11.0536C21.5742 11.0707 21.581 11.0873 21.5876 11.1036C21.6746 11.3177 21.7422 11.4839 21.2343 11.8803C21.3454 11.9248 21.4431 11.9973 21.5179 12.0907C21.5927 12.1842 21.6419 12.2954 21.661 12.4136C21.6951 12.5357 21.6951 12.6648 21.661 12.7869C21.6772 12.9352 21.6442 13.0847 21.5671 13.2124C21.49 13.3401 21.3731 13.439 21.2343 13.4937L16.941 17.4937C18.581 16.5337 19.5143 16.0136 20.061 15.7203L20.4477 15.4937C20.7677 15.387 20.8477 15.387 20.941 15.387C21.0681 15.4235 21.182 15.4957 21.2694 15.5949C21.3569 15.6941 21.4141 15.8163 21.4343 15.9469V16.0802C21.461 16.2002 21.4209 16.3203 21.2076 16.547C21.2626 16.6089 21.3118 16.6758 21.3543 16.7469C21.4249 16.8708 21.454 17.0141 21.4372 17.1557C21.4204 17.2973 21.3586 17.4297 21.261 17.5336L20.4743 18.3736C20.9943 18.1603 21.0877 18.2936 21.2743 18.6003C21.3577 18.7395 21.3874 18.9043 21.3579 19.0638C21.3285 19.2233 21.2419 19.3667 21.1143 19.467L20.5143 19.9603L20.7143 20.307L20.0476 20.6936L20.0466 20.6942C18.2743 21.7203 18.2742 21.7203 17.9943 21.6403C17.8791 21.6025 17.7741 21.5386 17.6877 21.4536C17.4871 21.5867 17.2593 21.6733 17.021 21.707C16.8343 21.707 16.7277 21.6136 16.5943 21.3736C16.461 21.1336 16.3943 21.0003 16.8343 20.4269L17.3143 19.8403L14.2876 21.6136C14.1361 21.6989 13.9578 21.7229 13.7892 21.6807C13.6206 21.6386 13.4745 21.5335 13.3809 21.387V21.2936L12.8343 21.6136C12.56 21.6506 12.282 21.6506 12.0076 21.6136C11.8396 21.5596 11.6973 21.4457 11.6077 21.2936L11.6053 21.2894C11.5 21.1053 11.4377 20.9963 11.8876 20.467V20.387L12.1143 20.2536C12.6743 19.6136 13.861 18.4936 16.1143 16.387L7.23429 21.547C7.06726 21.613 6.88131 21.613 6.71427 21.547C6.60809 21.5202 6.51131 21.4648 6.43433 21.387L6.26099 21.4803C6.11109 21.5668 5.93384 21.5929 5.76538 21.5532C5.59692 21.5136 5.44993 21.4112 5.35433 21.2669C5.2846 21.1505 5.25203 21.0157 5.26099 20.8803L4.60767 21.2136L4.38094 21.387C3.64457 21.697 3.53407 21.5189 3.40663 21.3135C3.40254 21.3069 3.39843 21.3003 3.39429 21.2936C3.26095 21.0803 3.18095 20.9469 3.72762 20.4136V20.3469L3.96761 20.227C4.92761 19.4136 6.98099 17.8136 11.5943 14.3469C6.02099 17.5603 3.47432 19.0269 2.26099 19.6803L1.56763 20.1069C1.20763 20.2403 1.14097 20.2403 1.0743 20.2403C0.946644 20.2094 0.831251 20.1406 0.743245 20.0431C0.65524 19.9455 0.598718 19.8238 0.580973 19.6936C0.567794 19.6141 0.567794 19.5331 0.580973 19.4536C0.525115 19.4021 0.47587 19.3439 0.434326 19.2803C0.388435 19.1869 0.364583 19.0843 0.364583 18.9803C0.364583 18.8763 0.388435 18.7736 0.434326 18.6803C0.368402 18.5717 0.333496 18.4473 0.333496 18.3203C0.333496 18.1933 0.368402 18.0688 0.434326 17.9603C0.344502 17.8112 0.316502 17.633 0.356364 17.4635C0.396226 17.2941 0.500753 17.147 0.647624 17.0536H0.72762C0.598703 16.9946 0.491506 16.8966 0.42098 16.7736C0.412646 16.7469 0.404103 16.7213 0.395822 16.6965C0.337854 16.5226 0.292648 16.3869 0.42098 16.2003C0.37593 16.0645 0.374878 15.9179 0.417969 15.7814C0.46106 15.645 0.546088 15.5256 0.66097 15.4403L8.03434 10.1069L9.11434 11.1869L6.19434 14.1069C5.946 14.3567 5.80656 14.6947 5.80656 15.047C5.80656 15.3992 5.946 15.7372 6.19434 15.987C6.44415 16.2353 6.78203 16.3747 7.13428 16.3747C7.48652 16.3747 7.82448 16.2353 8.0743 15.987L10.9943 13.0802L13.101 15.1603L12.941 15.2803L13.1143 15.1736L13.9676 16.0136C14.2174 16.2619 14.5554 16.4014 14.9076 16.4014C15.2599 16.4014 15.5978 16.2619 15.8477 16.0136C16.096 15.7638 16.2354 15.4259 16.2354 15.0736C16.2354 14.7214 16.096 14.3834 15.8477 14.1336L15.501 13.7869C18.4743 12.0536 19.8209 11.2803 20.4609 10.9603L20.581 10.8803C20.9809 10.7336 21.0476 10.7336 21.1543 10.7336H21.1543Z" fill="#2E3D30"/>
</svg>
