<svg width="24" height="25" viewBox="0 0 24 25" fill="none" xmlns="http://www.w3.org/2000/svg">
<path fill-rule="evenodd" clip-rule="evenodd" d="M6 20.9976H18C19.655 20.9976 21 19.6526 21 17.9976V6.99756V5.99756C21 4.34256 19.655 2.99756 18 2.99756H6C4.345 2.99756 3 4.34256 3 5.99756V6.99756V17.9976C3 19.6526 4.345 20.9976 6 20.9976ZM19 8.99756H5V17.9976C5 18.5476 5.45 18.9976 6 18.9976H18C18.55 18.9976 19 18.5476 19 17.9976V8.99756ZM13.0347 12.1526H14.0347C14.3097 12.1526 14.5347 11.9276 14.5347 11.6526V10.6526C14.5347 10.3776 14.3097 10.1526 14.0347 10.1526H13.0297C12.7547 10.1526 12.5297 10.3776 12.5347 10.6526V11.6526C12.5347 11.9326 12.7597 12.1526 13.0347 12.1526ZM9.97469 12.1526H10.9797C11.2547 12.1526 11.4797 11.9276 11.4797 11.6526V10.6526C11.4797 10.3776 11.2547 10.1526 10.9797 10.1526H9.96969C9.69469 10.1526 9.46969 10.3826 9.47469 10.6576V11.6576C9.47469 11.9326 9.69969 12.1526 9.97469 12.1526ZM17.085 12.1526H16.085C15.81 12.1526 15.585 11.9276 15.585 11.6526V10.6526C15.585 10.3776 15.805 10.1526 16.085 10.1526H17.09C17.365 10.1526 17.59 10.3776 17.59 10.6526V11.6526C17.59 11.9276 17.365 12.1526 17.09 12.1526H17.085ZM6.91992 15.1526H7.91992H7.92492C8.19992 15.1526 8.42492 14.9276 8.42492 14.6526V13.6526C8.42492 13.3776 8.19992 13.1526 7.92492 13.1526H6.91992C6.63992 13.1526 6.41992 13.3776 6.41992 13.6526V14.6526C6.41992 14.9276 6.64492 15.1526 6.91992 15.1526ZM14.0347 15.1526H13.0347C12.7597 15.1526 12.5347 14.9326 12.5347 14.6526V13.6526C12.5297 13.3776 12.7547 13.1526 13.0297 13.1526H14.0347C14.3097 13.1526 14.5347 13.3776 14.5347 13.6526V14.6526C14.5347 14.9276 14.3097 15.1526 14.0347 15.1526ZM10.9797 15.1526H9.97469C9.69969 15.1526 9.47469 14.9326 9.47469 14.6576V13.6576C9.46969 13.3826 9.69469 13.1526 9.96969 13.1526H10.9797C11.2547 13.1526 11.4797 13.3776 11.4797 13.6526V14.6526C11.4797 14.9276 11.2547 15.1526 10.9797 15.1526ZM16.085 15.1526H17.085H17.09C17.365 15.1526 17.59 14.9276 17.59 14.6526V13.6526C17.59 13.3776 17.365 13.1526 17.09 13.1526H16.085C15.805 13.1526 15.585 13.3776 15.585 13.6526V14.6526C15.585 14.9276 15.81 15.1526 16.085 15.1526ZM7.91992 18.1526H6.91992C6.64492 18.1526 6.41992 17.9276 6.41992 17.6526V16.6526C6.41992 16.3776 6.63992 16.1526 6.91992 16.1526H7.92492C8.19992 16.1526 8.42492 16.3776 8.42492 16.6526V17.6526C8.42492 17.9276 8.19992 18.1526 7.92492 18.1526H7.91992ZM13.0347 18.1526H14.0347C14.3097 18.1526 14.5347 17.9276 14.5347 17.6526V16.6526C14.5347 16.3776 14.3097 16.1526 14.0347 16.1526H13.0297C12.7547 16.1526 12.5297 16.3776 12.5347 16.6526V17.6526C12.5347 17.9326 12.7597 18.1526 13.0347 18.1526ZM9.97469 18.1526H10.9797C11.2547 18.1526 11.4797 17.9276 11.4797 17.6526V16.6526C11.4797 16.3776 11.2547 16.1526 10.9797 16.1526H9.96969C9.69469 16.1526 9.46969 16.3826 9.47469 16.6576V17.6576C9.47469 17.9326 9.69969 18.1526 9.97469 18.1526Z" fill="#C3C6BD"/>
</svg>
