<svg width="210" height="55" viewBox="0 0 210 55" fill="none" xmlns="http://www.w3.org/2000/svg">
<path d="M205.292 40.8887C204.972 40.8887 204.741 41.042 204.498 41.3595C202.436 43.8774 199.184 46.4062 194.894 46.4062C189.58 46.4062 185.291 42.3119 185.291 36.0062C185.291 29.7004 188.544 26.3067 192.833 26.3067C195.688 26.3067 197.122 28.124 197.596 30.3244C197.673 30.7952 197.993 31.1127 198.467 31.1127C200.055 31.1127 205.612 29.0655 205.612 27.6423C205.612 22.5189 200.132 17.713 192.755 17.713C182.755 17.713 175.048 25.9893 175.048 36.7944C175.048 38.1409 175.169 39.4437 175.412 40.6807C173.526 43.8008 170.99 46.4172 168.146 46.4172C165.301 46.4172 163.934 43.5052 163.934 39.9582C163.934 33.7291 164.805 22.3 164.805 20.8002C164.805 19.4646 164.088 18.753 162.897 18.753H156.789C155.752 18.753 154.959 19.4646 154.959 20.6469V21.676L154.716 21.7526C152.257 19.5412 148.762 17.7349 143.756 17.7349C133.91 17.7349 126.765 26.0111 126.765 37.0462C126.765 38.338 126.853 39.586 127.03 40.7683C125.177 43.7132 122.608 46.4281 119.709 46.4281C116.533 46.4281 115.265 43.6694 115.265 40.0458C115.265 31.8461 116.302 7.33479 116.302 2.12381C116.302 0.788217 115.662 0 114.317 0H108.44C107.249 0 106.61 0.711584 106.61 2.04717V21.8949L106.29 21.9715C103.831 20.0776 99.3878 17.713 94.4592 17.713C83.8192 17.713 77.2257 26.6242 77.2257 36.9477C77.2257 38.2832 77.3249 39.575 77.5123 40.8121C75.6379 43.8664 73.135 46.4062 70.3234 46.4062C67.5118 46.4062 66.1115 43.4942 66.1115 39.9473C66.1115 33.7182 66.9826 22.289 66.9826 20.7892C66.9826 19.4536 66.2659 18.742 65.0751 18.742H58.9667C57.9303 18.742 57.1364 19.4536 57.1364 20.6359V21.665L56.9049 21.7416C54.4461 19.5303 50.9509 17.7239 45.9451 17.7239C36.0989 17.7239 28.9541 26.0002 28.9541 37.0352C28.9541 38.2942 29.0423 39.5094 29.2077 40.6698C27.2782 43.6365 24.3232 46.4172 20.3759 46.4172C15.2158 46.4172 13.6281 42.8702 13.6281 36.882V26.6352C16.2522 26.6352 19.1851 26.7118 21.0154 26.7118C21.8865 26.7118 22.3606 26.3943 22.3606 25.2886V20.4827C22.3606 19.6178 21.8093 19.2237 21.0926 19.2237C19.1851 19.2237 16.175 19.3004 13.6281 19.377V10.2249C13.6281 8.88933 12.9886 8.10112 11.7206 8.10112H5.71143C4.52063 8.10112 3.80395 8.88933 3.80395 10.2249V19.2128H1.43337C0.396934 19.2128 0 19.8477 0 20.7126V25.1244C0 26.3067 0.551297 26.7008 1.7421 26.7008H3.80395V40.8121C3.80395 49.3292 9.68077 55 18.3361 55C24.5548 55 29.0864 52.285 32.2178 48.7819C34.8861 52.6901 39.0428 55 44.214 55C51.1162 55 55.5707 51.2122 57.5554 46.877L57.8751 46.9536V47.7418C57.8751 52.3179 61.9988 54.9891 67.7213 54.9891C73.4438 54.9891 77.5675 52.1865 80.5334 48.7709C83.1907 52.6463 87.3475 54.9891 92.6509 54.9891C99.476 54.9891 103.842 50.6539 105.827 46.4719L106.147 46.5486V47.1835C106.147 51.9128 110.756 54.9891 117.338 54.9891C122.664 54.9891 126.964 52.3288 130.062 48.8256C132.73 52.701 136.876 54.9891 142.025 54.9891C148.927 54.9891 153.382 51.2012 155.366 46.866L155.686 46.9427V47.7309C155.686 52.3069 159.81 54.9781 165.532 54.9781C171.255 54.9781 175.842 51.869 178.83 48.2016C182.115 52.4273 187.287 54.9781 193.241 54.9781C202.524 54.9781 207.133 50.1722 209.68 46.2311C209.923 45.7604 210 45.5195 210 45.202C210 44.2606 205.953 40.8668 205.314 40.8668L205.292 40.8887ZM46.2759 46.4062C42.1522 46.4062 39.2082 42.8593 39.2082 37.5826C39.2082 30.9594 43.5745 26.3067 49.3741 26.3067C52.6268 26.3067 55.4825 28.2006 57.1585 29.7771C57.1585 35.7653 53.7404 46.4062 46.2869 46.4062H46.2759ZM94.7018 46.4062C90.4127 46.4062 87.4798 42.9359 87.4798 37.495C87.4798 30.9484 91.846 26.2958 97.6457 26.2958C100.898 26.2958 103.754 28.1897 105.43 29.7661C105.43 36.2251 101.703 46.3953 94.7128 46.3953L94.7018 46.4062ZM144.076 46.4062C139.952 46.4062 137.008 42.8593 137.008 37.5826C137.008 30.9594 141.375 26.3067 147.174 26.3067C150.427 26.3067 153.283 28.2006 154.959 29.7771C154.959 35.7653 151.54 46.4062 144.076 46.4062Z" fill="#FEFDFA" fill-opacity="0.1"/>
</svg>
