<svg width="24" height="24" viewBox="0 0 24 24" fill="none" xmlns="http://www.w3.org/2000/svg">
<path d="M18.365 6.5092C17.975 6.11924 17.34 6.11924 16.95 6.5092C16.56 6.89916 16.56 7.53409 16.95 7.92405C18.27 9.2439 19 11.0037 19 12.8735C19 16.7331 15.86 19.8728 12 19.8728C8.14 19.8728 5 16.7331 5 12.8735C5 9.57387 7.3 6.80417 10.38 6.06925V6.96915C10.38 7.34911 10.595 7.69407 10.935 7.86405C11.075 7.93405 11.23 7.96904 11.38 7.96904C11.59 7.96904 11.805 7.89905 11.98 7.76906L14.55 5.83927C14.8 5.64929 14.95 5.35432 14.95 5.03936C14.95 4.72439 14.8 4.42942 14.55 4.23944L11.98 2.30965C11.675 2.07967 11.27 2.04468 10.935 2.21466C10.6 2.38464 10.38 2.7296 10.38 3.10956V4.01947C6.19 4.78438 3 8.45399 3 12.8635C3 17.823 7.04 21.8626 12 21.8626C16.96 21.8626 21 17.823 21 12.8635C21 10.4588 20.065 8.19902 18.365 6.4992V6.5092Z" fill="#C3C6BD"/>
</svg>
