<svg width="25" height="25" viewBox="0 0 25 25" fill="none" xmlns="http://www.w3.org/2000/svg">
<path d="M22.2716 10.6101C22.2003 10.5056 22.092 10.4321 21.9686 10.4043C21.8452 10.3764 21.7159 10.3964 21.6066 10.4602L18.0316 12.5251L20.8466 10.2451C20.9424 10.1653 21.0048 10.0526 21.0218 9.92904C21.0387 9.80551 21.0089 9.68009 20.9381 9.57742C20.8674 9.47474 20.7608 9.40222 20.6394 9.37405C20.5179 9.34588 20.3903 9.36408 20.2816 9.42513L16.4716 11.6251L19.3166 9.00515C19.4062 8.92208 19.4623 8.80906 19.4743 8.68746C19.4862 8.56586 19.4532 8.44407 19.3816 8.34512C19.309 8.24488 19.2019 8.17511 19.081 8.14925C18.96 8.1234 18.8337 8.14333 18.7266 8.20516L16.9616 9.20516L18.1966 8.12515C18.2916 8.04377 18.3526 7.92971 18.3677 7.8055C18.3828 7.6813 18.3508 7.55597 18.2779 7.45425C18.2051 7.35252 18.0967 7.28182 17.9743 7.25607C17.8518 7.23031 17.7242 7.25139 17.6165 7.31515L14.9066 8.88015L15.6165 7.99514C15.7124 7.97432 15.8 7.92579 15.8685 7.85555C15.937 7.78532 15.9832 7.69646 16.0016 7.60012C16.004 7.57184 16.004 7.54344 16.0016 7.51516L16.6066 6.76015C16.679 6.66914 16.7174 6.55575 16.7152 6.43948C16.713 6.32321 16.6703 6.21134 16.5945 6.12313C16.5187 6.03492 16.4146 5.97584 16.3 5.95614C16.1853 5.93643 16.0675 5.95732 15.9666 6.01516L14.5616 6.82516L15.3416 5.73513C15.4071 5.64197 15.4388 5.52926 15.4315 5.41561C15.4243 5.30196 15.3785 5.19418 15.3016 5.11013C15.2252 5.02513 15.1221 4.96884 15.0092 4.95065C14.8964 4.93245 14.7808 4.95347 14.6815 5.01016L13.9915 5.41012L14.2666 4.85012C14.3128 4.75389 14.3271 4.6454 14.3072 4.54049C14.2873 4.43558 14.2344 4.33977 14.1562 4.26711C14.0779 4.19446 13.9785 4.1488 13.8724 4.13674C13.7663 4.12469 13.6591 4.14691 13.5666 4.20016L12.5666 4.76516C12.4797 4.81665 12.4105 4.89323 12.368 4.98483C12.3255 5.07642 12.3117 5.17871 12.3285 5.27828C12.3453 5.37785 12.3918 5.47001 12.4619 5.54263C12.5321 5.61524 12.6226 5.66495 12.7216 5.68514L12.3516 6.44515C12.3048 6.54158 12.2902 6.65043 12.31 6.75576C12.3298 6.86109 12.383 6.95727 12.4616 7.03011C12.5401 7.10255 12.6397 7.14793 12.7459 7.15963C12.852 7.17133 12.9592 7.14872 13.0516 7.09512L13.1716 7.02511L12.9016 7.41012L12.2816 7.50515C12.1789 7.52116 12.0837 7.56874 12.0094 7.64132C11.935 7.7139 11.885 7.80785 11.8665 7.91012C11.8527 8.00784 11.8682 8.10746 11.9109 8.19643C11.9536 8.28541 12.0217 8.35977 12.1066 8.41012L12.3316 8.54012C12.3498 8.60734 12.3841 8.6691 12.4315 8.72012L10.3816 8.38015C10.2661 8.36067 10.1475 8.38226 10.0464 8.44125C9.9453 8.50023 9.86814 8.59284 9.82828 8.7029C9.78842 8.81297 9.78838 8.93355 9.82828 9.0436C9.86817 9.15365 9.94547 9.24619 10.0466 9.30514L11.7116 10.2702L8.71158 9.46511C8.5947 9.43431 8.47059 9.44694 8.36227 9.50057C8.25396 9.5542 8.16876 9.64524 8.1224 9.75686C8.07605 9.86848 8.07168 9.9931 8.11014 10.1077C8.14859 10.2223 8.22726 10.3191 8.33157 10.3801L10.8316 11.8151L7.40158 10.7102C7.29001 10.6642 7.16558 10.6601 7.05124 10.6986C6.93689 10.7372 6.84031 10.8158 6.77939 10.92C6.71847 11.0242 6.6973 11.1468 6.71976 11.2654C6.74221 11.384 6.80679 11.4905 6.90158 11.5651L6.77157 11.5152C6.65315 11.4708 6.52232 11.4729 6.40542 11.5211C6.28853 11.5694 6.19423 11.6601 6.14157 11.7751C6.08867 11.8887 6.08041 12.0181 6.11838 12.1376C6.15634 12.2571 6.23779 12.3579 6.34659 12.4201L7.76657 13.2401L5.96658 12.9301C5.85124 12.9101 5.73249 12.9311 5.63107 12.9896C5.52965 13.0481 5.452 13.1403 5.41159 13.2501C5.37114 13.3607 5.37104 13.4821 5.41128 13.5927C5.45153 13.7034 5.52951 13.7963 5.63156 13.8551L6.72159 14.4851H5.43655C5.32584 14.4844 5.21802 14.5204 5.12997 14.5875C5.04192 14.6546 4.97864 14.749 4.95004 14.856C4.92144 14.9629 4.92915 15.0763 4.97195 15.1784C5.01476 15.2805 5.09023 15.3655 5.18655 15.4201L6.18655 15.9851L5.04159 16.3852C4.95179 16.4172 4.87301 16.4742 4.81454 16.5495C4.75608 16.6248 4.72034 16.7152 4.71158 16.8101C4.69824 16.9084 4.7144 17.0083 4.75802 17.0974C4.80165 17.1864 4.87076 17.2605 4.95657 17.3101L6.04159 17.9351C6.09836 17.9684 6.1611 17.9902 6.22629 17.9991C6.29147 18.0081 6.35778 18.004 6.42142 17.9873C6.48505 17.9706 6.54477 17.9415 6.59714 17.9016C6.6495 17.8618 6.69351 17.812 6.72659 17.7551C6.75965 17.6981 6.78105 17.6351 6.78964 17.5697C6.79823 17.5043 6.79384 17.4378 6.77664 17.3741C6.75944 17.3104 6.72982 17.2508 6.68948 17.1986C6.64914 17.1465 6.59889 17.1028 6.54159 17.0702L6.40158 16.9901L7.54159 16.5852C7.63195 16.5536 7.7113 16.4967 7.77029 16.4213C7.82929 16.3459 7.86541 16.2552 7.87436 16.1599C7.88331 16.0646 7.86476 15.9687 7.82083 15.8837C7.7769 15.7986 7.70945 15.728 7.62655 15.6801L7.32156 15.5051H8.6066C8.7173 15.5059 8.82513 15.4699 8.91318 15.4028C9.00123 15.3357 9.06451 15.2413 9.09311 15.1343C9.1217 15.0273 9.114 14.914 9.0712 14.8119C9.02839 14.7098 8.95292 14.6247 8.8566 14.5702L8.58157 14.4101L10.3816 14.7201C10.4969 14.7402 10.6156 14.7192 10.7171 14.6607C10.8185 14.6023 10.8961 14.51 10.9366 14.4001C10.9619 14.3228 10.9705 14.241 10.9616 14.1601L12.1266 14.5951C12.2149 14.6199 12.3083 14.6199 12.3966 14.5951C12.4689 14.6941 12.5751 14.763 12.6949 14.7888C12.8147 14.8147 12.9399 14.7955 13.0466 14.7351L14.3166 14.0001L14.5166 14.0651L12.4816 15.7151C12.3847 15.7946 12.3211 15.9076 12.3035 16.0316C12.2859 16.1557 12.3155 16.2819 12.3866 16.3852C12.4577 16.4883 12.5651 16.561 12.6873 16.5888C12.8096 16.6165 12.9378 16.5974 13.0466 16.5351L16.6666 14.4502L12.5666 17.7801C12.4856 17.845 12.4269 17.9335 12.3985 18.0333C12.3701 18.1331 12.3735 18.2392 12.4081 18.337C12.4427 18.4348 12.5069 18.5194 12.5917 18.5791C12.6765 18.6388 12.7778 18.6706 12.8816 18.6701C12.9696 18.6692 13.0558 18.6451 13.1316 18.6001L18.7266 15.3701C18.7863 15.3389 18.8391 15.2959 18.8818 15.2437C18.9245 15.1915 18.9562 15.1312 18.975 15.0664C18.9938 15.0017 18.9993 14.9337 18.9912 14.8668C18.983 14.7998 18.9614 14.7353 18.9277 14.6769C18.894 14.6185 18.8487 14.5675 18.7948 14.5271C18.7408 14.4866 18.6792 14.4575 18.6137 14.4414C18.5482 14.4254 18.4802 14.4228 18.4137 14.4337C18.3471 14.4447 18.2835 14.469 18.2266 14.5051L18.0716 14.5951L22.1716 11.2652C22.2653 11.187 22.3272 11.0772 22.3457 10.9566C22.3641 10.8359 22.3377 10.7127 22.2716 10.6101ZM13.6266 12.3051L14.1666 11.9951L14.4965 12.0802L13.9965 12.5301L13.6266 12.3051ZM12.7266 11.6051L12.6016 11.7151L12.1416 11.4502L12.7266 11.6051ZM12.6466 13.7851C12.6173 13.7542 12.5856 13.7258 12.5516 13.7002L11.5516 13.1352L12.8715 13.5601L12.6466 13.7851Z" fill="#545F53"/>
</svg>
