<svg width="24" height="25" viewBox="0 0 24 25" fill="none" xmlns="http://www.w3.org/2000/svg">
<path fill-rule="evenodd" clip-rule="evenodd" d="M21.3151 14.1134C21.4365 14.1637 21.5467 14.2375 21.6396 14.3305C21.736 14.4208 21.8136 14.5293 21.8678 14.6497C21.922 14.7702 21.9519 14.9002 21.9556 15.0322C21.9593 15.1642 21.9368 15.2956 21.8895 15.4189C21.8421 15.5422 21.7708 15.6549 21.6796 15.7505L19.8546 17.6155C19.9198 17.7303 19.937 17.8662 19.9023 17.9936C19.8676 18.121 19.784 18.2295 19.6696 18.2955L18.5296 18.9555C18.4299 19.0134 18.3132 19.0352 18.1993 19.017C18.0854 18.9988 17.9813 18.9417 17.9046 18.8555C17.8549 18.7997 17.8183 18.7335 17.7975 18.6616C17.7767 18.5898 17.7723 18.5143 17.7846 18.4405C17.6841 18.4827 17.5725 18.4908 17.4669 18.4638C17.3613 18.4367 17.2674 18.3758 17.1996 18.2905C17.1323 18.2031 17.0958 18.0958 17.0958 17.9855C17.0958 17.8752 17.1323 17.7679 17.1996 17.6805L15.2946 15.7355C15.109 15.5459 15.0062 15.2902 15.009 15.0249C15.0119 14.7595 15.12 14.5062 15.3096 14.3205C15.4992 14.1349 15.7548 14.0321 16.0202 14.0349C16.2856 14.0377 16.539 14.1458 16.7246 14.3355L17.3546 14.9805L17.4596 14.8555C17.3375 14.8448 17.2237 14.7896 17.1396 14.7005C17.0614 14.6202 17.0124 14.5158 17.0006 14.4043C16.9888 14.2927 17.0149 14.1804 17.0746 14.0855L17.9546 12.7005L17.7496 12.8205C17.6562 12.8742 17.548 12.8963 17.441 12.8836C17.3341 12.8708 17.2341 12.8238 17.156 12.7496C17.0779 12.6755 17.0259 12.578 17.0076 12.4719C16.9893 12.3657 17.0058 12.2565 17.0546 12.1605L18.2646 9.77046L17.7646 10.0705C17.6691 10.1258 17.5579 10.148 17.4485 10.1335C17.3391 10.119 17.2375 10.0687 17.1596 9.99049C17.0825 9.91298 17.033 9.81236 17.0185 9.70399C17.0041 9.59563 17.0255 9.48552 17.0796 9.39052L17.9396 7.86049L17.7596 7.96547C17.6658 8.0205 17.5566 8.04347 17.4486 8.03084C17.3405 8.0182 17.2396 7.97066 17.161 7.89546C17.0824 7.82026 17.0305 7.72152 17.0131 7.61415C16.9957 7.50677 17.0137 7.39665 17.0646 7.30049L17.3396 6.80049L16.9046 7.05049C16.8112 7.10464 16.7027 7.12707 16.5955 7.11445C16.4882 7.10184 16.3879 7.05484 16.3096 6.98048C16.2304 6.90573 16.1778 6.80718 16.1597 6.69978C16.1417 6.59239 16.1592 6.48205 16.2096 6.38551L16.3396 6.13551L14.7746 7.04048C14.6621 7.1054 14.5287 7.12397 14.4027 7.09224C14.2767 7.06051 14.168 6.98098 14.0996 6.8705L13.1396 5.3105L10.1396 7.04048C10.0511 7.09115 9.94916 7.11353 9.84754 7.10463C9.74593 7.09572 9.64948 7.05597 9.57112 6.99067C9.49276 6.92537 9.43628 6.83767 9.40919 6.73933C9.38211 6.64099 9.38575 6.53672 9.41963 6.4405L9.66462 5.7505L8.5196 6.41047C8.41772 6.47085 8.29774 6.49311 8.18098 6.47328C8.06422 6.45345 7.95826 6.39283 7.88203 6.3022C7.8058 6.21156 7.76425 6.09678 7.76472 5.97835C7.76519 5.85991 7.80765 5.7455 7.88459 5.65547C7.85899 5.62852 7.83713 5.59828 7.81959 5.5655C7.78632 5.50873 7.76458 5.44594 7.75563 5.38075C7.74667 5.31557 7.75068 5.24926 7.76741 5.18562C7.78413 5.12198 7.81325 5.06226 7.8531 5.0099C7.89294 4.95754 7.94271 4.91359 7.99958 4.88051L9.17463 4.20546C9.27645 4.14596 9.39602 4.12442 9.51222 4.14454C9.62841 4.16467 9.7337 4.22523 9.80958 4.3155C9.84447 4.35968 9.8731 4.40844 9.8946 4.46046L10.3396 4.20546C10.4282 4.15301 10.5309 4.12921 10.6335 4.13728C10.7361 4.14535 10.8338 4.18492 10.9131 4.25056C10.9924 4.3162 11.0495 4.40472 11.0766 4.50404C11.1037 4.60336 11.0995 4.70865 11.0646 4.80549L10.8146 5.4955L13.0496 4.20546C13.1622 4.14054 13.2955 4.12203 13.4215 4.15376C13.5475 4.18549 13.6562 4.26502 13.7246 4.3755L14.6896 5.93049L17.3196 4.43049C17.4135 4.37513 17.523 4.352 17.6314 4.36464C17.7397 4.37727 17.8409 4.425 17.9196 4.5005C17.998 4.57586 18.0496 4.67469 18.0668 4.78206C18.0839 4.88942 18.0656 4.99945 18.0146 5.09547L17.8846 5.34547L18.3346 5.08546C18.4284 5.03252 18.5367 5.01127 18.6435 5.02485C18.7503 5.03843 18.8499 5.08612 18.9274 5.16084C19.005 5.23556 19.0563 5.33329 19.0738 5.43953C19.0913 5.54576 19.0741 5.65486 19.0246 5.7505L18.7546 6.2505L19.0146 6.10048C19.1097 6.04548 19.2202 6.02334 19.3291 6.03743C19.438 6.05151 19.5393 6.10104 19.6173 6.17842C19.6952 6.2558 19.7455 6.35671 19.7604 6.46553C19.7753 6.57435 19.7539 6.685 19.6996 6.78047L18.8396 8.28047L19.2246 8.0605C19.3181 8.00635 19.4265 7.98392 19.5338 7.99653C19.641 8.00915 19.7413 8.05615 19.8196 8.13051C19.8977 8.20491 19.9496 8.30256 19.9676 8.40889C19.9856 8.51522 19.9688 8.6245 19.9196 8.72047L18.7096 11.1105L19.2096 10.8105C19.3068 10.7541 19.4203 10.7322 19.5315 10.7482C19.6427 10.7642 19.7453 10.8172 19.8228 10.8986C19.9002 10.9801 19.9479 11.0853 19.9582 11.1972C19.9685 11.3091 19.9408 11.4213 19.8796 11.5155L18.9996 12.9005L19.2096 12.7805C19.3109 12.7223 19.4294 12.7015 19.5445 12.7216C19.6596 12.7417 19.764 12.8015 19.8396 12.8905C19.9144 12.9804 19.9554 13.0935 19.9554 13.2105C19.9554 13.3274 19.9144 13.4406 19.8396 13.5305L19.4946 13.9455C19.5759 13.9529 19.6543 13.9802 19.7227 14.0249C19.7911 14.0696 19.8474 14.1303 19.8869 14.2019C19.9264 14.2734 19.9477 14.3536 19.949 14.4353C19.9504 14.5169 19.9317 14.5977 19.8946 14.6705L20.2246 14.3305C20.3175 14.2375 20.4277 14.1637 20.5491 14.1134C20.6705 14.0631 20.8007 14.0372 20.9321 14.0372C21.0635 14.0372 21.1937 14.0631 21.3151 14.1134ZM5.97974 8.51071L5.75971 8.9407C5.75971 8.9407 6.56474 9.02066 6.35474 10.0907C6.44114 10.0635 6.53328 10.0604 6.62134 10.0815C6.7094 10.1026 6.79008 10.1473 6.85474 10.2107C6.93337 10.2895 6.98343 10.3923 6.99701 10.5028C7.0106 10.6133 6.98695 10.7252 6.92975 10.8207L5.92975 12.5157L6.2497 12.3307C6.35523 12.2692 6.47963 12.2485 6.59937 12.2725C6.71911 12.2964 6.82594 12.3634 6.89972 12.4607C6.97327 12.5579 7.00879 12.6786 6.99958 12.8001C6.99037 12.9217 6.93708 13.0357 6.84974 13.1207L6.8147 13.1557L6.86969 13.2057C6.94607 13.2888 6.99214 13.3953 7.00031 13.5078C7.00848 13.6204 6.97831 13.7325 6.91474 13.8257L6.15473 14.9557L6.2497 14.9007C6.34104 14.8476 6.44691 14.8248 6.55201 14.8356C6.6571 14.8464 6.75606 14.8901 6.83472 14.9607C6.91367 15.031 6.96833 15.1246 6.99079 15.2279C7.01325 15.3312 7.00235 15.4389 6.95972 15.5357L6.24469 17.1607L6.6847 16.9107C6.76472 16.86 6.8575 16.8331 6.95221 16.8331C7.04693 16.8331 7.13971 16.86 7.21973 16.9107C7.29912 16.965 7.36113 17.041 7.39838 17.1297C7.43563 17.2184 7.44655 17.316 7.42975 17.4107L7.26471 18.3707L9.4997 17.0807C9.57571 17.0368 9.66193 17.0137 9.7497 17.0137C9.83747 17.0137 9.92369 17.0368 9.9997 17.0807C10.0762 17.1236 10.1401 17.186 10.1848 17.2615C10.2296 17.337 10.2537 17.423 10.2547 17.5107V18.6307L12.9298 17.0857C13.0348 17.0256 13.158 17.0057 13.2766 17.0296C13.3952 17.0535 13.5011 17.1196 13.5747 17.2157C13.6338 17.2901 13.6688 17.3808 13.6747 17.4757L14.3547 17.0857C14.439 17.0377 14.5354 17.0153 14.6322 17.0211C14.729 17.027 14.822 17.0608 14.8999 17.1186C14.9778 17.1763 15.0372 17.2555 15.0709 17.3464C15.1046 17.4373 15.1112 17.5361 15.0897 17.6307L14.8947 18.4757L15.5447 18.1007C15.6017 18.0645 15.6653 18.0402 15.7318 18.0293C15.7984 18.0183 15.8664 18.021 15.9319 18.037C15.9974 18.0531 16.059 18.0822 16.1129 18.1226C16.1669 18.1631 16.2121 18.214 16.2459 18.2724C16.2796 18.3308 16.3012 18.3954 16.3093 18.4624C16.3175 18.5293 16.3119 18.5972 16.2932 18.662C16.2744 18.7267 16.2427 18.787 16.2 18.8392C16.1573 18.8914 16.1045 18.9344 16.0447 18.9657L14.3897 19.9207C14.305 19.9692 14.208 19.9919 14.1106 19.986C14.0132 19.98 13.9196 19.9457 13.8414 19.8872C13.7633 19.8288 13.704 19.7487 13.6708 19.6569C13.6376 19.5651 13.632 19.4656 13.6547 19.3707L13.8547 18.5307L11.4447 19.9207C11.3685 19.9639 11.2823 19.9863 11.1947 19.9857C11.1175 19.9863 11.0412 19.969 10.9718 19.9351C10.9024 19.9013 10.8418 19.8519 10.7947 19.7907C10.7375 19.7152 10.7027 19.6251 10.6947 19.5307L10.0147 19.9207C9.93871 19.9646 9.85248 19.9877 9.76471 19.9877C9.67695 19.9877 9.59072 19.9646 9.51471 19.9207C9.43894 19.8781 9.37559 19.8166 9.33088 19.742C9.28616 19.6675 9.26161 19.5826 9.25971 19.4957V18.3757L6.83973 19.7707C6.75971 19.8213 6.66692 19.8482 6.57221 19.8482C6.4775 19.8482 6.38477 19.8213 6.30475 19.7707C6.22536 19.7163 6.16329 19.6403 6.12604 19.5516C6.08879 19.4629 6.07793 19.3654 6.09473 19.2707L6.25971 18.3107L5.41974 18.8107C5.3284 18.8638 5.2226 18.8865 5.1175 18.8758C5.0124 18.865 4.91339 18.8212 4.83472 18.7507C4.75577 18.6804 4.70111 18.5869 4.67865 18.4835C4.6562 18.3802 4.66709 18.2724 4.70972 18.1757L5.42475 16.5507L4.77472 16.9257C4.67656 16.9817 4.56231 17.0028 4.45063 16.9855C4.33894 16.9682 4.23642 16.9137 4.15973 16.8307C4.08336 16.7476 4.03735 16.6411 4.02918 16.5285C4.02101 16.416 4.05117 16.3039 4.11475 16.2107L4.8747 15.0807L4.77472 15.1357C4.66943 15.1928 4.54712 15.2102 4.43006 15.1848C4.313 15.1593 4.20898 15.0927 4.13691 14.997C4.06484 14.9013 4.0295 14.783 4.03736 14.6634C4.04522 14.5439 4.09578 14.4311 4.17975 14.3457L4.21473 14.3107L4.16974 14.2757C4.09111 14.1968 4.041 14.094 4.02741 13.9835C4.01382 13.873 4.03754 13.7612 4.09473 13.6657L5.09473 11.9707L4.76972 12.1557C4.67051 12.2124 4.55489 12.2334 4.44208 12.2152C4.32927 12.197 4.22608 12.1407 4.14972 12.0557C4.07312 11.9701 4.0283 11.8607 4.02283 11.746C4.01737 11.6313 4.05157 11.5182 4.11969 11.4257L4.67975 10.6657C4.5938 10.6935 4.50186 10.6975 4.41382 10.6772C4.32578 10.657 4.24493 10.6132 4.17975 10.5507C4.1025 10.4757 4.05148 10.3778 4.03437 10.2715C4.01725 10.1651 4.03492 10.0561 4.08472 9.96066L4.60975 8.96066L3.76972 9.82071C3.67994 9.92197 3.57052 10.0039 3.44812 10.0617C3.32573 10.1194 3.19293 10.1517 3.05768 10.1566C2.92244 10.1615 2.78757 10.1389 2.66132 10.0902C2.53507 10.0414 2.42006 9.96758 2.32319 9.87307C2.22631 9.77857 2.14963 9.66544 2.09778 9.54043C2.04593 9.41543 2.02 9.28116 2.02155 9.14584C2.0231 9.01052 2.05206 8.87693 2.10675 8.75314C2.16145 8.62935 2.24072 8.51795 2.33973 8.42568L4.15973 6.56069C4.12647 6.50393 4.10473 6.44113 4.09577 6.37594C4.08681 6.31076 4.09083 6.24445 4.10755 6.18081C4.12427 6.11717 4.1534 6.05745 4.19324 6.00509C4.23309 5.95273 4.28285 5.90878 4.33973 5.8757L5.47474 5.22067C5.57131 5.16472 5.68383 5.1427 5.79438 5.15811C5.90492 5.17351 6.00712 5.22547 6.08472 5.30569C6.15243 5.3771 6.19758 5.46692 6.21448 5.56387C6.23138 5.66082 6.21931 5.76056 6.17975 5.85067L6.2547 5.91568L6.32972 5.99569C6.41436 5.96597 6.50548 5.95954 6.59345 5.97714C6.68142 5.99473 6.76301 6.03568 6.82972 6.09567C6.89979 6.16444 6.94806 6.25232 6.96851 6.34835C6.98896 6.44438 6.98067 6.54435 6.94471 6.63571L8.71473 8.4457C8.81374 8.53797 8.893 8.64937 8.9477 8.77316C9.00239 8.89695 9.03136 9.03054 9.0329 9.16586C9.03445 9.30118 9.00852 9.43538 8.95667 9.56039C8.90482 9.6854 8.82814 9.79859 8.73127 9.89309C8.63439 9.98759 8.51938 10.0615 8.39313 10.1102C8.26688 10.1589 8.13201 10.1815 7.99677 10.1766C7.86153 10.1717 7.72872 10.1394 7.60633 10.0817C7.48393 10.0239 7.37451 9.94193 7.28473 9.84066L5.97974 8.51071Z" fill="#545F53"/>
</svg>
