<svg width="24" height="25" viewBox="0 0 24 25" fill="none" xmlns="http://www.w3.org/2000/svg">
<path d="M7.5 12.0269C7.50071 11.8662 7.56867 11.7124 7.68894 11.5991L13.3857 6.19832C13.4441 6.13751 13.5149 6.08858 13.5938 6.05447C13.6728 6.02036 13.7582 6.00179 13.8449 5.99991C13.9317 5.99804 14.0179 6.01289 14.0984 6.04354C14.1789 6.0742 14.252 6.12002 14.3132 6.17825C14.3744 6.23648 14.4226 6.30591 14.4546 6.38229C14.4867 6.45867 14.5021 6.54042 14.4998 6.62259C14.4975 6.70477 14.4776 6.78563 14.4413 6.8603C14.405 6.93497 14.3531 7.00188 14.2888 7.05697L9.04669 12.0178L14.2888 16.9847C14.3994 17.0999 14.4589 17.2511 14.4552 17.4068C14.4514 17.5625 14.3846 17.7109 14.2686 17.8212C14.1525 17.9316 13.9962 17.9954 13.8318 17.9995C13.6675 18.0037 13.5077 17.9477 13.3857 17.8433L7.68894 12.4486C7.57022 12.3368 7.50239 12.1855 7.5 12.0269Z" fill="#545F53"/>
</svg>
