<svg width="24" height="25" viewBox="0 0 24 25" fill="none" xmlns="http://www.w3.org/2000/svg">
<path d="M16.5 11.9726C16.4993 12.1333 16.4313 12.2871 16.3111 12.4004L10.6143 17.8012C10.5559 17.862 10.4851 17.9109 10.4062 17.945C10.3272 17.9791 10.2418 17.9977 10.1551 17.9996C10.0683 18.0015 9.98211 17.9866 9.90162 17.956C9.82112 17.9253 9.74804 17.8795 9.6868 17.8213C9.62556 17.763 9.57744 17.6936 9.54537 17.6172C9.5133 17.5408 9.49794 17.4591 9.50022 17.3769C9.50251 17.2947 9.52241 17.2139 9.55868 17.1392C9.59496 17.0645 9.64686 16.9976 9.71125 16.9425L14.9533 11.9817L9.71125 7.01484C9.60064 6.89959 9.54105 6.74845 9.5448 6.59272C9.54856 6.43698 9.61537 6.28861 9.73142 6.17826C9.84746 6.06792 10.0038 6.00407 10.1682 5.99996C10.3325 5.99586 10.4923 6.0518 10.6143 6.15619L16.3111 11.5509C16.4298 11.6627 16.4976 11.8141 16.5 11.9726Z" fill="#545F53"/>
</svg>
