<svg width="24" height="25" viewBox="0 0 24 25" fill="none" xmlns="http://www.w3.org/2000/svg">
<path d="M20.5887 11.7026C20.5177 11.6271 20.4232 11.5779 20.3207 11.5628C20.2181 11.5478 20.1135 11.5679 20.0238 11.6199L19.4083 11.9782L20.1937 10.0629C20.2298 9.97406 20.2371 9.87622 20.2147 9.78303C20.1923 9.68984 20.1414 9.60601 20.069 9.54323C19.9966 9.48045 19.9064 9.44189 19.811 9.43295C19.7155 9.424 19.6197 9.44509 19.5369 9.49333L18.779 9.95264L19.0363 8.31753C19.0517 8.23053 19.0417 8.14092 19.0075 8.05945C18.9733 7.97798 18.9163 7.90812 18.8433 7.85822C18.772 7.80818 18.688 7.77942 18.601 7.77536C18.5139 7.77129 18.4276 7.79206 18.3519 7.83524L17.3185 8.43696C17.2134 8.49755 17.1366 8.59719 17.1047 8.71421C17.0729 8.83124 17.0886 8.95614 17.1485 9.06161C17.1785 9.11424 17.2186 9.1604 17.2665 9.19746C17.3145 9.23452 17.3693 9.26173 17.4278 9.27753C17.4863 9.29332 17.5473 9.29742 17.6074 9.28952C17.6674 9.28163 17.7253 9.26192 17.7778 9.23155L17.9798 9.11672L17.7181 10.7518C17.7066 10.8369 17.7192 10.9234 17.7544 11.0016C17.7897 11.0798 17.8461 11.1467 17.9173 11.1945C17.9886 11.2423 18.0717 11.2692 18.1575 11.2721C18.2432 11.2751 18.3281 11.2539 18.4024 11.2111L18.8341 10.9586L18.0487 12.8738C18.0127 12.9626 18.0053 13.0605 18.0277 13.1537C18.0501 13.2469 18.101 13.3307 18.1734 13.3935C18.2458 13.4563 18.3361 13.4949 18.4315 13.5038C18.5269 13.5127 18.6228 13.4916 18.7056 13.4434L18.802 13.3882L17.2082 15.7996C17.1679 15.8694 17.1467 15.9486 17.1467 16.0293C17.1467 16.1099 17.1679 16.1891 17.2082 16.2589L16.3447 16.9341C16.272 16.9922 16.2186 17.071 16.1917 17.1602C16.1647 17.2493 16.1655 17.3445 16.1939 17.4332C16.2223 17.5218 16.2769 17.5997 16.3506 17.6566C16.4243 17.7135 16.5135 17.7466 16.6065 17.7517L12.2799 20.2503L12.1972 19.1618C12.1914 19.0841 12.1659 19.0092 12.1233 18.9441C12.0806 18.879 12.022 18.8258 11.9532 18.7895C11.8843 18.7533 11.8073 18.7351 11.7295 18.7367C11.6517 18.7384 11.5755 18.7598 11.5082 18.7989L10.3278 19.4787L10.5023 19.0745C10.5399 18.9857 10.5486 18.8874 10.5271 18.7934C10.5057 18.6994 10.4552 18.6146 10.3829 18.5509C10.311 18.4871 10.2209 18.4475 10.1253 18.4376C10.0298 18.4277 9.93352 18.448 9.85011 18.4957L8.49517 19.2812L8.25632 17.5404C8.24669 17.4652 8.21855 17.3935 8.17447 17.3318C8.13038 17.2701 8.07171 17.2202 8.00368 17.1867C7.93723 17.1513 7.86311 17.1329 7.78782 17.1329C7.71253 17.1329 7.63841 17.1513 7.57196 17.1867L6.80949 17.646L7.06214 16.2681C7.07853 16.182 7.06991 16.093 7.03735 16.0116C7.0048 15.9302 6.94966 15.8599 6.8784 15.8088C6.80439 15.7613 6.71829 15.7361 6.63036 15.7361C6.54243 15.7361 6.45632 15.7613 6.38231 15.8088L5.74847 16.1763L6.20777 14.2931C6.22566 14.2083 6.21923 14.1202 6.18916 14.0389C6.15909 13.9576 6.1066 13.8865 6.03783 13.8338C5.96557 13.7803 5.87921 13.7491 5.7894 13.7442C5.69958 13.7393 5.61027 13.7609 5.53261 13.8062L5.33054 13.9211L6.0149 12.6764C6.06233 12.5886 6.07988 12.4878 6.06497 12.3892C6.05005 12.2906 6.00345 12.1995 5.9322 12.1298C5.87596 12.0739 5.8062 12.0336 5.72974 12.0126C5.65328 11.9917 5.57273 11.9909 5.49588 12.0103L6.35938 10.8529C6.42576 10.7711 6.46199 10.6689 6.46199 10.5636C6.46199 10.4582 6.42576 10.356 6.35938 10.2742C6.32154 10.2326 6.27637 10.1983 6.22616 10.1731H6.17105L6.07002 10.1456L6.52932 9.64034C6.59231 9.57114 6.63262 9.48432 6.64494 9.39157C6.65725 9.29881 6.64098 9.20455 6.59823 9.12132L7.1953 8.87787C7.29288 8.83655 7.37315 8.76278 7.42254 8.66902C7.47193 8.57527 7.48738 8.4673 7.46627 8.36345C7.44575 8.2573 7.38848 8.16176 7.30446 8.09371C7.22044 8.02566 7.11507 7.98942 7.00696 7.99139H6.96105L7.7373 7.68828C7.83158 7.65062 7.91072 7.58276 7.96236 7.49535H8.46759C8.56011 7.49508 8.6504 7.4669 8.72662 7.41445C8.80284 7.362 8.86146 7.28771 8.89477 7.20139C8.92863 7.11391 8.93488 7.01819 8.91271 6.92705C8.89054 6.83591 8.841 6.75372 8.77075 6.69157L8.57782 6.52162L9.7858 6.73289C9.87191 6.74928 9.96092 6.74072 10.0423 6.70816C10.1237 6.67561 10.1941 6.62047 10.2451 6.54921C10.2893 6.48834 10.3178 6.41753 10.3282 6.34305C10.3386 6.26857 10.3306 6.19268 10.3048 6.12203L10.5023 6.24145C10.4348 6.32364 10.3978 6.42673 10.3978 6.53312C10.3978 6.6395 10.4348 6.7426 10.5023 6.82478C10.5463 6.87497 10.6014 6.91427 10.6631 6.93961L10.5621 7.02685C10.473 7.09984 10.4146 7.20363 10.3985 7.31762C10.3823 7.4316 10.4095 7.54745 10.4748 7.64231C10.533 7.72731 10.6181 7.79029 10.7164 7.82111C10.8147 7.85193 10.9205 7.84886 11.0168 7.8123L10.686 8.08788C10.6129 8.14847 10.5603 8.23021 10.5356 8.32191C10.5109 8.4136 10.5152 8.51073 10.5479 8.59989C10.5807 8.68905 10.6402 8.76589 10.7184 8.81979C10.7966 8.87368 10.8896 8.90201 10.9846 8.90086C11.0655 8.90002 11.1447 8.87783 11.2142 8.83655L16.2666 5.9337C16.3666 5.87014 16.4382 5.77044 16.4663 5.65538C16.4945 5.54031 16.4772 5.41879 16.4179 5.31622C16.3586 5.21366 16.262 5.13797 16.1482 5.10496C16.0344 5.07195 15.9123 5.08419 15.8073 5.1391L15.1735 5.50197L15.4812 5.24474C15.5688 5.17048 15.6254 5.0661 15.6399 4.95217C15.6543 4.83825 15.6256 4.72306 15.5593 4.62928C15.4934 4.53644 15.3953 4.47139 15.2841 4.44678C15.1729 4.42217 15.0566 4.43973 14.9576 4.49606L14.8979 4.52824C14.9139 4.41359 14.886 4.29708 14.8198 4.2021C14.7544 4.10731 14.6558 4.04058 14.5435 4.01506C14.4313 3.98954 14.3135 4.00713 14.2135 4.06434L12.6887 4.94617L13.4511 3.96785C13.5198 3.88532 13.5575 3.78135 13.5575 3.67394C13.5575 3.56653 13.5198 3.46251 13.4511 3.37998C13.381 3.29892 13.2848 3.24492 13.1791 3.2273C13.0735 3.20969 12.9649 3.22954 12.8723 3.28348L12.4773 3.51773L12.5508 3.4121C12.6111 3.32645 12.6402 3.22279 12.6334 3.11831C12.6267 3.01382 12.5844 2.91481 12.5137 2.83763C12.4429 2.76045 12.3479 2.70973 12.2444 2.69393C12.1409 2.67813 12.0351 2.69818 11.9445 2.75073C11.9462 2.68654 11.9344 2.62268 11.9099 2.56335C11.8853 2.50401 11.8487 2.45052 11.8022 2.40625C11.7302 2.33794 11.6381 2.29477 11.5396 2.28318C11.4411 2.27159 11.3414 2.29219 11.2556 2.34194L10.6677 2.67722C10.6151 2.70723 10.5689 2.74737 10.5318 2.7953C10.4948 2.84323 10.4675 2.89801 10.4517 2.9565C10.4359 3.01498 10.4319 3.07601 10.4398 3.13608C10.4477 3.19615 10.4674 3.25405 10.4977 3.30647C10.5276 3.3562 10.5665 3.39985 10.6126 3.43509L10.4886 3.67394C10.4434 3.7621 10.4279 3.86249 10.4444 3.96017C10.461 4.05784 10.5087 4.14754 10.5804 4.21589C10.6373 4.26776 10.7047 4.30691 10.7779 4.33072L10.5207 4.69359C10.4795 4.75326 10.4531 4.82179 10.4435 4.89364C10.434 4.96549 10.4415 5.03861 10.4656 5.10698L9.33109 4.45474C9.24487 4.40216 9.14371 4.37946 9.04329 4.39015C8.94287 4.40084 8.84878 4.44434 8.77557 4.51389C8.70235 4.58345 8.65414 4.67515 8.63831 4.77489C8.62249 4.87463 8.63995 4.9768 8.68805 5.0656L8.98661 5.63059L7.10806 5.29525C7.00912 5.27725 6.90701 5.29223 6.8174 5.33786C6.72779 5.3835 6.6556 5.45729 6.61197 5.54789C6.56785 5.63848 6.55476 5.74107 6.57468 5.83984C6.5946 5.93861 6.64642 6.02804 6.7222 6.09444L7.22748 6.55375H5.60611C5.48429 6.54644 5.36454 6.58783 5.27324 6.6688C5.18193 6.74977 5.12653 6.86371 5.11922 6.98553C5.11191 7.10735 5.1533 7.2271 5.23427 7.3184C5.31524 7.40971 5.42918 7.46506 5.551 7.47237H5.65663L4.32003 7.99598C4.22051 8.03531 4.13787 8.10814 4.08634 8.20192C4.0348 8.2957 4.01763 8.40453 4.03778 8.50962C4.05793 8.61471 4.11412 8.7095 4.19668 8.77757C4.27924 8.84564 4.38296 8.88273 4.48997 8.88247H4.6737L3.70917 9.28207C3.6034 9.3247 3.5173 9.40517 3.46757 9.5078C3.41785 9.61042 3.40807 9.72788 3.44015 9.83731C3.47224 9.94673 3.54389 10.0403 3.64116 10.0998C3.73842 10.1593 3.85431 10.1806 3.96635 10.1594L4.88497 9.99402L3.50704 11.4959V11.5189C3.49171 11.5377 3.4779 11.5576 3.46572 11.5786C3.44921 11.6063 3.43539 11.6355 3.4244 11.6658C3.42224 11.6888 3.42224 11.7118 3.4244 11.7348C3.42213 11.7669 3.42213 11.7991 3.4244 11.8312C3.42224 11.8542 3.42224 11.8772 3.4244 11.9001C3.42807 11.9342 3.43901 11.9671 3.45653 11.9966C3.45458 12.0103 3.45458 12.0242 3.45653 12.0379C3.45653 12.0379 3.45653 12.0609 3.45653 12.0746L3.50704 12.116C3.52326 12.1337 3.5418 12.1492 3.56216 12.1619C3.59133 12.18 3.62211 12.1953 3.65405 12.2079H3.71377C3.75019 12.2147 3.78757 12.2147 3.82399 12.2079H3.87911C3.93702 12.1993 3.99298 12.1806 4.04445 12.1527L4.26031 12.0241L3.4244 13.1495C3.35979 13.234 3.32656 13.3384 3.33037 13.4448C3.33419 13.5511 3.37481 13.6528 3.44531 13.7326C3.51582 13.8123 3.61181 13.865 3.71691 13.8818C3.822 13.8986 3.92963 13.8784 4.02147 13.8246L4.38434 13.6133L3.69997 14.8535C3.65086 14.9412 3.63187 15.0427 3.64598 15.1422C3.66008 15.2418 3.70652 15.334 3.77808 15.4046C3.84982 15.4747 3.94252 15.5194 4.04204 15.5318C4.14157 15.5443 4.24243 15.5238 4.32922 15.4735L5.02278 15.0739L4.56347 16.9571C4.54144 17.0446 4.5457 17.1367 4.5757 17.2218C4.60569 17.307 4.66009 17.3814 4.73213 17.4358C4.80416 17.4902 4.89058 17.5221 4.98067 17.5277C5.07076 17.5332 5.16049 17.5121 5.23864 17.4669L5.9368 17.0581L5.68421 18.436C5.66782 18.5221 5.67638 18.6112 5.70894 18.6925C5.74149 18.7739 5.79663 18.8443 5.86789 18.8953C5.9419 18.9428 6.028 18.9681 6.11594 18.9681C6.20387 18.9681 6.28997 18.9428 6.36398 18.8953L7.40202 18.2937L7.63627 20.0345C7.64708 20.1093 7.67617 20.1804 7.72104 20.2413C7.76592 20.3021 7.82515 20.351 7.89345 20.3836C7.95991 20.4189 8.03403 20.4374 8.10931 20.4374C8.1846 20.4374 8.25878 20.4189 8.32523 20.3836L9.08304 19.9242L8.9085 20.3284C8.87041 20.4171 8.86123 20.5156 8.88227 20.6098C8.9033 20.704 8.95348 20.7892 9.02569 20.8532C9.09789 20.9173 9.18845 20.957 9.2845 20.9667C9.38054 20.9763 9.47721 20.9555 9.56074 20.9071L11.3015 19.9013L11.3842 20.9898C11.3899 21.0674 11.4153 21.1422 11.4579 21.2072C11.5005 21.2723 11.5589 21.3255 11.6276 21.3619C11.694 21.3977 11.7681 21.4166 11.8435 21.417C11.9244 21.4162 12.0036 21.394 12.0731 21.3527L14.3284 20.0528L14.0574 20.2687C13.9694 20.3421 13.912 20.4456 13.8964 20.5591C13.8809 20.6726 13.9083 20.7878 13.9733 20.8821C14.0383 20.9764 14.1362 21.043 14.2477 21.0689C14.3593 21.0948 14.4765 21.078 14.5764 21.0219L17.911 19.0975C18.0153 19.0361 18.0911 18.9361 18.1221 18.8191C18.153 18.7022 18.1366 18.5777 18.0763 18.4728C18.0443 18.4112 17.9968 18.3589 17.9385 18.3212L19.5369 17.0352C19.6068 16.9757 19.6573 16.8968 19.6818 16.8084C19.7064 16.72 19.7039 16.6263 19.6748 16.5393C19.6456 16.4524 19.5911 16.3761 19.5182 16.3204C19.4453 16.2647 19.3575 16.2321 19.2659 16.2268L20.0559 15.7675C20.1085 15.7375 20.1547 15.6973 20.1918 15.6494C20.2288 15.6015 20.256 15.5467 20.2718 15.4882C20.2876 15.4297 20.2917 15.3687 20.2838 15.3086C20.2759 15.2486 20.2562 15.1907 20.2259 15.1382C20.2051 15.1034 20.1805 15.0711 20.1524 15.0418L20.3499 14.8902C20.4416 14.8183 20.5026 14.7143 20.5205 14.5992C20.5384 14.4841 20.5119 14.3665 20.4463 14.2701C20.3808 14.1742 20.2813 14.1066 20.168 14.081C20.0546 14.0555 19.9358 14.0738 19.8355 14.1323L19.0225 14.5916L20.6163 12.1803C20.656 12.1058 20.6745 12.0219 20.6696 11.9376C20.6648 11.8533 20.6368 11.772 20.5887 11.7026Z" fill="#545F53"/>
</svg>
