<svg width="24" height="25" viewBox="0 0 24 25" fill="none" xmlns="http://www.w3.org/2000/svg">
<path fill-rule="evenodd" clip-rule="evenodd" d="M4.16542 11.5004C4.23277 11.5975 4.33177 11.6682 4.44545 11.7004H4.44546C4.53546 11.7004 4.59544 11.7004 4.91542 11.5804C5.33542 11.3604 6.18543 10.8804 8.04543 9.80044L4.25545 12.5604C4.15184 12.6366 4.08157 12.7497 4.05922 12.8764C4.03687 13.003 4.06418 13.1334 4.13546 13.2404C4.13122 13.2568 4.13122 13.274 4.13546 13.2904C4.07625 13.3593 4.03503 13.4417 4.01546 13.5304C4.00419 13.5988 4.00722 13.6688 4.02443 13.7359C4.04165 13.8031 4.07265 13.8659 4.11544 13.9204C4.25544 14.1104 4.32545 14.2004 4.75545 14.0104L5.13546 13.7704C5.53546 13.5604 6.13543 13.2204 6.98543 12.7204L9.62545 11.2004L8.34542 9.92043C8.24073 9.83078 8.15574 9.72046 8.09572 9.59639C8.0357 9.47233 8.00198 9.3372 7.99666 9.19948C7.99134 9.06176 8.0145 8.92443 8.06478 8.7961C8.11505 8.66778 8.19132 8.55121 8.28878 8.45376C8.38623 8.3563 8.5028 8.28003 8.63112 8.22976C8.75945 8.17948 8.89678 8.15632 9.0345 8.16164C9.17222 8.16696 9.30735 8.20068 9.43141 8.2607C9.55548 8.32072 9.6658 8.40571 9.75545 8.5104L11.9455 10.7004L14.1355 8.5104C14.3044 8.34766 14.5251 8.2495 14.7591 8.23305C14.9931 8.2166 15.2254 8.28293 15.4154 8.42043C15.8126 8.13096 16.172 7.8707 16.4967 7.63557L16.4968 7.63549C17.6191 6.82284 18.3266 6.31047 18.7454 5.93044L19.1154 5.72042V5.6404C19.4811 5.29453 19.4268 5.19282 19.3482 5.04571L19.3454 5.04043C19.2766 4.92374 19.1656 4.83787 19.0354 4.80043H18.9154C18.9036 4.75685 18.8832 4.71606 18.8554 4.68044C18.7903 4.56522 18.6822 4.48052 18.5547 4.44491C18.4272 4.40929 18.2908 4.42566 18.1754 4.49044L12.3255 7.87044L16.1455 5.0804C16.2435 5.0049 16.3108 4.89629 16.3347 4.77486C16.3586 4.65343 16.3376 4.52748 16.2755 4.42043L16.2731 4.4163C16.1248 4.15927 16.0627 4.05164 15.5554 4.28042H15.4954C15.1154 4.46042 14.4954 4.81039 13.4954 5.38039L9.15541 7.90041C10.8954 6.43041 11.8154 5.63042 12.2854 5.16042L12.4854 5.05043V4.99044C12.838 4.61825 12.7878 4.52427 12.7104 4.37962L12.7055 4.37044C12.6366 4.25376 12.5257 4.16783 12.3955 4.13039C12.2735 4.08144 12.1374 4.08144 12.0155 4.13039L11.6654 4.34041C11.5654 4.16041 11.4954 4.05043 11.0554 4.23043C10.9977 4.17201 10.9251 4.13052 10.8454 4.11043H10.8454C10.7554 4.11043 10.6954 4.11043 10.4154 4.21041H10.3454C10.0754 4.35041 9.65543 4.5904 8.92543 5.0104L9.00545 4.93044C9.0741 4.87099 9.12527 4.79393 9.15346 4.7076C9.18165 4.62127 9.18577 4.52889 9.16542 4.44039C9.1466 4.35256 9.10404 4.27163 9.04232 4.20638C8.98059 4.14113 8.9021 4.09406 8.81545 4.07039H8.81544C8.72544 4.07039 8.67542 4.07039 8.36544 4.19039H8.31545C8.09545 4.30039 7.76544 4.48042 7.24544 4.78042C7.43544 4.51042 7.39544 4.43042 7.30544 4.28042C7.27466 4.22191 7.23212 4.17041 7.1805 4.12911C7.12888 4.08781 7.06929 4.05761 7.00545 4.04043C6.90701 4.01545 6.8039 4.01545 6.70546 4.04043C6.57411 3.98652 6.42678 3.98652 6.29543 4.04043L4.63546 5.04043C4.56772 5.08068 4.51 5.13579 4.46669 5.20162C4.42338 5.26745 4.39561 5.34229 4.38546 5.42043C4.20545 5.60043 4.20545 5.75041 4.38546 6.02041C4.45545 6.12041 4.50547 6.19042 4.58547 6.22042L4.29543 6.53042C4.216 6.62004 4.17214 6.73567 4.17214 6.85543C4.17214 6.97519 4.216 7.09081 4.29543 7.18044C4.3451 7.2441 4.40893 7.29526 4.48183 7.32998C4.55473 7.36469 4.63468 7.38195 4.71541 7.38039L4.36544 7.68044C4.29019 7.74357 4.23569 7.82782 4.20894 7.92232C4.18219 8.01683 4.18442 8.11721 4.21541 8.21041C4.18644 8.27487 4.17147 8.34475 4.17147 8.41543C4.17147 8.4861 4.18644 8.55598 4.21541 8.62044C4.15866 8.70466 4.12838 8.80387 4.12838 8.90542C4.12838 9.00696 4.15866 9.10618 4.21541 9.19039C4.28556 9.30026 4.39516 9.37911 4.52162 9.41073C4.64809 9.44234 4.78187 9.42437 4.89546 9.36043L7.82546 7.66042L6.07546 9.34041C5.89277 9.49548 5.72543 9.63701 5.57228 9.76654L5.57227 9.76655C5.00446 10.2468 4.63174 10.562 4.39546 10.7904C3.99546 11.1804 3.99542 11.2704 4.16542 11.5004ZM19.9153 6.85957L19.9148 6.85862C19.8151 6.67918 19.7544 6.56993 19.2354 6.77956V6.70955L18.5854 7.10957C17.9854 7.41957 17.0954 7.91958 15.7654 8.67958C15.9002 8.86876 15.965 9.09895 15.9486 9.3307C15.9322 9.56246 15.8356 9.78127 15.6754 9.94954L13.4854 12.1395L15.2253 13.8795L19.8254 10.4196C19.9283 10.3452 19.9983 10.2338 20.0207 10.1088C20.0431 9.9838 20.0161 9.85499 19.9454 9.74953C20.0157 9.62489 20.0337 9.47745 19.9954 9.33955C19.9876 9.27928 19.9672 9.22136 19.9354 9.16957C19.9792 9.09172 20.0022 9.00389 20.0022 8.91457C20.0022 8.82524 19.9792 8.73741 19.9354 8.65956C19.9871 8.57899 20.0145 8.48526 20.0145 8.38954C20.0145 8.29382 19.9871 8.20015 19.9354 8.11958C19.8843 8.02819 19.803 7.95745 19.7054 7.91957V7.84956C20.0254 7.56956 20.0353 7.44953 19.9753 7.31953C20.0619 7.15505 20.0136 7.05805 19.9471 6.92467L19.9471 6.92461C19.9368 6.90393 19.9261 6.88238 19.9153 6.85957ZM19.6156 11.8001C19.7458 11.8375 19.8567 11.9234 19.9256 12.0401C19.9306 12.0529 19.9356 12.0653 19.9406 12.0776C20.0058 12.2381 20.0565 12.3628 19.6756 12.6601C19.7589 12.6935 19.8322 12.7478 19.8883 12.8179C19.9444 12.888 19.9813 12.9714 19.9956 13.0601C20.0212 13.1516 20.0212 13.2485 19.9956 13.3401C20.0078 13.4513 19.9831 13.5634 19.9252 13.6592C19.8674 13.755 19.7797 13.8291 19.6756 13.8701L16.4556 16.8701C17.6856 16.1501 18.3856 15.7601 18.7956 15.5401L19.0856 15.3701C19.3256 15.2901 19.3856 15.2901 19.4556 15.2901C19.5509 15.3175 19.6364 15.3716 19.702 15.446C19.7675 15.5205 19.8104 15.6121 19.8256 15.7101V15.8101C19.8456 15.9001 19.8156 15.9901 19.6556 16.1601C19.6968 16.2066 19.7337 16.2568 19.7656 16.3101C19.8186 16.403 19.8404 16.5104 19.8278 16.6166C19.8152 16.7228 19.7688 16.8222 19.6956 16.9001L19.1056 17.5301C19.4956 17.3701 19.5656 17.4701 19.7056 17.7001C19.7681 17.8045 19.7904 17.9281 19.7683 18.0477C19.7462 18.1674 19.6813 18.2749 19.5856 18.3501L19.1356 18.7201L19.2856 18.9801L18.7856 19.2701L18.7849 19.2705C17.4556 20.0401 17.4556 20.0401 17.2456 19.9801C17.1592 19.9518 17.0805 19.9039 17.0156 19.8401C16.8652 19.9399 16.6944 20.0048 16.5156 20.0301C16.3756 20.0301 16.2956 19.9601 16.1956 19.7801C16.0956 19.6001 16.0456 19.5001 16.3756 19.0701L16.7356 18.6301L14.4656 19.9601C14.352 20.024 14.2183 20.0421 14.0918 20.0104C13.9653 19.9788 13.8557 19.9 13.7856 19.7901V19.7201L13.3756 19.9601C13.1699 19.9878 12.9614 19.9878 12.7556 19.9601C12.6296 19.9196 12.5228 19.8342 12.4556 19.7201L12.4538 19.7169C12.3749 19.5789 12.3281 19.4971 12.6656 19.1001V19.0401L12.8356 18.9401C13.2556 18.4601 14.1456 17.6201 15.8356 16.0401L9.1756 19.9101C9.05032 19.9597 8.91086 19.9597 8.78558 19.9101C8.70594 19.89 8.63336 19.8485 8.57562 19.7901L8.44562 19.8601C8.33319 19.925 8.20026 19.9445 8.07391 19.9148C7.94757 19.8851 7.83733 19.8083 7.76562 19.7001C7.71333 19.6128 7.6889 19.5116 7.69562 19.4101L7.20563 19.6601L7.03558 19.7901C6.48331 20.0226 6.40043 19.889 6.30485 19.735C6.30178 19.73 6.2987 19.7251 6.29559 19.7201C6.19559 19.5601 6.13559 19.4601 6.54559 19.0601V19.0101L6.72559 18.9201C7.44559 18.3101 8.98562 17.1101 12.4456 14.5101C8.26562 16.9201 6.35562 18.0201 5.44562 18.5101L4.9256 18.8301C4.6556 18.9301 4.6056 18.9301 4.5556 18.9301C4.45986 18.9069 4.37332 18.8553 4.30731 18.7822C4.24131 18.709 4.19892 18.6177 4.18561 18.5201C4.17572 18.4605 4.17572 18.3997 4.18561 18.3401C4.14371 18.3015 4.10678 18.2578 4.07562 18.2101C4.0412 18.1401 4.02332 18.0631 4.02332 17.9851C4.02332 17.9071 4.0412 17.8301 4.07562 17.7601C4.02618 17.6787 4 17.5853 4 17.4901C4 17.3949 4.02618 17.3015 4.07562 17.2201C4.00825 17.1083 3.98725 16.9746 4.01715 16.8475C4.04705 16.7205 4.12544 16.6101 4.2356 16.5401H4.29559C4.19891 16.4958 4.11851 16.4223 4.06561 16.3301C4.05936 16.3101 4.05296 16.2909 4.04674 16.2722C4.00327 16.1418 3.96936 16.0401 4.06561 15.9001C4.03183 15.7982 4.03104 15.6883 4.06335 15.5859C4.09567 15.4836 4.15944 15.3941 4.24561 15.3301L9.77563 11.3301L10.5856 12.1401L8.39563 14.3301C8.20938 14.5174 8.1048 14.7709 8.1048 15.0351C8.1048 15.2993 8.20938 15.5527 8.39563 15.7401C8.58299 15.9264 8.8364 16.0309 9.10059 16.0309C9.36477 16.0309 9.61824 15.9264 9.8056 15.7401L11.9956 13.5601L13.5756 15.1201L13.4556 15.2101L13.5856 15.1301L14.2256 15.7601C14.4129 15.9463 14.6664 16.0509 14.9306 16.0509C15.1948 16.0509 15.4483 15.9463 15.6356 15.7601C15.8219 15.5727 15.9264 15.3193 15.9264 15.0551C15.9264 14.7909 15.8219 14.5375 15.6356 14.3501L15.3756 14.0901C17.6056 12.7901 18.6156 12.2101 19.0956 11.9701L19.1856 11.9101C19.4856 11.8001 19.5356 11.8001 19.6156 11.8001H19.6156Z" fill="#545F53"/>
</svg>
