<svg width="24" height="24" viewBox="0 0 24 24" fill="none" xmlns="http://www.w3.org/2000/svg">
<path fill-rule="evenodd" clip-rule="evenodd" d="M11.9999 4.95508C17.1399 4.95508 20.1849 8.37508 21.5499 10.4551C21.8437 10.9186 21.9998 11.4562 21.9998 12.0051C21.9998 12.5539 21.8437 13.0915 21.5499 13.5551C20.1799 15.6201 17.1399 19.0551 11.9999 19.0551C6.85989 19.0551 3.81989 15.6351 2.44989 13.5551C2.15602 13.0915 2 12.5539 2 12.0051C2 11.4562 2.15602 10.9186 2.44989 10.4551C3.81989 8.39508 6.85989 4.95508 11.9999 4.95508ZM11.9999 17.0701C16.2149 17.0701 18.7449 14.1801 19.8799 12.4551C19.9584 12.3181 19.9997 12.1629 19.9997 12.0051C19.9997 11.8472 19.9584 11.692 19.8799 11.5551C18.7449 9.83005 16.2099 6.93506 11.9999 6.93506C7.78989 6.93506 5.25489 9.83005 4.11989 11.5551C4.04138 11.692 4.00009 11.8472 4.00009 12.0051C4.00009 12.1629 4.04138 12.3181 4.11989 12.4551C5.25489 14.1801 7.78489 17.0701 11.9999 17.0701ZM9.77773 8.69366C10.4355 8.25414 11.2089 8.01953 12 8.01953C13.0609 8.01953 14.0783 8.44096 14.8284 9.1911C15.5786 9.94125 16 10.9587 16 12.0195C16 12.8107 15.7654 13.584 15.3259 14.2418C14.8863 14.8996 14.2616 15.4123 13.5307 15.715C12.7998 16.0178 11.9956 16.097 11.2196 15.9427C10.4437 15.7883 9.73098 15.4074 9.17157 14.848C8.61216 14.2886 8.2312 13.5758 8.07686 12.7999C7.92252 12.0239 8.00174 11.2197 8.30449 10.4888C8.60724 9.75786 9.11993 9.13319 9.77773 8.69366ZM11.4444 12.851C11.6089 12.9609 11.8022 13.0195 12 13.0195C12.2652 13.0195 12.5196 12.9142 12.7071 12.7266C12.8946 12.5391 13 12.2847 13 12.0195C13 11.8217 12.9414 11.6284 12.8315 11.464C12.7216 11.2995 12.5654 11.1713 12.3827 11.0956C12.2 11.02 11.9989 11.0002 11.8049 11.0388C11.6109 11.0773 11.4327 11.1726 11.2929 11.3124C11.153 11.4523 11.0578 11.6305 11.0192 11.8245C10.9806 12.0184 11.0004 12.2195 11.0761 12.4022C11.1518 12.5849 11.28 12.7411 11.4444 12.851Z" fill="#545F53"/>
</svg>
