<svg width="24" height="24" viewBox="0 0 24 24" fill="none" xmlns="http://www.w3.org/2000/svg">
<path d="M19.1292 20.1251C18.8651 20.1253 18.6117 20.0211 18.4242 19.8351L4.16415 5.56012C3.97651 5.37248 3.87109 5.11796 3.87109 4.8526C3.87109 4.58724 3.97651 4.33278 4.16415 4.14514C4.35179 3.9575 4.60629 3.85205 4.87166 3.85205C5.13702 3.85205 5.39152 3.9575 5.57916 4.14514L19.8342 18.4001C19.9732 18.54 20.0677 18.7178 20.106 18.9112C20.1442 19.1046 20.1244 19.305 20.0491 19.4872C19.9737 19.6695 19.8462 19.8253 19.6825 19.9352C19.5189 20.0452 19.3263 20.1043 19.1292 20.1051V20.1251Z" fill="#545F53"/>
<path d="M8.14 10.9651C8.05014 11.3012 8.0031 11.6472 8 11.9951C8 13.0559 8.42142 14.0733 9.17157 14.8235C9.92172 15.5736 10.9391 15.9951 12 15.9951C12.3481 15.9948 12.6945 15.9477 13.03 15.855L8.14 10.9651Z" fill="#545F53"/>
<path d="M15.8598 13.0301C15.9525 12.6929 15.9995 12.3448 15.9998 11.9951C15.9998 10.9343 15.5784 9.91683 14.8283 9.16669C14.0781 8.41654 13.0607 7.99512 11.9998 7.99512C11.6502 7.99571 11.3021 8.0428 10.9648 8.13513L15.8598 13.0301Z" fill="#545F53"/>
<path d="M21.5548 10.45C20.1848 8.37 17.1448 4.95 11.9998 4.95C10.7676 4.94633 9.5442 5.15784 8.38477 5.575L9.99477 7.18498C10.6503 7.03051 11.3213 6.95168 11.9948 6.95C16.2098 6.95 18.7398 9.84499 19.8748 11.57C19.9558 11.7061 19.9985 11.8616 19.9985 12.02C19.9985 12.1784 19.9558 12.3338 19.8748 12.47C19.2753 13.3825 18.5517 14.2071 17.7248 14.92L19.1448 16.34C20.0629 15.5261 20.8699 14.5947 21.5448 13.57C21.843 13.1048 22.0024 12.5641 22.0042 12.0115C22.006 11.4588 21.8501 10.9171 21.5548 10.45Z" fill="#545F53"/>
<path d="M14 16.8251C13.3447 16.9805 12.6735 17.0594 12 17.0601C7.79003 17.0601 5.25503 14.1701 4.12003 12.4501C4.04152 12.3131 4.00021 12.1579 4.00021 12.0001C4.00021 11.8422 4.04152 11.687 4.12003 11.55C4.7207 10.637 5.44415 9.81088 6.27002 9.09503L4.85002 7.67505C3.93176 8.49077 3.12484 9.4238 2.45003 10.4501C2.15731 10.9141 2.00195 11.4515 2.00195 12.0001C2.00195 12.5487 2.15731 13.0861 2.45003 13.55C3.82003 15.63 6.86503 19.05 12 19.05C13.2307 19.0549 14.4526 18.8433 15.61 18.425L14 16.8251Z" fill="#545F53"/>
</svg>
<svg width="24" height="24" viewBox="0 0 24 24" fill="none" xmlns="http://www.w3.org/2000/svg">
<path d="M19.1292 20.1251C18.8651 20.1253 18.6117 20.0211 18.4242 19.8351L4.16415 5.56012C3.97651 5.37248 3.87109 5.11796 3.87109 4.8526C3.87109 4.58724 3.97651 4.33278 4.16415 4.14514C4.35179 3.9575 4.60629 3.85205 4.87166 3.85205C5.13702 3.85205 5.39152 3.9575 5.57916 4.14514L19.8342 18.4001C19.9732 18.54 20.0677 18.7178 20.106 18.9112C20.1442 19.1046 20.1244 19.305 20.0491 19.4872C19.9737 19.6695 19.8462 19.8253 19.6825 19.9352C19.5189 20.0452 19.3263 20.1043 19.1292 20.1051V20.1251Z" fill="#545F53"/>
<path d="M8.14 10.9651C8.05014 11.3012 8.0031 11.6472 8 11.9951C8 13.0559 8.42142 14.0733 9.17157 14.8235C9.92172 15.5736 10.9391 15.9951 12 15.9951C12.3481 15.9948 12.6945 15.9477 13.03 15.855L8.14 10.9651Z" fill="#545F53"/>
<path d="M15.8598 13.0301C15.9525 12.6929 15.9995 12.3448 15.9998 11.9951C15.9998 10.9343 15.5784 9.91683 14.8283 9.16669C14.0781 8.41654 13.0607 7.99512 11.9998 7.99512C11.6502 7.99571 11.3021 8.0428 10.9648 8.13513L15.8598 13.0301Z" fill="#545F53"/>
<path d="M21.5548 10.45C20.1848 8.37 17.1448 4.95 11.9998 4.95C10.7676 4.94633 9.5442 5.15784 8.38477 5.575L9.99477 7.18498C10.6503 7.03051 11.3213 6.95168 11.9948 6.95C16.2098 6.95 18.7398 9.84499 19.8748 11.57C19.9558 11.7061 19.9985 11.8616 19.9985 12.02C19.9985 12.1784 19.9558 12.3338 19.8748 12.47C19.2753 13.3825 18.5517 14.2071 17.7248 14.92L19.1448 16.34C20.0629 15.5261 20.8699 14.5947 21.5448 13.57C21.843 13.1048 22.0024 12.5641 22.0042 12.0115C22.006 11.4588 21.8501 10.9171 21.5548 10.45Z" fill="#545F53"/>
<path d="M14 16.8251C13.3447 16.9805 12.6735 17.0594 12 17.0601C7.79003 17.0601 5.25503 14.1701 4.12003 12.4501C4.04152 12.3131 4.00021 12.1579 4.00021 12.0001C4.00021 11.8422 4.04152 11.687 4.12003 11.55C4.7207 10.637 5.44415 9.81088 6.27002 9.09503L4.85002 7.67505C3.93176 8.49077 3.12484 9.4238 2.45003 10.4501C2.15731 10.9141 2.00195 11.4515 2.00195 12.0001C2.00195 12.5487 2.15731 13.0861 2.45003 13.55C3.82003 15.63 6.86503 19.05 12 19.05C13.2307 19.0549 14.4526 18.8433 15.61 18.425L14 16.8251Z" fill="#545F53"/>
</svg>
