<svg width="25" height="25" viewBox="0 0 25 25" fill="none" xmlns="http://www.w3.org/2000/svg">
<path fill-rule="evenodd" clip-rule="evenodd" d="M20.9206 8.69446L21.2252 8.3558C21.2945 8.28022 21.3344 8.18232 21.3377 8.07987C21.341 7.97742 21.3074 7.87718 21.243 7.79735C21.1787 7.71751 21.0879 7.66337 20.987 7.64471C20.8862 7.62604 20.782 7.6441 20.6933 7.69562L20.3329 7.90138L21.1909 7.12551C21.2696 7.05465 21.3193 6.95719 21.3304 6.85193C21.3414 6.74667 21.3132 6.64101 21.251 6.55534C21.1888 6.4694 21.0969 6.40958 20.9931 6.38741C20.8893 6.36524 20.7809 6.38234 20.689 6.43535L18.5055 7.69562L21.1823 5.36795C21.2623 5.29824 21.3136 5.20136 21.3263 5.09606C21.339 4.99075 21.3121 4.88447 21.251 4.79779C21.1893 4.71003 21.0969 4.64859 20.992 4.62557C20.8872 4.60256 20.7776 4.61968 20.6847 4.67351L20.4574 4.80637L21.0965 4.33484C21.1883 4.26863 21.2502 4.16885 21.2687 4.05724C21.2872 3.94562 21.2608 3.83121 21.1952 3.73897C21.1353 3.64796 21.043 3.58314 20.9371 3.55766C20.8311 3.53218 20.7194 3.54798 20.6247 3.60182L17.7805 5.23933L19.4964 3.75185C19.5776 3.68196 19.6296 3.58426 19.6423 3.47796C19.6551 3.37166 19.6275 3.26441 19.5651 3.17739C19.5029 3.09145 19.411 3.03164 19.3072 3.00947C19.2034 2.9873 19.0951 3.00439 19.0031 3.0574L15.6699 4.97785L16.648 3.69183C16.7084 3.6129 16.7394 3.51548 16.7358 3.41621C16.7323 3.31695 16.6943 3.22202 16.6285 3.14761C16.5626 3.07321 16.473 3.02393 16.3748 3.00826C16.2767 2.99259 16.1761 3.01149 16.0903 3.06169L14.8034 3.80329L14.8806 3.5632C14.9069 3.48119 14.9079 3.39314 14.8834 3.31056C14.8589 3.22798 14.8101 3.15471 14.7434 3.10026C14.676 3.04556 14.5935 3.01259 14.507 3.0057C14.4204 2.99881 14.3338 3.01834 14.2586 3.06169L13.8296 3.30601C13.7805 3.33402 13.7373 3.37148 13.7027 3.41621C13.6681 3.46094 13.6427 3.51207 13.6279 3.56666C13.6132 3.62124 13.6094 3.6782 13.6168 3.73426C13.6241 3.79033 13.6425 3.84436 13.6709 3.89329C13.7076 3.95509 13.7592 4.00667 13.821 4.04332L13.6366 4.60061C13.6093 4.68322 13.6078 4.77215 13.6324 4.85561C13.6569 4.93906 13.7062 5.01308 13.7739 5.06785C13.8413 5.12255 13.9237 5.15552 14.0102 5.16241C14.0968 5.1693 14.1834 5.14976 14.2586 5.10642L14.6876 4.8621L13.7052 6.14812C13.6432 6.22449 13.6094 6.31984 13.6094 6.41818C13.6094 6.51652 13.6432 6.61188 13.7052 6.68825C13.7704 6.76285 13.8595 6.8126 13.9572 6.82901C14.055 6.84542 14.1554 6.82747 14.2414 6.77825L15.4769 6.06669L14.5803 6.83827H17.4502V9.25171L17.6003 9.16599L17.4502 9.30315V10.5163L18.7157 9.78326L18.5484 9.9719C18.4819 10.0496 18.4454 10.1483 18.4454 10.2505C18.4454 10.3527 18.4819 10.4515 18.5484 10.5291C18.6125 10.609 18.7032 10.6633 18.8039 10.6822C18.9046 10.701 19.0087 10.6832 19.0975 10.632L21.1051 9.47034C21.2032 9.41379 21.275 9.32074 21.3047 9.21152C21.3345 9.1023 21.3198 8.98578 21.2638 8.88735C21.2262 8.83015 21.1754 8.78276 21.1157 8.7492C21.056 8.71564 20.9891 8.6969 20.9206 8.69446ZM9.13692 6.85956H7.18934L7.19792 7.40399L3.98916 9.25583C3.89673 9.30841 3.78805 9.3248 3.68421 9.30183C3.58037 9.27886 3.48878 9.21815 3.4272 9.1315C3.36552 9.04532 3.33795 8.9394 3.34983 8.83412C3.36171 8.72884 3.41219 8.63167 3.49153 8.56138L6.44291 5.98934L3.98916 7.40399C3.90006 7.45554 3.79537 7.47336 3.69421 7.45417C3.59305 7.43498 3.50217 7.38003 3.43817 7.29943C3.37417 7.21884 3.3413 7.11794 3.34559 7.01514C3.34987 6.91233 3.39101 6.81452 3.4615 6.73952L4.85142 5.25633L3.99346 5.75355C3.91239 5.80047 3.81819 5.81958 3.72524 5.80797C3.63228 5.79636 3.54568 5.75471 3.47867 5.68929C3.41213 5.62417 3.3686 5.53915 3.35467 5.44712C3.34074 5.35509 3.35717 5.26102 3.40146 5.17914L3.79612 4.45471C3.70328 4.45 3.61449 4.41526 3.54311 4.35576C3.47173 4.29625 3.4216 4.21515 3.40031 4.12473C3.37902 4.03431 3.38771 3.93947 3.42505 3.8544C3.46239 3.76933 3.52637 3.69868 3.60736 3.65309L4.59831 3.07863C4.67952 3.03086 4.77423 3.01115 4.86778 3.02254C4.96133 3.03392 5.04855 3.07578 5.11591 3.14164C5.18328 3.20749 5.22707 3.29369 5.24052 3.3869C5.25397 3.48011 5.23631 3.57519 5.1903 3.65738L4.85998 4.26178L6.91908 3.07434C7.00829 3.0236 7.11278 3.00654 7.21353 3.0262C7.31428 3.04586 7.40463 3.10095 7.46818 3.18151C7.53464 3.25916 7.57116 3.35798 7.57116 3.46016C7.57116 3.56233 7.53464 3.66116 7.46818 3.73881L6.06112 5.21342L9.79325 3.07005C9.88518 3.01704 9.99351 3 10.0973 3.02217C10.2011 3.04434 10.293 3.10416 10.3552 3.19009C10.4181 3.27661 10.4464 3.3835 10.4345 3.48978C10.4226 3.59606 10.3714 3.69408 10.2909 3.76455L7.33949 6.33659L10.3938 4.5747C10.4851 4.52515 10.5913 4.51041 10.6926 4.53315C10.7939 4.55589 10.8836 4.61457 10.9449 4.69835C11.0062 4.78213 11.035 4.88532 11.026 4.98872C11.0169 5.09212 10.9706 5.18873 10.8957 5.26062L9.13692 6.85956ZM4.42659 9.97263L7.18922 7.46484V9.37247L4.93281 10.6585C4.86784 10.697 4.79385 10.7177 4.71832 10.7185C4.63146 10.7192 4.54644 10.6934 4.47453 10.6447C4.40261 10.5961 4.34719 10.5267 4.31557 10.4459C4.28395 10.365 4.27763 10.2765 4.29745 10.192C4.31728 10.1075 4.36231 10.031 4.42659 9.97263ZM10.2437 19.3046L10.4024 19.2145V19.2574C10.5014 19.2005 10.6189 19.1853 10.7291 19.2151C10.8394 19.2448 10.9332 19.317 10.9901 19.416C11.047 19.5149 11.0622 19.6324 11.0325 19.7425C11.0027 19.8526 10.9304 19.9464 10.8314 20.0032L9.11549 20.9806C9.03206 21.0289 8.93476 21.0478 8.83931 21.0341C8.74387 21.0203 8.65585 20.9749 8.58942 20.9051C8.523 20.8352 8.48204 20.745 8.4732 20.6491C8.46435 20.5531 8.48811 20.457 8.54064 20.3762L9.26991 19.2488L6.26705 20.9635C6.20294 20.9998 6.13055 21.019 6.05686 21.0192C5.96853 21.0194 5.88228 20.9923 5.80993 20.9417C5.73757 20.8911 5.68263 20.8193 5.6526 20.7363C5.62256 20.6533 5.61891 20.5631 5.64212 20.4779C5.66534 20.3927 5.71429 20.3168 5.7823 20.2605L6.37001 19.7761L4.45245 20.882C4.35806 20.9378 4.24588 20.9553 4.13896 20.931C4.03204 20.9067 3.93851 20.8424 3.87755 20.7513C3.8166 20.6602 3.79287 20.5493 3.81123 20.4412C3.8296 20.3332 3.88866 20.2363 3.97629 20.1704L5.43483 19.0345L3.96343 19.8918C3.86865 19.9439 3.75768 19.9582 3.65277 19.932C3.54786 19.9058 3.45676 19.8409 3.39765 19.7504C3.33854 19.6599 3.31582 19.5504 3.33402 19.4439C3.35223 19.3374 3.41002 19.2417 3.49583 19.1759L3.80042 18.9573C3.72319 18.9667 3.64486 18.9548 3.57383 18.9231C3.5028 18.8914 3.44174 18.841 3.39718 18.7772C3.33576 18.6892 3.30962 18.5814 3.32392 18.475C3.33821 18.3687 3.39191 18.2715 3.47439 18.2028L5.37047 16.6253L3.96343 17.4355C3.8747 17.4867 3.77054 17.5045 3.66982 17.4856C3.5691 17.4668 3.47847 17.4125 3.41433 17.3326C3.34787 17.255 3.31135 17.1562 3.31135 17.054C3.31135 16.9518 3.34787 16.853 3.41433 16.7754L4.57258 15.4893L3.94626 15.8494C3.87326 15.8916 3.78946 15.9113 3.70532 15.9061C3.62118 15.9009 3.54044 15.8711 3.47316 15.8203C3.40588 15.7696 3.35507 15.7001 3.32706 15.6207C3.29905 15.5412 3.29509 15.4553 3.31567 15.3736L3.56019 14.4005C3.47712 14.361 3.40713 14.2985 3.35856 14.2204C3.33019 14.1715 3.31181 14.1175 3.30444 14.0614C3.29707 14.0054 3.30086 13.9484 3.31562 13.8938C3.33037 13.8392 3.35578 13.7881 3.3904 13.7434C3.42501 13.6986 3.46812 13.6612 3.51728 13.6332L3.94626 13.3845C4.0192 13.3428 4.10283 13.3234 4.18672 13.3287C4.27061 13.334 4.35109 13.3639 4.41815 13.4145C4.48238 13.4637 4.53137 13.5301 4.55946 13.606C4.58755 13.6819 4.59358 13.7641 4.57687 13.8432L4.39241 14.5849L6.50728 13.3631C6.59602 13.3119 6.70015 13.2941 6.80087 13.313C6.90159 13.3319 6.99222 13.3861 7.05636 13.466C7.12282 13.5436 7.15937 13.6424 7.15937 13.7446C7.15937 13.8468 7.12282 13.9456 7.05636 14.0233L5.90241 15.3093L7.18935 14.5763V17.1483H10.8829L10.2952 17.6327L10.3981 17.577C10.481 17.529 10.5775 17.5101 10.6724 17.5233C10.7672 17.5366 10.8549 17.5811 10.9215 17.6498C10.989 17.7195 11.0308 17.8101 11.0402 17.9067C11.0495 18.0032 11.0258 18.1 10.973 18.1814L10.2437 19.3046ZM14.2757 18.4859L16.5965 17.1484H14.5545L13.7866 17.7872C13.7041 17.8559 13.6504 17.953 13.6361 18.0594C13.6218 18.1657 13.648 18.2735 13.7094 18.3616C13.7711 18.4493 13.8635 18.5108 13.9684 18.5338C14.0732 18.5568 14.1828 18.5397 14.2757 18.4859ZM20.5092 18.9572L20.685 18.8544L20.6679 18.8586C20.7167 18.8276 20.7713 18.8068 20.8284 18.7974C20.8855 18.788 20.9439 18.7903 21.0001 18.804C21.0563 18.8178 21.1091 18.8427 21.1554 18.8774C21.2017 18.9121 21.2405 18.9558 21.2694 19.0059C21.2984 19.056 21.3169 19.1113 21.3239 19.1687C21.3309 19.2261 21.3261 19.2843 21.31 19.3399C21.2939 19.3954 21.2667 19.4471 21.2301 19.4918C21.1934 19.5366 21.1481 19.5734 21.0969 19.6002L18.7675 20.9463C18.6797 20.9979 18.5763 21.0166 18.4759 20.999C18.3756 20.9815 18.2847 20.9288 18.2197 20.8504C18.1547 20.772 18.1197 20.673 18.121 20.5712C18.1224 20.4694 18.1599 20.3714 18.227 20.2947L18.9477 19.4373L16.3738 20.9334C16.3084 20.9704 16.2345 20.9897 16.1593 20.9891C16.0927 20.9891 16.027 20.9736 15.9675 20.9439C15.9079 20.9141 15.8561 20.8709 15.8161 20.8177C15.753 20.7343 15.7226 20.6309 15.7305 20.5267C15.7384 20.4225 15.7841 20.3247 15.859 20.2518L18.0983 18.1085L14.2804 20.3119C14.1875 20.3678 14.0769 20.3866 13.9707 20.3643C13.8646 20.342 13.7709 20.2804 13.7083 20.1919C13.6458 20.1033 13.6192 19.9944 13.6338 19.887C13.6484 19.7796 13.7031 19.6818 13.787 19.6131L16.7084 17.1525H17.4891V14.3018L19.1278 13.3545C19.2212 13.2966 19.3333 13.2767 19.4409 13.2989C19.5486 13.3212 19.6436 13.3838 19.7063 13.474C19.769 13.5642 19.7947 13.675 19.7781 13.7836C19.7615 13.8922 19.7038 13.9902 19.6169 14.0575L18.1884 15.2449L20.6893 13.8046C20.7821 13.7532 20.8906 13.738 20.9939 13.7619C21.0972 13.7858 21.188 13.8471 21.2487 13.9339C21.3095 14.0207 21.3359 14.1269 21.3229 14.2321C21.3099 14.3372 21.2585 14.4339 21.1784 14.5033L18.034 17.1568L20.6893 15.6221C20.7802 15.5696 20.8873 15.5523 20.9901 15.5733C21.093 15.5944 21.1845 15.6524 21.2475 15.7364C21.3104 15.8204 21.3403 15.9246 21.3315 16.0292C21.3227 16.1337 21.2759 16.2314 21.1998 16.3038L18.9648 18.4471L20.6807 17.4526C20.7681 17.4016 20.8707 17.3831 20.9704 17.4003C21.0701 17.4176 21.1605 17.4695 21.2256 17.5469C21.2909 17.6242 21.3267 17.7222 21.3267 17.8234C21.3267 17.9246 21.2909 18.0225 21.2256 18.0999L20.5092 18.9572Z" fill="#545F53"/>
</svg>
