<svg width="2071" height="547" viewBox="0 0 2071 547" fill="none" xmlns="http://www.w3.org/2000/svg">
<path d="M2030.23 418.701C2027.05 418.701 2025.54 420.29 2023.11 423.393C2001.85 448.597 1968.77 474.558 1924.72 474.558C1867.27 474.558 1820.8 428.918 1820.8 359.665C1820.8 294.347 1859.4 251.811 1906.63 251.811C1938.12 251.811 1957.04 269.9 1961.73 296.693C1962.49 301.386 1964.91 304.565 1970.36 304.565C1983.76 304.565 2029.4 288.065 2029.4 276.258C2029.4 227.439 1978.99 178.621 1906.63 178.621C1809.83 178.621 1735.81 261.272 1735.81 365.947C1735.81 379.873 1737.17 393.345 1739.74 406.212C1720.06 441.634 1691.6 474.633 1657.85 474.633C1626.36 474.633 1610.62 443.904 1610.62 404.547C1610.62 342.332 1620.08 221.157 1620.08 206.171C1620.08 194.364 1613.8 188.082 1603.58 188.082H1554.01C1544.54 188.082 1538.26 194.364 1538.26 205.415V219.568L1535.08 221.157C1509.88 198.3 1472.87 178.621 1423.29 178.621C1324.9 178.621 1254.81 260.515 1254.81 369.126C1254.81 382.371 1255.8 395.086 1257.69 407.272C1238.39 440.65 1209.4 474.633 1174.51 474.633C1139.62 474.633 1127.28 444.737 1127.28 406.969C1127.28 332.19 1137.5 61.3822 1137.5 18.0892C1137.5 7.03889 1131.22 0 1120.17 0H1072.94C1061.89 0 1055.61 5.52515 1055.61 18.9218V221.914L1053.26 222.671C1027.3 202.236 983.174 178.621 933.599 178.621C830.514 178.621 764.363 265.964 764.363 368.293C764.363 381.992 765.423 395.162 767.391 407.726C747.712 442.542 719.708 474.558 686.406 474.558C654.92 474.558 639.177 443.829 639.177 404.471C639.177 342.257 648.638 221.082 648.638 206.096C648.638 194.289 642.356 188.007 632.138 188.007H582.563C573.102 188.007 566.82 194.289 566.82 205.339V219.492L563.641 221.082C538.437 198.224 501.426 178.546 451.851 178.546C353.458 178.546 283.372 260.439 283.372 369.05C283.372 382.749 284.432 395.767 286.4 408.256C266.418 441.255 234.705 474.558 191.261 474.558C136.161 474.558 120.418 434.443 120.418 369.05V255.671C147.968 256.428 179.454 257.26 199.133 257.26C207.004 257.26 210.94 253.324 210.94 243.864V203.749C210.94 195.121 206.247 191.185 199.889 191.185C180.211 191.185 147.136 191.942 121.175 192.775V98.3174C121.175 86.5102 115.65 79.3957 104.675 79.3957H55.857C44.8067 79.3957 39.3572 86.5102 39.3572 98.3174V192.018C29.1395 191.261 20.4355 191.261 13.3966 191.261C3.93572 191.261 0 197.543 0 205.415V243.182C0 253.4 4.69259 257.336 15.7429 257.336C21.2681 257.336 29.8964 257.336 39.3572 256.579V404.547C39.3572 491.89 94.4574 546.99 174.761 546.99C237.733 546.99 282.161 516.337 311.982 479.099C338.397 521.711 381.16 546.99 432.93 546.99C505.362 546.99 549.412 502.108 568.334 457.225L571.513 457.982V469.789C571.513 517.018 610.87 546.914 665.97 546.914C721.07 546.914 763.985 515.353 792.67 478.493C818.858 521.181 861.924 546.914 916.343 546.914C984.839 546.914 1030.48 499.686 1049.4 453.214L1052.58 453.971V464.188C1052.58 514.596 1094.28 546.839 1157.25 546.839C1211.07 546.839 1253.76 516.564 1283.5 478.872C1309.92 521.483 1352.68 546.839 1404.45 546.839C1476.88 546.839 1520.93 501.956 1539.85 457.074L1543.03 457.831V469.638C1543.03 516.867 1582.39 546.763 1637.49 546.763C1696.15 546.763 1739.14 512.325 1767.9 473.498C1799 518.759 1850.47 546.763 1911.48 546.763C1997.3 546.763 2042.11 502.713 2067.32 464.113C2069.66 460.177 2070.49 456.998 2070.49 454.652C2070.49 446.024 2036.66 418.473 2030.38 418.473L2030.23 418.701ZM449.505 474.558C403.033 474.558 368.444 434.443 368.444 372.986C368.444 300.553 414.916 251.735 477.055 251.735C514.066 251.735 548.655 273.76 565.987 291.849C565.987 358.756 531.323 474.482 449.505 474.482V474.558ZM931.253 474.558C884.024 474.558 849.36 434.443 849.36 372.986C849.36 300.553 895.831 251.735 957.971 251.735C994.981 251.735 1029.57 273.76 1046.9 291.849C1046.9 367.385 1006.79 474.482 931.177 474.482L931.253 474.558ZM1420.87 474.558C1374.4 474.558 1339.81 434.443 1339.81 372.986C1339.81 300.553 1386.28 251.735 1448.42 251.735C1485.43 251.735 1520.02 273.76 1537.35 291.849C1537.35 358.756 1502.69 474.482 1420.87 474.482V474.558Z" fill="#2E3D30"/>
</svg>
