<svg width="25" height="25" viewBox="0 0 25 25" fill="none" xmlns="http://www.w3.org/2000/svg">
<path fill-rule="evenodd" clip-rule="evenodd" d="M18.814 8.7936C18.8846 8.83632 18.9657 8.85913 19.0485 8.8595C19.1197 8.86396 19.191 8.85177 19.2564 8.82389L20.6122 8.05324C20.6907 8.00736 20.7532 7.93915 20.7916 7.85755C20.83 7.77594 20.8425 7.68482 20.8273 7.59611C20.8122 7.50741 20.7701 7.42531 20.7067 7.36062C20.6433 7.29593 20.5615 7.25164 20.4721 7.23365L21.281 6.12007C21.3408 6.03757 21.3703 5.93742 21.3645 5.83618C21.3588 5.73494 21.3181 5.63868 21.2494 5.56328C21.1923 5.50142 21.1187 5.45669 21.037 5.43414C21.0259 5.38916 21.0059 5.34676 20.9782 5.3094C20.9144 5.21557 20.8169 5.14913 20.7054 5.1235C20.5938 5.09786 20.4765 5.11492 20.3772 5.17129L20.0292 5.36731L20.228 5.16237C20.305 5.0846 20.3506 4.98178 20.356 4.87321C20.3615 4.76465 20.3265 4.65784 20.2576 4.57296C20.1887 4.48808 20.0907 4.43099 19.982 4.41239C19.8734 4.39379 19.7615 4.41498 19.6676 4.47198L18.6825 5.03324L19.3242 4.21806C19.3906 4.13835 19.427 4.03837 19.427 3.9352C19.427 3.83203 19.3906 3.7321 19.3242 3.6524C19.272 3.59325 19.205 3.54867 19.1299 3.52321C19.1176 3.49223 19.1024 3.46238 19.0847 3.43409C19.0394 3.36541 18.9758 3.31041 18.9009 3.27504C18.8259 3.23968 18.7425 3.22535 18.6599 3.23366C18.5961 3.13984 18.4986 3.07339 18.387 3.04776C18.2754 3.02212 18.1581 3.03924 18.0588 3.09561L16.7031 3.87066C16.6263 3.91551 16.5648 3.9817 16.5262 4.06097C16.4876 4.14023 16.4737 4.22903 16.4861 4.31609L15.8986 4.76153C15.8177 4.82523 15.7614 4.91441 15.7391 5.01415C15.7169 5.11389 15.7301 5.21813 15.7766 5.3094C15.7289 5.38166 15.7036 5.46595 15.7036 5.55213C15.7036 5.63831 15.7289 5.72266 15.7766 5.79491C15.8405 5.88991 15.9388 5.9572 16.0515 5.98288C16.1641 6.00857 16.2825 5.99073 16.3822 5.93302L17.2318 5.45192L16.5901 6.2671C16.5236 6.3468 16.4872 6.44672 16.4872 6.5499C16.4872 6.65307 16.5236 6.75305 16.5901 6.83275C16.6588 6.91027 16.7526 6.96197 16.8556 6.97902C16.9586 6.99607 17.0644 6.97747 17.155 6.92633L17.503 6.72585L17.3086 6.93079C17.2335 7.00852 17.1895 7.11035 17.1845 7.21756C17.1795 7.32477 17.214 7.43012 17.2815 7.51428C17.3417 7.58584 17.4218 7.63846 17.512 7.66571C17.5259 7.70966 17.5457 7.75161 17.5708 7.79045C17.6345 7.88428 17.732 7.95072 17.8436 7.97635C17.9552 8.00199 18.0725 7.98493 18.1718 7.92856L19.3332 7.26487L18.6825 8.15574C18.6344 8.22222 18.6059 8.30043 18.5999 8.38182C18.5939 8.46322 18.6107 8.54464 18.6484 8.61726C18.6862 8.68989 18.7435 8.75088 18.814 8.7936ZM6.50772 20.4094C6.41401 20.4082 6.323 20.3783 6.24728 20.3239C6.17156 20.2694 6.11493 20.1932 6.08515 20.1056C6.05536 20.018 6.05393 19.9234 6.08107 19.835C6.1082 19.7466 6.16253 19.6687 6.23658 19.6121L6.43093 19.4606L5.07514 20.2268C4.97586 20.2831 4.85857 20.3003 4.74698 20.2746C4.6354 20.249 4.53787 20.1825 4.4741 20.0887C4.40968 19.9933 4.385 19.8772 4.4052 19.7644C4.4254 19.6516 4.48892 19.5507 4.58256 19.4829L10.2496 15.3581L4.63679 18.5519C4.53628 18.6084 4.4176 18.6248 4.30521 18.5976C4.19283 18.5704 4.0953 18.5018 4.03272 18.4059C3.97015 18.3099 3.94729 18.194 3.96887 18.0819C3.99045 17.9699 4.05482 17.8702 4.14871 17.8036L8.37415 14.886L4.69102 16.984C4.58834 17.0428 4.46629 17.0594 4.35128 17.0303C4.23626 17.0011 4.13752 16.9285 4.07641 16.8281C4.01452 16.7276 3.99546 16.607 4.0234 16.4927C4.05134 16.3783 4.12401 16.2796 4.22555 16.2179L4.88534 15.8214C4.84706 15.7304 4.8405 15.6294 4.86667 15.5343C4.89283 15.4392 4.95026 15.3553 5.02996 15.2958L9.81581 11.7323C9.71404 11.7502 9.60909 11.7332 9.51852 11.6841C9.42795 11.635 9.35722 11.5567 9.3181 11.4624C9.27898 11.3681 9.27382 11.2634 9.30354 11.1658C9.33325 11.0682 9.39605 10.9836 9.48139 10.9261L10.6835 10.1198C10.647 10.0318 10.6401 9.93469 10.6637 9.84253C10.6872 9.75036 10.7401 9.66806 10.8145 9.60763L12.803 7.96395C12.7757 7.86809 12.7818 7.76602 12.8203 7.67397C12.8588 7.58193 12.9275 7.50522 13.0154 7.45615L14.3712 6.69002C14.469 6.63409 14.5845 6.61635 14.6949 6.64026C14.8054 6.66418 14.9027 6.72803 14.9677 6.81921C15.0076 6.87475 15.034 6.93854 15.0449 7.00571C15.0559 7.07289 15.0511 7.14167 15.0309 7.20674L15.0762 7.17998C15.1774 7.12175 15.2975 7.10455 15.4114 7.13197C15.5252 7.15939 15.6237 7.22933 15.6863 7.32701C15.717 7.37581 15.737 7.43044 15.745 7.48736C15.8053 7.49772 15.8628 7.52001 15.9141 7.55294C15.9654 7.58586 16.0093 7.6287 16.0433 7.67887C16.1068 7.77332 16.1314 7.88812 16.1121 7.99984C16.0928 8.11156 16.031 8.2118 15.9393 8.28019L11.3297 11.7278L16.6308 8.71231C16.7334 8.65348 16.8555 8.63686 16.9705 8.66603C17.0855 8.69521 17.1842 8.76782 17.2454 8.8682C17.2623 8.9 17.2774 8.9327 17.2905 8.96618C17.372 8.99038 17.4449 9.03674 17.5008 9.09994C17.5567 9.16314 17.5933 9.24059 17.6065 9.32342C17.6197 9.40624 17.609 9.49109 17.5755 9.56816C17.542 9.64522 17.4871 9.71139 17.4171 9.75906L13.1916 12.6722L16.7483 10.6499C16.8481 10.594 16.9657 10.5776 17.0774 10.604C17.189 10.6305 17.2862 10.6979 17.3493 10.7924C17.4124 10.8874 17.4363 11.0026 17.4161 11.1143C17.3959 11.2261 17.3332 11.326 17.2408 11.3938L11.5738 15.5185L12.1206 15.2067C12.2207 15.1412 12.3431 15.1175 12.4609 15.1409C12.5787 15.1643 12.6822 15.2328 12.7488 15.3315C12.8153 15.4301 12.8393 15.5507 12.8156 15.6668C12.7918 15.7829 12.7223 15.885 12.6222 15.9506L10.1412 17.8125L10.1773 17.857C10.2409 17.9515 10.2655 18.0663 10.2462 18.178C10.2268 18.2897 10.1651 18.39 10.0734 18.4584L9.16954 19.1577C9.17615 19.2409 9.15888 19.3243 9.11972 19.3984C9.08057 19.4724 9.02111 19.5341 8.9481 19.5765L7.56525 20.3648C7.4684 20.4199 7.35425 20.4377 7.2449 20.4146C7.13556 20.3916 7.03875 20.3294 6.97321 20.2401L6.7563 20.3648C6.67943 20.4027 6.59318 20.4182 6.50772 20.4094ZM15.0306 17.6564L17.2902 16.378L16.8383 16.8235H17.7421V15.9326C17.7421 15.8145 17.7897 15.7012 17.8745 15.6176C17.9592 15.5341 18.0742 15.4872 18.194 15.4872C18.3139 15.4872 18.4288 15.5341 18.5136 15.6176C18.5983 15.7012 18.6459 15.8145 18.6459 15.9326V16.2934L20.187 14.721C20.2626 14.6437 20.3073 14.5421 20.3129 14.4349C20.3186 14.3277 20.2847 14.2221 20.2176 14.1375C20.1505 14.0529 20.0547 13.9951 19.9477 13.9746C19.8408 13.9542 19.73 13.9725 19.6357 14.0261L16.9241 15.5762L18.0313 14.3068C18.1001 14.2264 18.1379 14.1246 18.1379 14.0195C18.1379 13.9143 18.1001 13.8125 18.0313 13.7321C17.9634 13.651 17.8684 13.5962 17.7634 13.5774C17.6583 13.5587 17.55 13.5772 17.4574 13.6297L15.374 14.819C15.3223 14.8481 15.2768 14.8871 15.2404 14.9335C15.2039 14.98 15.1771 15.0331 15.1616 15.0899C15.146 15.1466 15.1421 15.2058 15.1498 15.264C15.1576 15.3223 15.1769 15.3784 15.2068 15.4293C15.2523 15.5049 15.3195 15.5655 15.4 15.6036C15.4804 15.6416 15.5704 15.6554 15.6587 15.6431L14.4928 16.9794C14.424 17.0597 14.3862 17.1615 14.3862 17.2667C14.3862 17.3719 14.424 17.4736 14.4928 17.554C14.5587 17.6268 14.647 17.6762 14.7441 17.6947C14.8413 17.7132 14.9419 17.6997 15.0306 17.6564ZM21.864 17.2161C21.7964 17.1331 21.701 17.0767 21.5948 17.0571C21.4887 17.0375 21.379 17.056 21.2855 17.1092L19.2474 18.2718L21.4482 16.0446C21.5238 15.9673 21.5685 15.8657 21.5742 15.7585C21.5798 15.6513 21.5459 15.5456 21.4788 15.4611C21.4117 15.3765 21.3159 15.3187 21.209 15.2982C21.102 15.2777 20.9912 15.296 20.8969 15.3497L18.6147 16.6459V16.8553H19.5185C19.6384 16.8553 19.7533 16.9022 19.8381 16.9858C19.9228 17.0693 19.9704 17.1826 19.9704 17.3007C19.9704 17.4188 19.9228 17.5322 19.8381 17.6157C19.7533 17.6992 19.6384 17.7461 19.5185 17.7461H18.6147V18.637C18.6147 18.7551 18.5671 18.8685 18.4823 18.952C18.3976 19.0355 18.2826 19.0824 18.1627 19.0824C18.0429 19.0824 17.9279 19.0355 17.8432 18.952C17.7584 18.8685 17.7108 18.7551 17.7108 18.637V18.5479L16.3551 19.9377C16.2795 20.015 16.2347 20.1166 16.2291 20.2238C16.2235 20.331 16.2573 20.4367 16.3244 20.5212C16.3915 20.6058 16.4874 20.6636 16.5943 20.6841C16.7012 20.7045 16.8121 20.6863 16.9064 20.6326L19.2293 19.2963L18.3616 20.2362C18.2916 20.3168 18.2531 20.4195 18.2531 20.5256C18.2531 20.6318 18.2916 20.7345 18.3616 20.8152C18.4042 20.8669 18.4578 20.9085 18.5188 20.937C18.5798 20.9656 18.6466 20.9802 18.7141 20.98C18.7932 20.9805 18.8712 20.9606 18.94 20.9221L21.0279 19.7373C21.113 19.6901 21.1803 19.6171 21.2198 19.5291C21.2593 19.4411 21.2688 19.3429 21.247 19.2491C21.2251 19.1553 21.173 19.0711 21.0985 19.0089C21.0239 18.9468 20.9311 18.9101 20.8336 18.9043L21.873 17.7773C21.937 17.697 21.9711 17.5973 21.9695 17.4951C21.9678 17.393 21.9306 17.2944 21.864 17.2161ZM16.8068 17.7325H17.7107L17.7243 18.1779L15.5505 19.4118C15.4561 19.4657 15.345 19.4842 15.2379 19.4637C15.1307 19.4433 15.0347 19.3852 14.9675 19.3004C14.9006 19.2157 14.8669 19.1101 14.8727 19.0029C14.8785 18.8956 14.9234 18.7941 14.9992 18.7169L16.3549 17.3271C16.3651 17.4382 16.4172 17.5415 16.5008 17.6165C16.5845 17.6916 16.6937 17.733 16.8068 17.7325Z" fill="#545F53"/>
</svg>
