<svg width="24" height="24" viewBox="0 0 24 24" fill="none" xmlns="http://www.w3.org/2000/svg">
<path d="M6.27439 6.28997H4.11438L2.1594 8.05999C2.07625 8.14167 2.02423 8.24983 2.01236 8.36578C2.0005 8.48172 2.02952 8.59817 2.0944 8.695C2.16293 8.79007 2.26449 8.85607 2.37919 8.88012C2.49388 8.90417 2.61344 8.88454 2.71439 8.82501L6.10938 6.86999L2.82938 9.73498C2.76577 9.82002 2.73088 9.9231 2.72977 10.0293C2.72867 10.1355 2.76142 10.2393 2.82325 10.3256C2.88508 10.412 2.97278 10.4764 3.07367 10.5095C3.17457 10.5427 3.28338 10.5428 3.38437 10.51L7.52939 8.11498L5.98438 9.76501C5.90696 9.84829 5.862 9.95656 5.85764 10.0702C5.85328 10.1838 5.88982 10.2952 5.96064 10.3842C6.03145 10.4732 6.13183 10.5338 6.24354 10.555C6.35524 10.5763 6.47084 10.5568 6.56937 10.5L8.85938 9.17999L8.49439 9.85498C8.44328 9.94594 8.42388 10.0513 8.43927 10.1545C8.45466 10.2577 8.50395 10.3529 8.57938 10.425C8.65568 10.4938 8.75135 10.5375 8.85334 10.55C8.95533 10.5625 9.0587 10.5433 9.14939 10.495L10.2694 9.85003C10.3742 9.78292 10.4503 9.67905 10.4826 9.55883C10.515 9.43862 10.5014 9.31069 10.4444 9.20001C10.4037 9.13248 10.3476 9.07552 10.2807 9.03381C10.2138 8.9921 10.1379 8.96683 10.0594 8.96002L10.4994 8.15502C10.5451 8.06236 10.561 7.95778 10.5449 7.85571C10.5288 7.75363 10.4815 7.65908 10.4094 7.58502C10.3355 7.51198 10.2395 7.46548 10.1363 7.45281C10.0332 7.44015 9.92877 7.46203 9.83939 7.51501L8.8794 8.07L10.4244 6.41998C10.5006 6.33472 10.5428 6.22436 10.5428 6.10998C10.5428 5.9956 10.5006 5.88524 10.4244 5.79998C10.3512 5.71406 10.251 5.65545 10.1403 5.63366C10.0295 5.61187 9.91469 5.6282 9.8144 5.67999L7.08939 7.255L10.3644 4.385C10.4251 4.3002 10.4577 4.19853 10.4578 4.09423C10.4578 3.98994 10.4253 3.88827 10.3647 3.8034C10.304 3.71853 10.2184 3.65474 10.1197 3.62097C10.0211 3.58719 9.91431 3.58507 9.8144 3.61498L6.24939 5.67498L6.27439 6.28997Z" fill="#545F53"/>
<path d="M6.27539 5.61499L9.3454 2.83002C9.40674 2.76108 9.44778 2.67647 9.46402 2.58564C9.48026 2.4948 9.47105 2.4013 9.43741 2.31537C9.40376 2.22945 9.34701 2.15448 9.27341 2.09882C9.1998 2.04317 9.11223 2.00896 9.02039 2C8.93756 1.99963 8.85626 2.02213 8.7854 2.06501L6.2854 3.51502L6.27539 5.61499Z" fill="#545F53"/>
<path d="M17.7408 6.29495H20.9308L19.9308 7.14999L21.3008 6.35995C21.3973 6.30771 21.5084 6.28876 21.6168 6.30593C21.7253 6.3231 21.825 6.37547 21.9008 6.45498C21.9669 6.54198 22.0027 6.64821 22.0027 6.75747C22.0027 6.86673 21.9669 6.97297 21.9008 7.05996L20.8108 8.49496L21.2808 8.225C21.365 8.18689 21.4582 8.17284 21.55 8.18454C21.6417 8.19623 21.7284 8.23319 21.8005 8.29122C21.8725 8.34926 21.927 8.4261 21.958 8.51327C21.9889 8.60044 21.9951 8.69454 21.9757 8.785L21.7708 9.40499C21.8378 9.44862 21.8942 9.50669 21.9358 9.57498C21.9927 9.68566 22.0064 9.81359 21.974 9.9338C21.9417 10.054 21.8656 10.1579 21.7607 10.225L21.2607 10.5C21.1767 10.5368 21.0841 10.5498 20.9932 10.5374C20.9022 10.5251 20.8164 10.488 20.7451 10.4301C20.6739 10.3723 20.6199 10.296 20.5892 10.2096C20.5584 10.1231 20.552 10.0298 20.5707 9.93997L20.6608 9.67495L19.2257 10.5C19.1297 10.551 19.0197 10.5693 18.9123 10.5521C18.805 10.535 18.7061 10.4834 18.6308 10.405C18.561 10.3208 18.5208 10.216 18.5163 10.1067C18.5118 9.99744 18.5432 9.88965 18.6057 9.79995L19.6957 8.36495L15.9958 10.5C15.8951 10.5312 15.7871 10.5298 15.6873 10.496C15.5875 10.4622 15.5009 10.3977 15.4399 10.3118C15.3789 10.2258 15.3466 10.1228 15.3477 10.0174C15.3487 9.91204 15.383 9.80972 15.4457 9.725L17.3658 8.06997L14.2408 9.89498C14.1405 9.91643 14.0362 9.90656 13.9417 9.86672C13.8473 9.82689 13.7674 9.75895 13.7129 9.67221C13.6583 9.58546 13.6317 9.4841 13.6367 9.38174C13.6417 9.27938 13.678 9.18104 13.7408 9.1L14.4507 8.6L14.1957 8.74496C14.0958 8.77487 13.9891 8.77282 13.8904 8.73904C13.7917 8.70526 13.7061 8.64147 13.6455 8.55661C13.5849 8.47174 13.5523 8.37001 13.5523 8.26571C13.5524 8.16142 13.5851 8.05981 13.6458 7.975L16.6458 5.38497L14.2158 6.78994C14.1159 6.82172 14.0086 6.82134 13.909 6.78884C13.8094 6.75635 13.7225 6.69339 13.6606 6.60885C13.5988 6.52431 13.565 6.42248 13.5641 6.31771C13.5632 6.21294 13.5953 6.11055 13.6558 6.02499L14.6158 5.16L14.2158 5.38998C14.116 5.44234 14.0015 5.4595 13.8907 5.43862C13.78 5.41775 13.6796 5.36008 13.6057 5.27499C13.536 5.18672 13.498 5.0775 13.498 4.96499C13.498 4.85248 13.536 4.74327 13.6057 4.65499L13.9457 4.27999C13.8494 4.26443 13.7597 4.22099 13.6877 4.15506C13.6158 4.08912 13.5647 4.00353 13.5407 3.9089C13.5168 3.81427 13.5211 3.71474 13.5531 3.62252C13.5851 3.53031 13.6434 3.44947 13.7208 3.38998L15.9507 2.10495C16.0479 2.07046 16.1534 2.06688 16.2527 2.09469C16.3521 2.1225 16.4403 2.18034 16.5055 2.26028C16.5707 2.34022 16.6095 2.43841 16.6167 2.54129C16.6239 2.64417 16.5991 2.74674 16.5457 2.83499L16.3557 3.04495L17.7607 2.22995V6.31997L17.7408 6.29495Z" fill="#545F53"/>
<path d="M2.73954 15.4149L2.91452 15.3149L2.10453 16.57C2.06372 16.6607 2.05093 16.7615 2.06775 16.8596C2.08458 16.9576 2.13026 17.0485 2.19898 17.1204C2.2677 17.1924 2.35634 17.2421 2.45353 17.2634C2.55071 17.2847 2.65203 17.2765 2.74454 17.2399L2.85453 17.1749L2.20453 17.715H6.30954V20.595L7.72452 19.775L6.43454 21.195C6.37931 21.2832 6.35303 21.3865 6.35935 21.4905C6.36567 21.5944 6.40427 21.6938 6.46979 21.7747C6.53531 21.8557 6.62448 21.9141 6.72483 21.942C6.82517 21.9698 6.9317 21.9656 7.02955 21.9299L9.37955 20.575L9.16953 21.395C9.15565 21.4845 9.16634 21.576 9.20044 21.6599C9.23455 21.7438 9.29078 21.8169 9.36316 21.8713C9.43555 21.9257 9.52136 21.9594 9.61142 21.9689C9.70149 21.9783 9.79244 21.9631 9.87455 21.9249L10.3495 21.645C10.4544 21.5779 10.5304 21.474 10.5628 21.3538C10.5952 21.2336 10.5815 21.1056 10.5245 20.9949C10.4745 20.9076 10.3972 20.8391 10.3045 20.7999L10.5745 19.715C10.5879 19.6261 10.577 19.5353 10.5431 19.4521C10.5092 19.3689 10.4535 19.2964 10.3819 19.2421C10.3103 19.1879 10.2253 19.154 10.1361 19.1439C10.0468 19.1339 9.95645 19.148 9.87455 19.1849L9.17954 19.585L10.4645 18.1649C10.5384 18.0795 10.5791 17.9704 10.5791 17.8574C10.5791 17.7445 10.5384 17.6353 10.4645 17.5499C10.3907 17.4648 10.2903 17.4072 10.1795 17.3863C10.0688 17.3654 9.95429 17.3826 9.85453 17.4349L8.29453 18.335L10.3995 16.58C10.4781 16.514 10.5332 16.4244 10.5566 16.3245C10.5799 16.2247 10.5704 16.1199 10.5293 16.0259C10.4882 15.932 10.4178 15.8538 10.3286 15.8032C10.2395 15.7525 10.1363 15.7321 10.0346 15.7449L10.3695 15.4999C10.4648 15.4257 10.5299 15.3194 10.5528 15.2009C10.5758 15.0823 10.5551 14.9594 10.4945 14.8549C10.4247 14.756 10.3214 14.6857 10.2036 14.6572C10.0859 14.6287 9.96188 14.6439 9.85453 14.7L8.23954 15.645L9.85953 14.3799C9.9559 14.3072 10.0206 14.2001 10.0401 14.0809C10.0597 13.9618 10.0326 13.8397 9.96454 13.7399C9.89348 13.6439 9.79038 13.5765 9.67389 13.5499C9.55741 13.5233 9.43524 13.5393 9.32953 13.595L7.20453 14.82L7.85453 14.285C7.94284 14.2062 8.00037 14.0986 8.01685 13.9814C8.03333 13.8643 8.00769 13.745 7.94452 13.645C7.89898 13.5826 7.83962 13.5317 7.77109 13.4961C7.70256 13.4605 7.62673 13.4413 7.54953 13.4399C7.46671 13.4396 7.38541 13.4621 7.31455 13.5049L3.97953 15.4299L4.78952 14.1749C4.83033 14.0842 4.84315 13.9834 4.82633 13.8853C4.8095 13.7873 4.76379 13.6965 4.69507 13.6245C4.62635 13.5526 4.53774 13.5027 4.44056 13.4814C4.34337 13.4602 4.24205 13.4683 4.14954 13.5049L2.26453 14.59C2.18903 14.6695 2.14178 14.7716 2.13004 14.8807C2.1183 14.9897 2.14272 15.0996 2.19956 15.1934C2.2564 15.2871 2.34249 15.3596 2.44458 15.3997C2.54667 15.4397 2.65909 15.4451 2.76453 15.4149H2.73954Z" fill="#545F53"/>
<path d="M21.2742 16.2299L18.6992 17.7299H20.9642L21.8192 17.02C21.8831 16.9357 21.9186 16.8334 21.9206 16.7277C21.9226 16.622 21.8911 16.5183 21.8305 16.4316C21.77 16.345 21.6835 16.2797 21.5836 16.2453C21.4836 16.2109 21.3753 16.209 21.2742 16.2399V16.2299Z" fill="#545F53"/>
<path d="M14.155 15.8201L14.3499 15.7101L13.555 16.6451C13.4864 16.7329 13.4492 16.8412 13.4492 16.9526C13.4492 17.064 13.4864 17.1722 13.555 17.2601C13.6298 17.3424 13.7299 17.3974 13.8394 17.4164C13.949 17.4354 14.0618 17.4173 14.16 17.3651L16.08 16.2601L13.58 18.665C13.5216 18.7514 13.4917 18.8539 13.4945 18.9581C13.4972 19.0623 13.5325 19.163 13.5953 19.2462C13.6581 19.3293 13.7453 19.3908 13.8448 19.422C13.9442 19.4532 14.0509 19.4525 14.15 19.42L17.0999 17.7151L13.5999 20.665C13.5381 20.7494 13.5043 20.8511 13.5033 20.9557C13.5023 21.0603 13.5341 21.1626 13.5943 21.2482C13.6545 21.3337 13.74 21.3983 13.8388 21.4327C13.9376 21.4671 14.0446 21.4697 14.145 21.4401L16.92 19.8401L15.335 21.1601C15.2731 21.2445 15.2394 21.3461 15.2383 21.4507C15.2373 21.5553 15.2691 21.6576 15.3293 21.7432C15.3895 21.8287 15.475 21.8933 15.5738 21.9277C15.6725 21.9622 15.7797 21.9647 15.88 21.9351L17.7 20.8851V17.7201H18.5699L21.81 14.985C21.8718 14.9007 21.9056 14.799 21.9066 14.6944C21.9076 14.5898 21.8758 14.4875 21.8156 14.402C21.7554 14.3164 21.6699 14.2518 21.5712 14.2174C21.4724 14.183 21.3653 14.1804 21.265 14.2101L17.025 16.6551L19.525 14.2551C19.5836 14.1856 19.6223 14.1015 19.6367 14.0118C19.6511 13.922 19.6408 13.83 19.6069 13.7457C19.5729 13.6613 19.5167 13.5879 19.4441 13.5331C19.3715 13.4784 19.2854 13.4445 19.1949 13.4351C19.1106 13.4348 19.0277 13.4572 18.955 13.5001L16.075 15.1601L16.87 14.2251C16.9206 14.1366 16.943 14.0347 16.9341 13.933C16.9252 13.8314 16.8854 13.735 16.8201 13.6566C16.7548 13.5783 16.6671 13.5217 16.5688 13.4946C16.4704 13.4675 16.3662 13.4712 16.27 13.5051L13.685 15.0051C13.5801 15.0722 13.504 15.176 13.4717 15.2962C13.4393 15.4164 13.453 15.5444 13.5099 15.6551C13.5414 15.7084 13.583 15.7549 13.6325 15.792C13.682 15.8291 13.7383 15.8561 13.7982 15.8715C13.8581 15.8868 13.9205 15.8902 13.9817 15.8814C14.0429 15.8725 14.1018 15.8517 14.155 15.8201Z" fill="#545F53"/>
</svg>
