<svg width="25" height="25" viewBox="0 0 25 25" fill="none" xmlns="http://www.w3.org/2000/svg">
<path fill-rule="evenodd" clip-rule="evenodd" d="M10.4382 5.51953C10.4493 5.61625 10.4923 5.70654 10.5605 5.77606C10.6284 5.84629 10.7179 5.89178 10.8146 5.90526C10.9114 5.91875 11.0099 5.89942 11.0945 5.85044L14.3861 3.95075C14.4361 3.92201 14.48 3.8837 14.5152 3.83801C14.5504 3.79232 14.5763 3.74013 14.5913 3.68445C14.6063 3.62876 14.6103 3.57066 14.6028 3.51346C14.5954 3.45626 14.5768 3.40109 14.5481 3.35108C14.5193 3.30107 14.481 3.25725 14.4353 3.22204C14.3896 3.18684 14.3374 3.16094 14.2818 3.1459C14.2261 3.13086 14.168 3.12694 14.1108 3.13436C14.0536 3.14177 13.9984 3.16039 13.9484 3.18913L12.1319 4.23966L12.482 3.66184C12.5326 3.57869 12.5541 3.48108 12.543 3.38437C12.5319 3.28765 12.4889 3.19736 12.4208 3.12784C12.3531 3.05864 12.2644 3.01381 12.1686 3.00035C12.0728 2.98689 11.9752 3.00557 11.8911 3.05346L10.8931 3.63123C10.8184 3.67424 10.758 3.73836 10.7195 3.81557C10.6811 3.89278 10.6663 3.97963 10.6771 4.06521C10.6879 4.15078 10.7236 4.23127 10.78 4.29657C10.8363 4.36187 10.9107 4.40906 10.9938 4.43224L10.4992 5.24206C10.4485 5.32521 10.4271 5.42282 10.4382 5.51953ZM9.88661 12.0974C9.88683 11.719 9.96118 11.3442 10.1055 10.9944L6.24916 13.8221C6.16159 13.8892 6.10263 13.9869 6.08405 14.0957C6.06547 14.2045 6.08866 14.3162 6.14897 14.4086C6.20929 14.501 6.30228 14.5673 6.40932 14.5941C6.51637 14.6208 6.62957 14.6061 6.72629 14.553L9.9479 12.6927C9.90737 12.4969 9.88684 12.2974 9.88661 12.0974ZM5.78465 8.17381C5.71694 8.09941 5.67692 8.00395 5.67134 7.9035C5.66576 7.80305 5.69495 7.70373 5.754 7.62228L6.62944 6.37479C6.5538 6.37357 6.47977 6.35277 6.41456 6.31441C6.34935 6.27606 6.29521 6.22146 6.25739 6.15593C6.20032 6.05542 6.18532 5.93644 6.21566 5.82492C6.246 5.71339 6.31922 5.61838 6.41934 5.56064L7.86819 4.7202C7.95532 4.66858 8.05765 4.64879 8.15775 4.66415C8.25784 4.67951 8.3495 4.72909 8.41713 4.80446C8.48476 4.87984 8.52416 4.97634 8.52862 5.0775C8.53308 5.17867 8.50233 5.27822 8.44161 5.35925L7.63622 6.47984L9.15071 5.6044C9.23941 5.55349 9.34315 5.53525 9.44389 5.55284C9.54464 5.57043 9.63604 5.62273 9.70224 5.70069C9.7689 5.77966 9.80547 5.87968 9.80547 5.98303C9.80547 6.08637 9.7689 6.18639 9.70224 6.26536L8.76551 7.38152L14.3464 4.15991C14.4465 4.10758 14.5629 4.09596 14.6713 4.12742C14.7797 4.15887 14.8718 4.23101 14.9283 4.32875C14.9848 4.4265 15.0013 4.54226 14.9745 4.65191C14.9476 4.76157 14.8794 4.85664 14.7842 4.91721L7.04528 9.38631C6.97857 9.42412 6.9031 9.44374 6.82642 9.44321C6.76285 9.44268 6.70017 9.42832 6.64272 9.40111C6.58527 9.37389 6.53443 9.33448 6.49375 9.28564C6.42824 9.20699 6.39236 9.10785 6.39236 9.00549C6.39236 8.90313 6.42824 8.804 6.49375 8.72534L7.43048 7.60914L6.30553 8.25695C6.22147 8.30161 6.12515 8.3177 6.03116 8.30269C5.93716 8.28769 5.85062 8.24243 5.78465 8.17381ZM4.58546 13.949L10.2758 10.653C10.5297 10.2105 10.8965 9.8433 11.3386 9.58877C11.7808 9.33425 12.2825 9.20152 12.7927 9.20417C13.134 9.20215 13.4726 9.26454 13.7907 9.38803L18.6713 5.81184C18.7608 5.74527 18.8215 5.64708 18.841 5.53725C18.8605 5.42742 18.8374 5.31427 18.7763 5.22093C18.7152 5.12799 18.6211 5.0618 18.5129 5.03579C18.4048 5.00977 18.2908 5.0259 18.1942 5.08088L10.8799 9.30045L15.1651 6.13575C15.2546 6.06918 15.3154 5.97098 15.3349 5.86116C15.3544 5.75133 15.3313 5.63818 15.2702 5.54484C15.209 5.45075 15.114 5.38373 15.0049 5.35766C14.8957 5.3316 14.7807 5.3485 14.6837 5.40479L5.52657 10.6968L5.61847 10.5611C5.67278 10.479 5.69784 10.381 5.68956 10.2829C5.68128 10.1848 5.64017 10.0923 5.57287 10.0204C5.50556 9.94854 5.41599 9.9015 5.31863 9.88682C5.22128 9.87215 5.12182 9.89073 5.03632 9.93956L3.99017 10.5436C3.9185 10.5849 3.85998 10.6456 3.8214 10.7187C3.78282 10.7919 3.76575 10.8744 3.77216 10.9569C3.77857 11.0393 3.8082 11.1183 3.85763 11.1846C3.90706 11.2509 3.97427 11.3018 4.05145 11.3315L3.75816 11.7692C3.70385 11.8513 3.67882 11.9494 3.6871 12.0475C3.69538 12.1456 3.73649 12.238 3.80379 12.3099C3.8711 12.3817 3.96067 12.4288 4.05803 12.4435C4.15538 12.4582 4.25484 12.4396 4.34034 12.3908L8.38924 10.0534L4.10836 13.2181C4.01815 13.284 3.95655 13.3819 3.9362 13.4918C3.91585 13.6016 3.9383 13.7151 3.99893 13.809C4.0601 13.9031 4.15507 13.9701 4.26422 13.9962C4.37338 14.0222 4.48837 14.0053 4.58546 13.949ZM21.8088 12.8323C21.8659 12.9328 21.8808 13.0518 21.8505 13.1633C21.8202 13.2749 21.7469 13.3699 21.6468 13.4276L20.0842 14.3294C20.0185 14.3701 19.9426 14.3914 19.8653 14.3906C19.7889 14.3901 19.714 14.3697 19.648 14.3313C19.5819 14.2929 19.5271 14.2379 19.4889 14.1717C19.4589 14.1191 19.4396 14.0611 19.432 14.0011L17.2215 15.6556L18.5346 14.894C18.6307 14.8424 18.7427 14.8286 18.8484 14.8552C18.9542 14.8819 19.0462 14.947 19.1064 15.0379C19.1667 15.1288 19.1908 15.239 19.1741 15.3468C19.1574 15.4545 19.1011 15.5522 19.0161 15.6206L18.9242 15.695L19.0511 15.6206C19.1399 15.5702 19.2434 15.5524 19.3439 15.5703C19.4443 15.5881 19.5354 15.6405 19.6013 15.7184C19.6672 15.7963 19.7039 15.8947 19.7049 15.9968C19.706 16.0988 19.6714 16.198 19.607 16.2772L18.8454 17.2095L19.5633 16.7718C19.6643 16.7138 19.7842 16.6982 19.8967 16.7286C20.0091 16.759 20.1049 16.8328 20.163 16.9338C20.221 17.0348 20.2365 17.1547 20.2062 17.2671C20.1758 17.3796 20.102 17.4754 20.001 17.5334L17.2171 19.1399C17.1504 19.1777 17.0749 19.1973 16.9982 19.1968C16.935 19.1968 16.8725 19.1831 16.8151 19.1566C16.7577 19.1302 16.7067 19.0916 16.6656 19.0436C16.6001 18.9649 16.5642 18.8658 16.5642 18.7634C16.5642 18.661 16.6001 18.562 16.6656 18.4833L17.4272 17.551L16.0396 18.352C15.9528 18.4 15.8522 18.417 15.7543 18.4003C15.6565 18.3836 15.5673 18.3342 15.5012 18.2601L15.0635 18.5971C15.1214 18.6733 15.1527 18.7663 15.1527 18.8619C15.1527 18.9576 15.1214 19.0506 15.0635 19.1267L14.6915 19.6258C14.7852 19.6611 14.864 19.7275 14.9147 19.8139C14.9438 19.8636 14.9628 19.9186 14.9707 19.9757C14.9785 20.0327 14.975 20.0908 14.9604 20.1465C14.9458 20.2022 14.9203 20.2545 14.8854 20.3003C14.8505 20.3462 14.8069 20.3847 14.7571 20.4136L13.514 21.1271C13.449 21.1657 13.3751 21.1868 13.2995 21.1884C13.2374 21.1883 13.176 21.175 13.1193 21.1493C13.0627 21.1237 13.0123 21.0863 12.9712 21.0396C12.908 20.9616 12.8734 20.8642 12.8734 20.7638C12.8734 20.6634 12.908 20.566 12.9712 20.488L13.0982 20.3173L11.8331 21.0483C11.7362 21.1099 11.619 21.1309 11.5067 21.1068C11.3944 21.0828 11.2961 21.0155 11.2329 20.9196C11.1697 20.8237 11.1468 20.7068 11.169 20.5942C11.1912 20.4815 11.2568 20.3821 11.3517 20.3173L12.8487 19.188L11.2904 20.0897C11.1934 20.1513 11.0762 20.1723 10.9639 20.1482C10.8517 20.1241 10.7533 20.0569 10.6901 19.961C10.627 19.8651 10.604 19.7482 10.6262 19.6356C10.6485 19.5229 10.7141 19.4235 10.8089 19.3587L15.3305 15.9795L10.8308 18.5796C10.7822 18.6103 10.7281 18.6312 10.6714 18.641C10.6148 18.6509 10.5567 18.6494 10.5006 18.6368C10.4446 18.6242 10.3915 18.6007 10.3445 18.5676C10.2975 18.5345 10.2575 18.4924 10.2267 18.4439C10.196 18.3953 10.1751 18.3412 10.1653 18.2845C10.1554 18.2279 10.1569 18.1699 10.1695 18.1138C10.1821 18.0577 10.2056 18.0046 10.2387 17.9576C10.2718 17.9106 10.3138 17.8706 10.3624 17.8398L12.4941 16.3603L7.57415 19.2011C7.47562 19.258 7.35883 19.2742 7.24853 19.2464C7.13823 19.2187 7.04306 19.149 6.98321 19.0523C6.92342 18.9555 6.90369 18.8392 6.9282 18.728C6.95271 18.6169 7.01957 18.5197 7.11455 18.457L7.76236 18.0193L6.85628 18.5402C6.7596 18.5772 6.65295 18.5787 6.55527 18.5444C6.45758 18.5102 6.37518 18.4425 6.3227 18.3533C6.27022 18.264 6.25105 18.1591 6.2686 18.0571C6.28615 17.9551 6.33928 17.8626 6.41856 17.7961L6.56302 17.7042L6.27849 17.8661C6.17996 17.9229 6.06317 17.9392 5.95287 17.9114C5.84257 17.8836 5.74743 17.814 5.68758 17.7173C5.62737 17.621 5.60696 17.5051 5.63064 17.394C5.65433 17.2829 5.72025 17.1853 5.81451 17.122L7.74048 15.8351L6.42732 16.5836C6.32981 16.6468 6.21115 16.6688 6.09746 16.6446C5.98377 16.6204 5.88435 16.552 5.82108 16.4545C5.75781 16.357 5.73587 16.2383 5.76008 16.1246C5.7843 16.0109 5.85268 15.9115 5.9502 15.8482L10.0516 12.9068C10.2545 13.5689 10.6881 14.1362 11.2737 14.5058C11.8593 14.8755 12.558 15.0228 13.243 14.9211C13.928 14.8194 14.5538 14.4754 15.0067 13.9515C15.4596 13.4277 15.7096 12.7588 15.7113 12.0663C15.7132 11.5045 15.5488 10.9547 15.2386 10.4862L18.5697 8.56019C18.6683 8.49866 18.7874 8.47883 18.9007 8.5051C19.014 8.53137 19.1122 8.60156 19.1737 8.70023C19.2352 8.79891 19.255 8.91802 19.2288 9.0313C19.2025 9.14458 19.1323 9.24276 19.0336 9.30429L17.112 10.5912L18.8629 9.57567C18.9596 9.53871 19.0662 9.53723 19.1639 9.57145C19.2616 9.60567 19.344 9.67342 19.3965 9.76263C19.449 9.85185 19.4681 9.95675 19.4506 10.0588C19.433 10.1608 19.3799 10.2533 19.3006 10.3198L19.1562 10.4161L20.0623 9.89087C20.1615 9.82992 20.2809 9.81088 20.3942 9.83797C20.5075 9.86506 20.6054 9.93604 20.6663 10.0353C20.7273 10.1346 20.7463 10.2539 20.7192 10.3672C20.6921 10.4805 20.6212 10.5784 20.5219 10.6394L19.8741 11.0771L21.1216 10.3548C21.2197 10.2927 21.3384 10.2722 21.4517 10.2976C21.565 10.323 21.6635 10.3924 21.7256 10.4905C21.7877 10.5886 21.8083 10.7074 21.7829 10.8207C21.7574 10.9339 21.688 11.0325 21.5899 11.0946L19.4626 12.5741L21.2704 11.5279C21.3673 11.4664 21.4846 11.4454 21.5969 11.4694C21.7091 11.4935 21.8074 11.5608 21.8706 11.6567C21.9338 11.7526 21.9567 11.8694 21.9345 11.9821C21.9123 12.0947 21.8467 12.1941 21.7519 12.2589L21.2266 12.6485C21.3285 12.5973 21.4463 12.5879 21.555 12.6222C21.6638 12.6565 21.7548 12.7319 21.8088 12.8323ZM19.3373 6.26196L13.8702 9.4179C14.3687 9.60804 14.8029 9.93595 15.1221 10.3634L19.8101 6.99735C19.901 6.93184 19.9634 6.83389 19.9843 6.72377C20.0052 6.61366 19.983 6.49976 19.9224 6.40548C19.8618 6.3112 19.7674 6.24372 19.6585 6.21702C19.5497 6.19032 19.4347 6.20642 19.3373 6.26196Z" fill="#545F53"/>
</svg>
