<svg width="25" height="25" viewBox="0 0 25 25" fill="none" xmlns="http://www.w3.org/2000/svg">
<path fill-rule="evenodd" clip-rule="evenodd" d="M20.7747 20.5269C20.7444 20.4747 20.7038 20.4292 20.6554 20.393C20.6069 20.3569 20.5517 20.331 20.4929 20.3168V19.8427C20.4965 19.7625 20.4785 19.6829 20.4407 19.6121C20.4029 19.5414 20.3467 19.482 20.2781 19.4404C20.2095 19.3988 20.131 19.3764 20.0508 19.3756C19.9705 19.3748 19.8915 19.3955 19.8221 19.4357L19.4598 19.6459L19.992 18.8319C20.0492 18.7477 20.0758 18.6465 20.0677 18.5451C20.0595 18.4437 20.017 18.3481 19.9472 18.2741C19.8773 18.2 19.7843 18.152 19.6835 18.138C19.5827 18.124 19.4802 18.1448 19.3928 18.1969L18.7443 18.5726L19.5404 17.7273C19.614 17.6487 19.6568 17.5462 19.6609 17.4386C19.665 17.3309 19.6302 17.2254 19.5627 17.1415C19.4959 17.0582 19.4014 17.0015 19.2964 16.9818C19.1914 16.9622 19.0828 16.9807 18.9903 17.0341L17.9482 17.6379L19.0708 16.2962C19.1396 16.2157 19.1776 16.1133 19.178 16.0074C19.1785 15.9015 19.1413 15.7988 19.0731 15.7177C19.0049 15.6367 18.9101 15.5825 18.8057 15.5647C18.7013 15.547 18.5939 15.5669 18.5028 15.6209L17.2193 16.3632L18.5252 14.6728C18.589 14.5909 18.6223 14.4893 18.6194 14.3856C18.6166 14.2818 18.5777 14.1823 18.5095 14.104C18.4413 14.0258 18.348 13.9737 18.2456 13.9567C18.1432 13.9397 18.0381 13.9589 17.9482 14.0109L17.0135 14.552L18.0735 13.5502C18.1527 13.4747 18.2016 13.3728 18.2107 13.2637C18.2199 13.1546 18.1887 13.046 18.1231 12.9583C18.0575 12.8707 17.9621 12.8102 17.8548 12.7882C17.7476 12.7662 17.636 12.7844 17.5413 12.8392L16.2711 13.5726L17.6575 12.459C17.7461 12.3884 17.8047 12.2868 17.8213 12.1748C17.8379 12.0627 17.8113 11.9485 17.747 11.8552C17.7484 11.7748 17.7266 11.6956 17.6844 11.6271C17.6212 11.5318 17.5238 11.4643 17.4124 11.4385C17.3009 11.4127 17.1837 11.4306 17.0851 11.4885L14.2273 13.1388L14.5404 14.1003H12.5591L11.6647 14.6012L12.3668 14.1003H9.71927L11.7541 7.87043L11.1638 8.2148L11.8212 7.66472L12.0538 6.95812H12.2327L12.34 7.28011L15.1173 4.98584C15.2079 4.91564 15.268 4.81337 15.2854 4.7001C15.3027 4.58683 15.2759 4.47122 15.2105 4.37713C15.1451 4.28304 15.0461 4.21761 14.9339 4.19441C14.8216 4.1712 14.7048 4.19196 14.6075 4.25238L11.9241 5.80424L14.6075 3.54131C14.6934 3.46962 14.7494 3.36827 14.7643 3.25732C14.7792 3.14636 14.752 3.03388 14.6879 2.94204C14.6236 2.85049 14.5273 2.78639 14.418 2.76238C14.3087 2.73837 14.1944 2.75618 14.0976 2.81233L11.4635 4.33291L12.3087 3.52788C12.3853 3.45215 12.4319 3.35137 12.4401 3.244C12.4483 3.13662 12.4175 3.02988 12.3534 2.94341C12.2892 2.85693 12.1959 2.7965 12.0908 2.77324C11.9856 2.74998 11.8756 2.76546 11.781 2.8168L10.2917 3.67544L10.4348 3.44293C10.4867 3.35823 10.5089 3.25865 10.498 3.15992C10.487 3.0612 10.4435 2.96891 10.3743 2.89766C10.3051 2.8264 10.2141 2.78025 10.1158 2.76642C10.0174 2.75258 9.91725 2.77188 9.83108 2.82128L9.26757 3.14327C9.21669 3.17286 9.17216 3.21217 9.13652 3.25901C9.10088 3.30584 9.07485 3.35926 9.0599 3.41618C9.04494 3.4731 9.04135 3.53241 9.04936 3.59072C9.05737 3.64902 9.07682 3.70519 9.10657 3.75597C9.12037 3.78151 9.13686 3.80551 9.15576 3.82754L8.62356 4.72199C8.57184 4.80695 8.5499 4.90673 8.56124 5.00555C8.57258 5.10436 8.61656 5.19656 8.68618 5.2676C8.73504 5.31736 8.79487 5.35497 8.86088 5.37749C8.92688 5.40001 8.99722 5.40683 9.06631 5.39731L8.11819 6.29176C8.03819 6.36745 7.98893 6.46998 7.97985 6.57974C7.97078 6.6895 8.00253 6.79875 8.069 6.88655C8.135 6.97359 8.23055 7.03344 8.33766 7.05486C8.44476 7.07628 8.556 7.05779 8.65039 7.00283L10.0905 6.171L7.40712 8.43394C7.32113 8.50562 7.26515 8.60697 7.25025 8.71793C7.23534 8.82889 7.2626 8.94142 7.32662 9.03326C7.39096 9.12481 7.48727 9.18891 7.59656 9.21292C7.70585 9.23693 7.82015 9.21907 7.91694 9.16292L10.4438 7.70496L6.5395 10.934C6.45602 11.0064 6.40231 11.1072 6.38877 11.2169C6.37522 11.3266 6.4028 11.4375 6.46615 11.5281C6.5295 11.6186 6.62414 11.6825 6.73183 11.7074C6.83952 11.7324 6.95262 11.7165 7.04932 11.663L10.0502 9.93219L5.72554 13.2998C5.6271 13.3662 5.55905 13.469 5.53641 13.5856C5.51376 13.7022 5.53836 13.823 5.60478 13.9214C5.67121 14.0199 5.77402 14.0879 5.89061 14.1105C6.00719 14.1332 6.12799 14.1086 6.22643 14.0422L7.48314 13.3177L5.17099 14.9411C5.07807 15.008 5.01437 15.1081 4.99301 15.2206C4.97166 15.3331 4.99425 15.4495 5.05618 15.5458C5.1181 15.6422 5.21462 15.711 5.32584 15.7383C5.43706 15.7656 5.5545 15.7491 5.65397 15.6924L8.99924 13.7604L4.43305 17.0609C4.34014 17.1279 4.27644 17.2279 4.25508 17.3404C4.23372 17.4529 4.25635 17.5693 4.31827 17.6657C4.3802 17.762 4.47672 17.8309 4.58793 17.8582C4.69915 17.8854 4.8166 17.8691 4.91607 17.8123L9.03948 15.4286L3.67276 19.2658C3.57865 19.3326 3.514 19.4332 3.49233 19.5465C3.47066 19.6599 3.49364 19.7772 3.55648 19.874C3.61898 19.9701 3.71603 20.0386 3.82756 20.0652C3.93909 20.0918 4.05658 20.0746 4.15578 20.0171L8.94558 17.2533C9.00153 17.2906 9.06515 17.3147 9.13174 17.324C9.19833 17.3333 9.26617 17.3275 9.33019 17.3069L4.85792 20.6343C4.76647 20.7023 4.70443 20.8027 4.68448 20.9149C4.66453 21.0271 4.68819 21.1427 4.75059 21.238C4.79152 21.3002 4.8473 21.3512 4.9129 21.3863C4.9785 21.4214 5.05183 21.4397 5.12625 21.4393C5.20459 21.4398 5.2817 21.4198 5.34986 21.3812L6.66023 20.6208L6.58421 20.755C6.53437 20.8397 6.51381 20.9384 6.52569 21.036C6.53757 21.1335 6.58123 21.2244 6.64994 21.2946C6.71865 21.3649 6.80857 21.4105 6.90582 21.4246C7.00307 21.4386 7.10221 21.4202 7.18795 21.3722L7.74254 21.0502C7.84483 20.9912 7.91962 20.8942 7.95062 20.7802C7.98162 20.6663 7.96632 20.5447 7.90801 20.442C7.89421 20.4165 7.8777 20.3925 7.85879 20.3704L8.30602 19.6012C8.34527 19.5332 8.36596 19.4561 8.36596 19.3776C8.36596 19.2991 8.34527 19.222 8.30602 19.154L11.0967 17.0744C11.1038 17.0946 11.1128 17.114 11.1236 17.1325C11.1873 17.226 11.2842 17.2918 11.3946 17.3167C11.5049 17.3416 11.6206 17.3237 11.7184 17.2667L14.6879 15.5493L13.628 16.5511C13.5487 16.6266 13.4999 16.7285 13.4907 16.8376C13.4816 16.9467 13.5128 17.0554 13.5784 17.143C13.644 17.2306 13.7394 17.2911 13.8466 17.3131C13.9539 17.3351 14.0655 17.317 14.1602 17.2622L16.4545 15.9205L15.1486 17.611C15.0828 17.691 15.0469 17.7914 15.0469 17.895C15.0469 17.9986 15.0828 18.099 15.1486 18.179C15.2166 18.2568 15.3094 18.3087 15.4113 18.3259C15.5132 18.343 15.618 18.3243 15.7076 18.2729L16.7318 17.6826L15.6092 19.0243C15.5425 19.1047 15.5061 19.2059 15.5062 19.3105C15.5064 19.415 15.5431 19.5161 15.6101 19.5964C15.677 19.6766 15.7699 19.7309 15.8727 19.7497C15.9755 19.7686 16.0817 19.7508 16.1727 19.6996L16.8078 19.3373L16.0117 20.1826C15.9374 20.2606 15.8938 20.3629 15.8889 20.4705C15.884 20.5781 15.9181 20.684 15.9849 20.7685C16.052 20.8529 16.1473 20.9102 16.2533 20.93C16.3593 20.9497 16.4689 20.9305 16.5618 20.8758L18.2166 19.9187L17.6844 20.7327C17.6287 20.817 17.6032 20.9178 17.6121 21.0186C17.6211 21.1193 17.6639 21.2139 17.7336 21.2872C17.7751 21.3308 17.8251 21.3656 17.8804 21.3894C17.9357 21.4132 17.9953 21.4256 18.0556 21.4259C18.1339 21.4264 18.211 21.4064 18.2792 21.3677L19.5627 20.6253V20.9518C19.5583 21.0323 19.5757 21.1125 19.6132 21.184C19.6506 21.2554 19.7067 21.3154 19.7754 21.3576C19.8442 21.3997 19.9231 21.4225 20.0037 21.4235C20.0844 21.4245 20.1638 21.4037 20.2336 21.3633L20.6092 21.1441C20.6611 21.1149 20.7066 21.0756 20.7431 21.0286C20.7795 20.9816 20.8063 20.9278 20.8217 20.8703C20.8371 20.8128 20.8408 20.7529 20.8328 20.6939C20.8247 20.6349 20.805 20.5782 20.7747 20.5269ZM13.6774 11.4614L12.9172 9.13136L15.7123 7.51688C15.8115 7.46568 15.9262 7.45341 16.034 7.48249C16.1418 7.51156 16.2348 7.57986 16.2947 7.674C16.3547 7.76814 16.3773 7.88129 16.358 7.99124C16.3388 8.10119 16.2792 8.19997 16.1909 8.26819L13.8832 9.89162L16.0925 8.61704C16.1919 8.5603 16.3094 8.5439 16.4206 8.57118C16.5318 8.59846 16.6283 8.66735 16.6903 8.76368C16.7522 8.86 16.7748 8.97638 16.7535 9.08889C16.7321 9.20139 16.6684 9.30147 16.5755 9.3684L13.6774 11.4614ZM13.7444 11.6661L16.5798 10.0292C16.6792 9.9725 16.7967 9.95605 16.9079 9.98333C17.0191 10.0106 17.1156 10.0796 17.1776 10.1759C17.2395 10.2722 17.2621 10.3886 17.2408 10.5011C17.2194 10.6136 17.1557 10.7136 17.0628 10.7806L14.1379 12.8691L13.7444 11.6661ZM12.8412 8.87171L12.394 7.53003L15.1712 5.92898C15.2689 5.87748 15.3821 5.86388 15.4891 5.89082C15.5961 5.91776 15.6894 5.98334 15.751 6.07491C15.8126 6.16648 15.8382 6.27762 15.8228 6.38691C15.8074 6.49619 15.7521 6.59591 15.6677 6.66691L12.8412 8.87171Z" fill="#545F53"/>
</svg>
